<svg xmlns="http://www.w3.org/2000/svg" xmlns:xlink="http://www.w3.org/1999/xlink" width="34.671mm" height="24.257mm" viewBox="4145 3092 136.5 95.5"><title></title><style type="text/css">
*[layerid="1"] {stroke:#FF0000;fill:#FF0000;}
*[layerid="2"] {stroke:#0000FF;fill:#0000FF;}
*[layerid="3"] {stroke:#FFCC00;fill:#FFCC00;}
*[layerid="4"] {stroke:#66CC33;fill:#66CC33;}
*[layerid="5"] {stroke:#808080;fill:#808080;}
*[layerid="6"] {stroke:#800000;fill:#800000;}
*[layerid="7"] {stroke:#800080;fill:#800080;stroke-opacity:0.7;fill-opacity:0.7;}
*[layerid="8"] {stroke:#AA00FF;fill:#AA00FF;stroke-opacity:0.7;fill-opacity:0.7;}
*[layerid="9"] {stroke:#6464FF;fill:#6464FF;}
*[layerid="10"] {stroke:#FF00FF;fill:#FF00FF;}
*[layerid="11"] {stroke:#C0C0C0;fill:#C0C0C0;}
*[layerid="12"] {stroke:#FFFFFF;fill:#FFFFFF;}
*[layerid="13"] {stroke:#33CC99;fill:#33CC99;}
*[layerid="14"] {stroke:#5555FF;fill:#5555FF;}
*[layerid="15"] {stroke:#F022F0;fill:#F022F0;}
*[layerid="19"] {stroke:#66CCFF;fill:#66CCFF;}
*[layerid="21"] {stroke:#999966;fill:#999966;}
*[layerid="22"] {stroke:#008000;fill:#008000;}
*[layerid="23"] {stroke:#00FF00;fill:#00FF00;}
*[layerid="24"] {stroke:#BC8E00;fill:#BC8E00;}
*[layerid="25"] {stroke:#70DBFA;fill:#70DBFA;}
*[layerid="26"] {stroke:#00CC66;fill:#00CC66;}
*[layerid="27"] {stroke:#9966FF;fill:#9966FF;}
*[layerid="28"] {stroke:#800080;fill:#800080;}
*[layerid="29"] {stroke:#008080;fill:#008080;}
*[layerid="30"] {stroke:#15935F;fill:#15935F;}
*[layerid="31"] {stroke:#000080;fill:#000080;}
*[layerid="32"] {stroke:#00B400;fill:#00B400;}
*[layerid="33"] {stroke:#2E4756;fill:#2E4756;}
*[layerid="34"] {stroke:#99842F;fill:#99842F;}
*[layerid="35"] {stroke:#FFFFAA;fill:#FFFFAA;}
*[layerid="36"] {stroke:#99842F;fill:#99842F;}
*[layerid="37"] {stroke:#2E4756;fill:#2E4756;}
*[layerid="38"] {stroke:#3535FF;fill:#3535FF;}
*[layerid="39"] {stroke:#8000BC;fill:#8000BC;}
*[layerid="40"] {stroke:#43AE5F;fill:#43AE5F;}
*[layerid="41"] {stroke:#C3ECCE;fill:#C3ECCE;}
*[layerid="42"] {stroke:#728978;fill:#728978;}
*[layerid="43"] {stroke:#39503F;fill:#39503F;}
*[layerid="44"] {stroke:#0C715D;fill:#0C715D;}
*[layerid="45"] {stroke:#5A8A80;fill:#5A8A80;}
*[layerid="46"] {stroke:#2B937E;fill:#2B937E;}
*[layerid="47"] {stroke:#23999D;fill:#23999D;}
*[layerid="48"] {stroke:#45B4E3;fill:#45B4E3;}
*[layerid="49"] {stroke:#215DA1;fill:#215DA1;}
*[layerid="50"] {stroke:#4564D7;fill:#4564D7;}
*[layerid="51"] {stroke:#6969E9;fill:#6969E9;}
*[layerid="52"] {stroke:#9069E9;fill:#9069E9;}
*[layerid="99"] {stroke:#00CCCC;fill:#00CCCC;}
*[layerid="100"] {stroke:#CC9999;fill:#CC9999;}
*[layerid="Hole"] {stroke:#222222;fill:#222222;}
*[layerid="DRCError"] {stroke:#FAD609;fill:#FAD609;}
*[fill="none"] {fill: none;}
*[stroke="none"] {stroke: none;}
path, polyline, polygon, line {stroke-linecap:round;}
g[c_partid="part_pad"][layerid="1"] ellipse:not([c_etype="pad_outer"]) {fill:#FF0000;}
g[c_partid="part_pad"][layerid="1"] polygon:not([c_etype="pad_outer"]) {fill:#FF0000;}
g[c_partid="part_pad"][layerid="1"] polyline:not([c_etype="pad_outer"]) {stroke:#FF0000;}
g[c_partid="part_pad"][layerid="2"] ellipse:not([c_etype="pad_outer"]) {fill:#0000FF;}
g[c_partid="part_pad"][layerid="2"] polygon:not([c_etype="pad_outer"]) {fill:#0000FF;}
g[c_partid="part_pad"][layerid="2"] polyline:not([c_etype="pad_outer"]) {stroke:#0000FF;}
g[c_partid="part_pad"][layerid="11"] ellipse:not([c_etype="pad_outer"]) {fill:#C0C0C0;}
g[c_partid="part_pad"][layerid="11"] polygon:not([c_etype="pad_outer"]) {fill:#C0C0C0;}
g[c_partid="part_pad"][layerid="11"] polyline:not([c_etype="pad_outer"]) {stroke:#C0C0C0;}
g[c_partid="part_pad"][layerid="11"] circle {fill:#222222;}
g[c_partid="part_pad"][layerid="11"] > polyline:nth-of-type(2) {stroke:#222222;}
g[c_partid="part_pad"][layerid="11"][c_shape="ELLIPSE"]  polyline:nth-last-of-type(1) {stroke:#222222;}
g[c_partid="part_pad"][layerid="11"][c_shape="RECT"]  polyline:nth-last-of-type(1) {stroke:#222222;}
g[c_partid="part_pad"][layerid="11"][c_shape="POLYGON"]  polyline:nth-last-of-type(1) {stroke:#222222;}
g[c_partid="part_via"] > * + circle, #gCurParts g[c_partid="part_via"] > * + circle {fill:#222222;}
g[c_partid="part_pad"] > polygon[c_etype="pad_outer"], #gCurParts g[c_partid="part_pad"] > polygon[c_etype="pad_outer"] {stroke-linejoin: miter;stroke-miterlimit: 100;}
g[c_partid="part_hole"] > circle {fill: #222222;}path, polyline, polygon {stroke-linejoin:round;}
rect, circle, ellipse, polyline, line, polygon, path {shape-rendering:crispEdges;}
</style>
<rect x="4145" y="3092" width="136.5" height="95.5" fill="#000000" stroke="none"/><polyline points="4162 3145 4162 3152 4162.5 3152.5" stroke-width="1"  stroke-linecap="round" fill="none" layerid="1" net="GND" id="gge147" locked="0" /><polyline points="4162.5 3152.5 4162.5 3170" stroke-width="1"  stroke-linecap="round" fill="none" layerid="1" net="GND" id="gge198" locked="0" /><polyline points="4172 3145 4172 3152 4172.5 3152.5" stroke-width="1"  stroke-linecap="round" fill="none" layerid="1" net="VCC" id="gge149" locked="0" /><polyline points="4172.5 3152.5 4172.5 3170" stroke-width="1"  stroke-linecap="round" fill="none" layerid="1" net="VCC" id="gge194" locked="0" /><polyline points="4182 3145 4182 3152 4182.5 3152.5" stroke-width="1"  stroke-linecap="round" fill="none" layerid="1" net="D1" id="gge151" locked="0" /><polyline points="4182.5 3152.5 4182.5 3170" stroke-width="1"  stroke-linecap="round" fill="none" layerid="1" net="D1" id="gge190" locked="0" /><polyline points="4192 3145 4192 3169.5 4192.5 3170" stroke-width="1"  stroke-linecap="round" fill="none" layerid="1" net="D2" id="gge152" locked="0" /><polyline points="4192 3135 4192 3125.5 4192.5 3125" stroke-width="1"  stroke-linecap="round" fill="none" layerid="1" net="D6" id="gge154" locked="0" /><polyline points="4192.5 3125 4192.5 3110" stroke-width="1"  stroke-linecap="round" fill="none" layerid="1" net="D6" id="gge183" locked="0" /><polyline points="4182 3135 4182 3128 4182.5 3127.5" stroke-width="1"  stroke-linecap="round" fill="none" layerid="1" net="D5" id="gge156" locked="0" /><polyline points="4182.5 3127.5 4182.5 3110" stroke-width="1"  stroke-linecap="round" fill="none" layerid="1" net="D5" id="gge179" locked="0" /><polyline points="4172 3135 4172 3128 4172.5 3127.5" stroke-width="1"  stroke-linecap="round" fill="none" layerid="1" net="D4" id="gge157" locked="0" /><polyline points="4172.5 3127.5 4172.5 3110" stroke-width="1"  stroke-linecap="round" fill="none" layerid="1" net="D4" id="gge175" locked="0" /><polyline points="4162 3135 4162 3128 4162.5 3127.5" stroke-width="1"  stroke-linecap="round" fill="none" layerid="1" net="D3" id="gge158" locked="0" /><polyline points="4162.5 3127.5 4162.5 3110" stroke-width="1"  stroke-linecap="round" fill="none" layerid="1" net="D3" id="gge171" locked="0" /><polyline points="4202.5 3152.5 4202.5 3167.5" stroke-width="1"  stroke-linecap="round" fill="none" layerid="1" net="D1" id="gge205" locked="0" /><polyline points="4192 3145 4220 3145 4222.5 3142.5" stroke-width="1"  stroke-linecap="round" fill="none" layerid="1" net="D2" id="gge210" locked="0" /><polyline points="4222.5 3130 4232 3130 4232.5 3129.5" stroke-width="1"  stroke-linecap="round" fill="none" layerid="1" net="D2" id="gge213" locked="0" /><polyline points="4232.5 3153.5 4230 3151 4219 3151" stroke-width="1"  stroke-linecap="round" fill="none" layerid="1" net="VCC" id="gge216" locked="0" /><polyline points="4207.5 3160 4207.5 3172.5" stroke-width="1"  stroke-linecap="round" fill="none" layerid="1" net="GND" id="gge222" locked="0" /><polyline points="4250 3150 4237.5 3162.5 4218.54 3162.5 4213.5298 3157.49" stroke-width="1"  stroke-linecap="round" fill="none" layerid="1" net="R1_2" id="gge229" locked="0" /><polyline points="4213.5298 3166.51 4214.0398 3166 4226 3166" stroke-width="1"  stroke-linecap="round" fill="none" layerid="1" net="D1" id="gge231" locked="0" /><polyline points="4226 3137 4232 3137 4232.5 3137.5" stroke-width="1"  stroke-linecap="round" fill="none" layerid="1" net="D1" id="gge234" locked="0" /><polyline points="4225 3125 4239.01 3125 4239.51 3125.5" stroke-width="1"  stroke-linecap="round" fill="none" layerid="1" net="D3" id="gge241" locked="0" /><polyline points="4230 3115 4220 3115 4217.49 3112.49 4213.53 3112.49" stroke-width="1"  stroke-linecap="round" fill="none" layerid="1" net="RJ1_9" id="gge245" locked="0" /><polyline points="4239.5098 3133.5 4241.5 3133.5 4245 3130 4245 3122.5 4242.5 3120 4222.5 3120 4220 3122.5 4220 3125 4217.5 3127.5 4210 3127.5 4205 3122.5" stroke-width="1"  stroke-linecap="round" fill="none" layerid="1" net="D4" id="gge248" locked="0" /><polyline points="4239.51 3141.5 4240.01 3142 4243 3142 4247.5 3146.5 4247.5 3148.5 4236 3160 4222.5 3160 4212.5 3150" stroke-width="1"  stroke-linecap="round" fill="none" layerid="1" net="D5" id="gge262" locked="0" /><polyline points="4232.5 3145.5 4230.5 3147.5 4217.5 3147.5 4207.5 3147.5" stroke-width="1"  stroke-linecap="round" fill="none" layerid="1" net="D6" id="gge278" locked="0" /><polyline points="4162 3145 4167 3140 4195 3140 4202.5 3132.5 4202.5 3110 4204.9 3107.6 4236.01 3107.6" stroke-width="1"  stroke-linecap="round" fill="none" layerid="1" net="GND" id="gge283" locked="0" /><g c_partid="part_pad" c_etype="pinpart" c_origin="4232.5,3153.5" layerid="11" number="8" net="VCC" plated ="Y"  id="gge37" locked="0" c_rotation="270" c_width="5.9" c_height="5.9" title="VCC" c_shape="ELLIPSE" pasteexpansion="0" solderexpansion="0.4"><ellipse c_etype="pad_shell" cx="4232.5" cy="3153.5" rx="2.95" ry="2.95" layerid="11" stroke-width="0"/><circle c_etype="pad_hole" cx="4232.5" cy="3153.5" r="1.8" layerid="11" stroke-width="0"/></g><g c_partid="part_pad" c_etype="pinpart" c_origin="4239.51,3125.5" layerid="11" number="1" net="D3" plated ="Y"  id="gge38" locked="0" c_rotation="270" c_width="5.9" c_height="5.9" title="D3" c_shape="RECT" pasteexpansion="0" solderexpansion="0.4"><polygon  c_etype="pad_shell" points="4242.46 3122.55 4242.46 3128.45 4236.56 3128.45 4236.56 3122.55" layerid="11" stroke-width="0" /><circle c_etype="pad_hole" cx="4239.51" cy="3125.5" r="1.8" layerid="11" stroke-width="0"/></g><g c_partid="part_pad" c_etype="pinpart" c_origin="4239.51,3141.5" layerid="11" number="5" net="D5" plated ="Y"  id="gge39" locked="0" c_rotation="270" c_width="5.9" c_height="5.9" title="D5" c_shape="ELLIPSE" pasteexpansion="0" solderexpansion="0.4"><ellipse c_etype="pad_shell" cx="4239.51" cy="3141.5" rx="2.95" ry="2.95" layerid="11" stroke-width="0"/><circle c_etype="pad_hole" cx="4239.51" cy="3141.5" r="1.8" layerid="11" stroke-width="0"/></g><g c_partid="part_pad" c_etype="pinpart" c_origin="4239.51,3133.5" layerid="11" number="3" net="D4" plated ="Y"  id="gge40" locked="0" c_rotation="270" c_width="5.9" c_height="5.9" title="D4" c_shape="ELLIPSE" pasteexpansion="0" solderexpansion="0.4"><ellipse c_etype="pad_shell" cx="4239.51" cy="3133.5" rx="2.95" ry="2.95" layerid="11" stroke-width="0"/><circle c_etype="pad_hole" cx="4239.51" cy="3133.5" r="1.8" layerid="11" stroke-width="0"/></g><g c_partid="part_pad" c_etype="pinpart" c_origin="4232.5,3137.5" layerid="11" number="4" net="D1" plated ="Y"  id="gge41" locked="0" c_rotation="270" c_width="5.9" c_height="5.9" title="D1" c_shape="ELLIPSE" pasteexpansion="0" solderexpansion="0.4"><ellipse c_etype="pad_shell" cx="4232.5" cy="3137.5" rx="2.95" ry="2.95" layerid="11" stroke-width="0"/><circle c_etype="pad_hole" cx="4232.5" cy="3137.5" r="1.8" layerid="11" stroke-width="0"/></g><g c_partid="part_pad" c_etype="pinpart" c_origin="4232.5,3129.5" layerid="11" number="2" net="D2" plated ="Y"  id="gge42" locked="0" c_rotation="270" c_width="5.9" c_height="5.9" title="D2" c_shape="ELLIPSE" pasteexpansion="0" solderexpansion="0.4"><ellipse c_etype="pad_shell" cx="4232.5" cy="3129.5" rx="2.95" ry="2.95" layerid="11" stroke-width="0"/><circle c_etype="pad_hole" cx="4232.5" cy="3129.5" r="1.8" layerid="11" stroke-width="0"/></g><g c_partid="part_pad" c_etype="pinpart" c_origin="4239.51,3149.5" layerid="11" number="7" net="GND" plated ="Y"  id="gge43" locked="0" c_rotation="270" c_width="5.9" c_height="5.9" title="GND" c_shape="ELLIPSE" pasteexpansion="0" solderexpansion="0.4"><ellipse c_etype="pad_shell" cx="4239.51" cy="3149.5" rx="2.95" ry="2.95" layerid="11" stroke-width="0"/><circle c_etype="pad_hole" cx="4239.51" cy="3149.5" r="1.8" layerid="11" stroke-width="0"/></g><g c_partid="part_pad" c_etype="pinpart" c_origin="4236.01,3107.6" layerid="11" number="0" net="GND" plated ="Y"  id="gge44" locked="0" c_rotation="270" c_width="10.4" c_height="10.4" title="GND" c_shape="ELLIPSE" pasteexpansion="0" solderexpansion="0.4"><ellipse c_etype="pad_shell" cx="4236.01" cy="3107.6" rx="5.2" ry="5.2" layerid="11" stroke-width="0"/><circle c_etype="pad_hole" cx="4236.01" cy="3107.6" r="3.5433" layerid="11" stroke-width="0"/></g><g c_partid="part_pad" c_etype="pinpart" c_origin="4236.01,3171.4" layerid="11" number="0" net="GND" plated ="Y"  id="gge45" locked="0" c_rotation="90" c_width="10.4" c_height="10.4" title="GND" c_shape="ELLIPSE" pasteexpansion="0" solderexpansion="0.4"><ellipse c_etype="pad_shell" cx="4236.01" cy="3171.4" rx="5.2" ry="5.2" layerid="11" stroke-width="0"/><circle c_etype="pad_hole" cx="4236.01" cy="3171.4" r="3.5433" layerid="11" stroke-width="0"/></g><g c_partid="part_pad" c_etype="pinpart" c_origin="4232.5,3145.5" layerid="11" number="6" net="D6" plated ="Y"  id="gge46" locked="0" c_rotation="270" c_width="5.9" c_height="5.9" title="D6" c_shape="ELLIPSE" pasteexpansion="0" solderexpansion="0.4"><ellipse c_etype="pad_shell" cx="4232.5" cy="3145.5" rx="2.95" ry="2.95" layerid="11" stroke-width="0"/><circle c_etype="pad_hole" cx="4232.5" cy="3145.5" r="1.8" layerid="11" stroke-width="0"/></g><g c_partid="part_pad" c_etype="pinpart" c_origin="4213.53,3157.49" layerid="11" number="11" net="R1_2" plated ="Y"  id="gge47" locked="0" c_rotation="270" c_width="5.9" c_height="5.9" title="R1_2" c_shape="ELLIPSE" pasteexpansion="0" solderexpansion="0.4"><ellipse c_etype="pad_shell" cx="4213.53" cy="3157.49" rx="2.95" ry="2.95" layerid="11" stroke-width="0"/><circle c_etype="pad_hole" cx="4213.53" cy="3157.49" r="1.8" layerid="11" stroke-width="0"/></g><g c_partid="part_pad" c_etype="pinpart" c_origin="4213.53,3166.51" layerid="11" number="12" net="D1" plated ="Y"  id="gge48" locked="0" c_rotation="270" c_width="5.9" c_height="5.9" title="D1" c_shape="ELLIPSE" pasteexpansion="0" solderexpansion="0.4"><ellipse c_etype="pad_shell" cx="4213.53" cy="3166.51" rx="2.95" ry="2.95" layerid="11" stroke-width="0"/><circle c_etype="pad_hole" cx="4213.53" cy="3166.51" r="1.8" layerid="11" stroke-width="0"/></g><g c_partid="part_pad" c_etype="pinpart" c_origin="4213.53,3112.49" layerid="11" number="9" net="RJ1_9" plated ="Y"  id="gge49" locked="0" c_rotation="270" c_width="5.9" c_height="5.9" title="RJ1_9" c_shape="ELLIPSE" pasteexpansion="0" solderexpansion="0.4"><ellipse c_etype="pad_shell" cx="4213.53" cy="3112.49" rx="2.95" ry="2.95" layerid="11" stroke-width="0"/><circle c_etype="pad_hole" cx="4213.53" cy="3112.49" r="1.8" layerid="11" stroke-width="0"/></g><g c_partid="part_pad" c_etype="pinpart" c_origin="4213.53,3121.51" layerid="11" number="10" net="VCC" plated ="Y"  id="gge50" locked="0" c_rotation="270" c_width="5.9" c_height="5.9" title="VCC" c_shape="ELLIPSE" pasteexpansion="0" solderexpansion="0.4"><ellipse c_etype="pad_shell" cx="4213.53" cy="3121.51" rx="2.95" ry="2.95" layerid="11" stroke-width="0"/><circle c_etype="pad_hole" cx="4213.53" cy="3121.51" r="1.8" layerid="11" stroke-width="0"/></g><g c_partid="part_pad" c_etype="pinpart" c_origin="4162,3145" layerid="11" number="1" net="GND" plated ="Y"  id="gge64" locked="0" c_rotation="0" c_width="6.3937" c_height="6.3937" title="GND" c_shape="ELLIPSE" pasteexpansion="0" solderexpansion="0.4"><ellipse c_etype="pad_shell" cx="4162" cy="3145" rx="3.19685" ry="3.19685" layerid="11" stroke-width="0"/><circle c_etype="pad_hole" cx="4161.9999" cy="3145.0001" r="2.1654" layerid="11" stroke-width="0"/></g><g c_partid="part_pad" c_etype="pinpart" c_origin="4162,3135" layerid="11" number="2" net="D3" plated ="Y"  id="gge65" locked="0" c_rotation="0" c_width="6.3937" c_height="6.3937" title="D3" c_shape="ELLIPSE" pasteexpansion="0" solderexpansion="0.4"><ellipse c_etype="pad_shell" cx="4162" cy="3135" rx="3.19685" ry="3.19685" layerid="11" stroke-width="0"/><circle c_etype="pad_hole" cx="4161.9999" cy="3135.0001" r="2.1654" layerid="11" stroke-width="0"/></g><g c_partid="part_pad" c_etype="pinpart" c_origin="4172,3145" layerid="11" number="3" net="VCC" plated ="Y"  id="gge66" locked="0" c_rotation="0" c_width="6.3937" c_height="6.3937" title="VCC" c_shape="ELLIPSE" pasteexpansion="0" solderexpansion="0.4"><ellipse c_etype="pad_shell" cx="4172" cy="3145" rx="3.19685" ry="3.19685" layerid="11" stroke-width="0"/><circle c_etype="pad_hole" cx="4171.9999" cy="3145.0001" r="2.1654" layerid="11" stroke-width="0"/></g><g c_partid="part_pad" c_etype="pinpart" c_origin="4172,3135" layerid="11" number="4" net="D4" plated ="Y"  id="gge67" locked="0" c_rotation="0" c_width="6.3937" c_height="6.3937" title="D4" c_shape="ELLIPSE" pasteexpansion="0" solderexpansion="0.4"><ellipse c_etype="pad_shell" cx="4172" cy="3135" rx="3.19685" ry="3.19685" layerid="11" stroke-width="0"/><circle c_etype="pad_hole" cx="4171.9999" cy="3135.0001" r="2.1654" layerid="11" stroke-width="0"/></g><g c_partid="part_pad" c_etype="pinpart" c_origin="4182,3145" layerid="11" number="5" net="D1" plated ="Y"  id="gge68" locked="0" c_rotation="0" c_width="6.3937" c_height="6.3937" title="D1" c_shape="ELLIPSE" pasteexpansion="0" solderexpansion="0.4"><ellipse c_etype="pad_shell" cx="4182" cy="3145" rx="3.19685" ry="3.19685" layerid="11" stroke-width="0"/><circle c_etype="pad_hole" cx="4181.9999" cy="3145.0001" r="2.1654" layerid="11" stroke-width="0"/></g><g c_partid="part_pad" c_etype="pinpart" c_origin="4182,3135" layerid="11" number="6" net="D5" plated ="Y"  id="gge69" locked="0" c_rotation="0" c_width="6.3937" c_height="6.3937" title="D5" c_shape="ELLIPSE" pasteexpansion="0" solderexpansion="0.4"><ellipse c_etype="pad_shell" cx="4182" cy="3135" rx="3.19685" ry="3.19685" layerid="11" stroke-width="0"/><circle c_etype="pad_hole" cx="4181.9999" cy="3135.0001" r="2.1654" layerid="11" stroke-width="0"/></g><g c_partid="part_pad" c_etype="pinpart" c_origin="4192,3145" layerid="11" number="7" net="D2" plated ="Y"  id="gge70" locked="0" c_rotation="0" c_width="6.3937" c_height="6.3937" title="D2" c_shape="ELLIPSE" pasteexpansion="0" solderexpansion="0.4"><ellipse c_etype="pad_shell" cx="4192" cy="3145" rx="3.19685" ry="3.19685" layerid="11" stroke-width="0"/><circle c_etype="pad_hole" cx="4191.9999" cy="3145.0001" r="2.1654" layerid="11" stroke-width="0"/></g><g c_partid="part_pad" c_etype="pinpart" c_origin="4192,3135" layerid="11" number="8" net="D6" plated ="Y"  id="gge71" locked="0" c_rotation="0" c_width="6.3937" c_height="6.3937" title="D6" c_shape="ELLIPSE" pasteexpansion="0" solderexpansion="0.4"><ellipse c_etype="pad_shell" cx="4192" cy="3135" rx="3.19685" ry="3.19685" layerid="11" stroke-width="0"/><circle c_etype="pad_hole" cx="4191.9999" cy="3135.0001" r="2.1654" layerid="11" stroke-width="0"/></g><g c_partid="part_pad" c_etype="pinpart" c_origin="4162.5,3170" layerid="11" number="1" net="GND" plated ="Y"  id="gge79" locked="0" c_rotation="0" c_width="7.0866" c_height="7.0866" title="GND" c_shape="RECT" pasteexpansion="0" solderexpansion="0.4"><polygon  c_etype="pad_shell" points="4158.9567 3166.4567 4166.0433 3166.4567 4166.0433 3173.5433 4158.9567 3173.5433" layerid="11" stroke-width="0" /><circle c_etype="pad_hole" cx="4162.5" cy="3170" r="2.3622" layerid="11" stroke-width="0"/></g><g c_partid="part_pad" c_etype="pinpart" c_origin="4172.5,3170" layerid="11" number="2" net="VCC" plated ="Y"  id="gge84" locked="0" c_rotation="0" c_width="7.0866" c_height="7.0866" title="VCC" c_shape="ELLIPSE" pasteexpansion="0" solderexpansion="0.4"><ellipse c_etype="pad_shell" cx="4172.5" cy="3170" rx="3.5433" ry="3.5433" layerid="11" stroke-width="0"/><circle c_etype="pad_hole" cx="4172.5" cy="3170" r="2.3622" layerid="11" stroke-width="0"/></g><g c_partid="part_pad" c_etype="pinpart" c_origin="4182.5,3170" layerid="11" number="3" net="D1" plated ="Y"  id="gge89" locked="0" c_rotation="0" c_width="7.0866" c_height="7.0866" title="D1" c_shape="ELLIPSE" pasteexpansion="0" solderexpansion="0.4"><ellipse c_etype="pad_shell" cx="4182.5" cy="3170" rx="3.5433" ry="3.5433" layerid="11" stroke-width="0"/><circle c_etype="pad_hole" cx="4182.5" cy="3170" r="2.3622" layerid="11" stroke-width="0"/></g><g c_partid="part_pad" c_etype="pinpart" c_origin="4192.5,3170" layerid="11" number="4" net="D2" plated ="Y"  id="gge92" locked="0" c_rotation="0" c_width="7.0866" c_height="7.0866" title="D2" c_shape="ELLIPSE" pasteexpansion="0" solderexpansion="0.4"><ellipse c_etype="pad_shell" cx="4192.5" cy="3170" rx="3.5433" ry="3.5433" layerid="11" stroke-width="0"/><circle c_etype="pad_hole" cx="4192.5" cy="3170" r="2.3622" layerid="11" stroke-width="0"/></g><g c_partid="part_pad" c_etype="pinpart" c_origin="4162.5,3110" layerid="11" number="1" net="D3" plated ="Y"  id="gge104" locked="0" c_rotation="0" c_width="7.0866" c_height="7.0866" title="D3" c_shape="RECT" pasteexpansion="0" solderexpansion="0.4"><polygon  c_etype="pad_shell" points="4158.9567 3106.4567 4166.0433 3106.4567 4166.0433 3113.5433 4158.9567 3113.5433" layerid="11" stroke-width="0" /><circle c_etype="pad_hole" cx="4162.5" cy="3110" r="2.3622" layerid="11" stroke-width="0"/></g><g c_partid="part_pad" c_etype="pinpart" c_origin="4172.5,3110" layerid="11" number="2" net="D4" plated ="Y"  id="gge109" locked="0" c_rotation="0" c_width="7.0866" c_height="7.0866" title="D4" c_shape="ELLIPSE" pasteexpansion="0" solderexpansion="0.4"><ellipse c_etype="pad_shell" cx="4172.5" cy="3110" rx="3.5433" ry="3.5433" layerid="11" stroke-width="0"/><circle c_etype="pad_hole" cx="4172.5" cy="3110" r="2.3622" layerid="11" stroke-width="0"/></g><g c_partid="part_pad" c_etype="pinpart" c_origin="4182.5,3110" layerid="11" number="3" net="D5" plated ="Y"  id="gge114" locked="0" c_rotation="0" c_width="7.0866" c_height="7.0866" title="D5" c_shape="ELLIPSE" pasteexpansion="0" solderexpansion="0.4"><ellipse c_etype="pad_shell" cx="4182.5" cy="3110" rx="3.5433" ry="3.5433" layerid="11" stroke-width="0"/><circle c_etype="pad_hole" cx="4182.5" cy="3110" r="2.3622" layerid="11" stroke-width="0"/></g><g c_partid="part_pad" c_etype="pinpart" c_origin="4192.5,3110" layerid="11" number="4" net="D6" plated ="Y"  id="gge117" locked="0" c_rotation="0" c_width="7.0866" c_height="7.0866" title="D6" c_shape="ELLIPSE" pasteexpansion="0" solderexpansion="0.4"><ellipse c_etype="pad_shell" cx="4192.5" cy="3110" rx="3.5433" ry="3.5433" layerid="11" stroke-width="0"/><circle c_etype="pad_hole" cx="4192.5" cy="3110" r="2.3622" layerid="11" stroke-width="0"/></g><g c_partid="part_via" c_etype="pinpart" c_shapetype="group" net="D3" c_origin="4162.5,3127.5" layerid="11" id="gge168" locked="0" solderexpansion=""><circle cx="4162.5" cy="3127.5" r="1.2" stroke-width="0" c_etype="pad_shell"/><circle cx="4162.5" cy="3127.5" r="0.6"  stroke-width="0" c_etype="pad_hole"/></g><g c_partid="part_via" c_etype="pinpart" c_shapetype="group" net="D4" c_origin="4172.5,3127.5" layerid="11" id="gge172" locked="0" solderexpansion=""><circle cx="4172.5" cy="3127.5" r="1.2" stroke-width="0" c_etype="pad_shell"/><circle cx="4172.5" cy="3127.5" r="0.6"  stroke-width="0" c_etype="pad_hole"/></g><g c_partid="part_via" c_etype="pinpart" c_shapetype="group" net="D5" c_origin="4182.5,3127.5" layerid="11" id="gge176" locked="0" solderexpansion=""><circle cx="4182.5" cy="3127.5" r="1.2" stroke-width="0" c_etype="pad_shell"/><circle cx="4182.5" cy="3127.5" r="0.6"  stroke-width="0" c_etype="pad_hole"/></g><g c_partid="part_via" c_etype="pinpart" c_shapetype="group" net="D1" c_origin="4182.5,3152.5" layerid="11" id="gge187" locked="0" solderexpansion=""><circle cx="4182.5" cy="3152.5" r="1.2" stroke-width="0" c_etype="pad_shell"/><circle cx="4182.5" cy="3152.5" r="0.6"  stroke-width="0" c_etype="pad_hole"/></g><g c_partid="part_via" c_etype="pinpart" c_shapetype="group" net="VCC" c_origin="4172.5,3152.5" layerid="11" id="gge191" locked="0" solderexpansion=""><circle cx="4172.5" cy="3152.5" r="1.2" stroke-width="0" c_etype="pad_shell"/><circle cx="4172.5" cy="3152.5" r="0.6"  stroke-width="0" c_etype="pad_hole"/></g><g c_partid="part_via" c_etype="pinpart" c_shapetype="group" net="GND" c_origin="4162.5,3152.5" layerid="11" id="gge195" locked="0" solderexpansion=""><circle cx="4162.5" cy="3152.5" r="1.2" stroke-width="0" c_etype="pad_shell"/><circle cx="4162.5" cy="3152.5" r="0.6"  stroke-width="0" c_etype="pad_hole"/></g><g c_partid="part_via" c_etype="pinpart" c_shapetype="group" net="D1" c_origin="4202.5,3152.5" layerid="11" id="gge206" locked="0" solderexpansion=""><circle cx="4202.5" cy="3152.5" r="1.2" stroke-width="0" c_etype="pad_shell"/><circle cx="4202.5" cy="3152.5" r="0.6"  stroke-width="0" c_etype="pad_hole"/></g><g c_partid="part_via" c_etype="pinpart" c_shapetype="group" net="D1" c_origin="4202.5,3167.5" layerid="11" id="gge208" locked="0" solderexpansion=""><circle cx="4202.5" cy="3167.5" r="1.2" stroke-width="0" c_etype="pad_shell"/><circle cx="4202.5" cy="3167.5" r="0.6"  stroke-width="0" c_etype="pad_hole"/></g><g c_partid="part_via" c_etype="pinpart" c_shapetype="group" net="D2" c_origin="4222.5,3142.5" layerid="11" id="gge212" locked="0" solderexpansion=""><circle cx="4222.5" cy="3142.5" r="1.2" stroke-width="0" c_etype="pad_shell"/><circle cx="4222.5" cy="3142.5" r="0.6"  stroke-width="0" c_etype="pad_hole"/></g><g c_partid="part_via" c_etype="pinpart" c_shapetype="group" net="D2" c_origin="4222.5,3130" layerid="11" id="gge214" locked="0" solderexpansion=""><circle cx="4222.5" cy="3130" r="1.2" stroke-width="0" c_etype="pad_shell"/><circle cx="4222.5" cy="3130" r="0.6"  stroke-width="0" c_etype="pad_hole"/></g><g c_partid="part_via" c_etype="pinpart" c_shapetype="group" net="VCC" c_origin="4219,3151" layerid="11" id="gge218" locked="0" solderexpansion=""><circle cx="4219" cy="3151" r="1.2" stroke-width="0" c_etype="pad_shell"/><circle cx="4219" cy="3151" r="0.6"  stroke-width="0" c_etype="pad_hole"/></g><g c_partid="part_via" c_etype="pinpart" c_shapetype="group" net="GND" c_origin="4207.5,3160" layerid="11" id="gge223" locked="0" solderexpansion=""><circle cx="4207.5" cy="3160" r="1.2" stroke-width="0" c_etype="pad_shell"/><circle cx="4207.5" cy="3160" r="0.6"  stroke-width="0" c_etype="pad_hole"/></g><g c_partid="part_via" c_etype="pinpart" c_shapetype="group" net="GND" c_origin="4207.5,3172.5" layerid="11" id="gge225" locked="0" solderexpansion=""><circle cx="4207.5" cy="3172.5" r="1.2" stroke-width="0" c_etype="pad_shell"/><circle cx="4207.5" cy="3172.5" r="0.6"  stroke-width="0" c_etype="pad_hole"/></g><g c_partid="part_via" c_etype="pinpart" c_shapetype="group" net="R1_2" c_origin="4250,3150" layerid="11" id="gge230" locked="0" solderexpansion=""><circle cx="4250" cy="3150" r="1.2" stroke-width="0" c_etype="pad_shell"/><circle cx="4250" cy="3150" r="0.6"  stroke-width="0" c_etype="pad_hole"/></g><g c_partid="part_via" c_etype="pinpart" c_shapetype="group" net="D1" c_origin="4226,3166" layerid="11" id="gge233" locked="0" solderexpansion=""><circle cx="4226" cy="3166" r="1.2" stroke-width="0" c_etype="pad_shell"/><circle cx="4226" cy="3166" r="0.6"  stroke-width="0" c_etype="pad_hole"/></g><g c_partid="part_via" c_etype="pinpart" c_shapetype="group" net="D1" c_origin="4226,3137" layerid="11" id="gge235" locked="0" solderexpansion=""><circle cx="4226" cy="3137" r="1.2" stroke-width="0" c_etype="pad_shell"/><circle cx="4226" cy="3137" r="0.6"  stroke-width="0" c_etype="pad_hole"/></g><g c_partid="part_via" c_etype="pinpart" c_shapetype="group" net="D3" c_origin="4225,3125" layerid="11" id="gge242" locked="0" solderexpansion=""><circle cx="4225" cy="3125" r="1.2" stroke-width="0" c_etype="pad_shell"/><circle cx="4225" cy="3125" r="0.6"  stroke-width="0" c_etype="pad_hole"/></g><g c_partid="part_via" c_etype="pinpart" c_shapetype="group" net="RJ1_9" c_origin="4230,3115" layerid="11" id="gge246" locked="0" solderexpansion=""><circle cx="4230" cy="3115" r="1.2" stroke-width="0" c_etype="pad_shell"/><circle cx="4230" cy="3115" r="0.6"  stroke-width="0" c_etype="pad_hole"/></g><g c_partid="part_via" c_etype="pinpart" c_shapetype="group" net="D4" c_origin="4205,3122.5" layerid="11" id="gge255" locked="0" solderexpansion=""><circle cx="4205" cy="3122.5" r="1.2" stroke-width="0" c_etype="pad_shell"/><circle cx="4205" cy="3122.5" r="0.6"  stroke-width="0" c_etype="pad_hole"/></g><g c_partid="part_via" c_etype="pinpart" c_shapetype="group" net="D5" c_origin="4212.5,3150" layerid="11" id="gge264" locked="0" solderexpansion=""><circle cx="4212.5" cy="3150" r="1.2" stroke-width="0" c_etype="pad_shell"/><circle cx="4212.5" cy="3150" r="0.6"  stroke-width="0" c_etype="pad_hole"/></g><g c_partid="part_via" c_etype="pinpart" c_shapetype="group" net="D6" c_origin="4207.5,3147.5" layerid="11" id="gge280" locked="0" solderexpansion=""><circle cx="4207.5" cy="3147.5" r="1.2" stroke-width="0" c_etype="pad_shell"/><circle cx="4207.5" cy="3147.5" r="0.6"  stroke-width="0" c_etype="pad_hole"/></g><g c_partid="part_hole" c_etype="pinpart" c_shapetype="group" c_origin="4249.51,3114.5" layerid="11" id="gge35" locked="0" ><circle cx="4249.51" cy="3114.5" r="6.3976"  stroke-width="0" /></g><g c_partid="part_hole" c_etype="pinpart" c_shapetype="group" c_origin="4249.51,3164.5" layerid="11" id="gge36" locked="0" ><circle cx="4249.51" cy="3164.5" r="6.3976"  stroke-width="0" /></g><polyline points="4246.15 3171.72 4242.77 3171.72" stroke-width="0.79"  stroke-linecap="round" fill="none" layerid="3" net="" id="gge27" locked="0" /><polyline points="4229.2 3107.23 4208.27 3107.23 4208.27 3113.24" stroke-width="0.79"  stroke-linecap="round" fill="none" layerid="3" net="" id="gge28" locked="0" /><polyline points="4229.2 3171.72 4208.27 3171.72 4208.27 3156.69" stroke-width="0.79"  stroke-linecap="round" fill="none" layerid="3" net="" id="gge29" locked="0" /><polyline points="4246.15 3107.23 4242.77 3107.23" stroke-width="0.79"  stroke-linecap="round" fill="none" layerid="3" net="" id="gge30" locked="0" /><polyline points="4252.82 3107.23 4271.51 3107.23 4271.51 3171.72 4252.82 3171.72" stroke-width="0.79"  stroke-linecap="round" fill="none" layerid="3" net="" id="gge31" locked="0" /><polyline points="4208.27 3112.17 4208.27 3157.64" stroke-width="0.79"  stroke-linecap="round" fill="none" layerid="3" net="" id="gge32" locked="0" /><polyline points="4271.51 3171.5 4263.51 3175.5 4254.51 3174.5 4245.51 3175.5" stroke-width="1"  stroke-linecap="round" fill="none" layerid="3" net="" id="gge33" locked="0" /><polyline points="4271.51 3107.5 4263.51 3103.5 4254.51 3104.5 4245.51 3103.5" stroke-width="1"  stroke-linecap="round" fill="none" layerid="3" net="" id="gge34" locked="0" /><polyline points="4196.999 3132.499 4196.999 3147.499" stroke-width="1"  stroke-linecap="round" fill="none" layerid="3" net="S$339" id="gge54" locked="0" /><polyline points="4157.0005 3132.4996 4157.0005 3147.4996" stroke-width="1"  stroke-linecap="round" fill="none" layerid="3" net="S$341" id="gge55" locked="0" /><polyline points="4157.0005 3132.4996 4159.5005 3129.9996 4164.5005 3129.9996 4167.0005 3132.4996" stroke-width="1"  stroke-linecap="round" fill="none" layerid="3" net="S$247" id="gge56" locked="0" /><polyline points="4157.0005 3147.4996 4159.5005 3149.9996 4164.5005 3149.9996 4167.0005 3147.4996" stroke-width="1"  stroke-linecap="round" fill="none" layerid="3" net="S$249" id="gge57" locked="0" /><polyline points="4167.0005 3132.4996 4169.5005 3129.9996 4174.5005 3129.9996 4177.0005 3132.4996" stroke-width="1"  stroke-linecap="round" fill="none" layerid="3" net="S$253" id="gge58" locked="0" /><polyline points="4167.0005 3147.4996 4169.5005 3149.9996 4174.5005 3149.9996 4177.0005 3147.4996" stroke-width="1"  stroke-linecap="round" fill="none" layerid="3" net="S$255" id="gge59" locked="0" /><polyline points="4177.0005 3132.4996 4179.5005 3129.9996 4184.5005 3129.9996 4187.0005 3132.4996" stroke-width="1"  stroke-linecap="round" fill="none" layerid="3" net="S$253" id="gge60" locked="0" /><polyline points="4177.0005 3147.4996 4179.5005 3149.9996 4184.5005 3149.9996 4187.0005 3147.4996" stroke-width="1"  stroke-linecap="round" fill="none" layerid="3" net="S$255" id="gge61" locked="0" /><polyline points="4187.0005 3132.4996 4189.5005 3129.9996 4194.5005 3129.9996 4197.0005 3132.4996" stroke-width="1"  stroke-linecap="round" fill="none" layerid="3" net="S$253" id="gge62" locked="0" /><polyline points="4187.0005 3147.4996 4189.5005 3149.9996 4194.5005 3149.9996 4197.0005 3147.4996" stroke-width="1"  stroke-linecap="round" fill="none" layerid="3" net="S$255" id="gge63" locked="0" /><polyline points="4156.5 3164 4198.5 3164 4198.5 3176 4156.5 3176 4156.5 3164" stroke-width="1"  stroke-linecap="round" fill="none" layerid="3" net="S$15" id="gge77" locked="0" /><polyline points="4167.5 3164 4167.5 3176" stroke-width="1"  stroke-linecap="round" fill="none" layerid="3" net="S$17" id="gge78" locked="0" /><polyline points="4156.5 3104 4198.5 3104 4198.5 3116 4156.5 3116 4156.5 3104" stroke-width="1"  stroke-linecap="round" fill="none" layerid="3" net="S$15" id="gge102" locked="0" /><polyline points="4167.5 3104 4167.5 3116" stroke-width="1"  stroke-linecap="round" fill="none" layerid="3" net="S$17" id="gge103" locked="0" /><g c_partid="part_pcbtext" c_etype="pinpart" c_origin="4260,3158" c_rotation="90" c_mirror="0" id="gge7" locked="0" layerid="3" c_shapetype="group" ><path c_fontsize="3.5433" c_fontfamily="" c_text="JLCJLCJLCJLC" d="M 4258.0669 3156.3892 L 4260.6438 3156.3892 L 4261.127 3156.5503 L 4261.2881 3156.7113 L 4261.4491 3157.0335 L 4261.4491 3157.3556 L 4261.2881 3157.6777 L 4261.127 3157.8388 L 4260.6438 3157.9998 L 4260.3217 3157.9998 M 4258.0669 3155.3262 L 4261.4491 3155.3262 M 4261.4491 3155.3262 L 4261.4491 3153.3935 M 4258.8722 3149.9146 L 4258.5501 3150.0757 L 4258.2279 3150.3978 L 4258.0669 3150.7199 L 4258.0669 3151.3642 L 4258.2279 3151.6863 L 4258.5501 3152.0084 L 4258.8722 3152.1695 L 4259.3554 3152.3305 L 4260.1607 3152.3305 L 4260.6438 3152.1695 L 4260.9659 3152.0084 L 4261.2881 3151.6863 L 4261.4491 3151.3642 L 4261.4491 3150.7199 L 4261.2881 3150.3978 L 4260.9659 3150.0757 L 4260.6438 3149.9146 M 4258.0669 3147.2411 L 4260.6438 3147.2411 L 4261.127 3147.4021 L 4261.2881 3147.5632 L 4261.4491 3147.8853 L 4261.4491 3148.2074 L 4261.2881 3148.5295 L 4261.127 3148.6906 L 4260.6438 3148.8516 L 4260.3217 3148.8516 M 4258.0669 3146.1781 L 4261.4491 3146.1781 M 4261.4491 3146.1781 L 4261.4491 3144.2453 M 4258.8722 3140.7665 L 4258.5501 3140.9275 L 4258.2279 3141.2496 L 4258.0669 3141.5718 L 4258.0669 3142.216 L 4258.2279 3142.5381 L 4258.5501 3142.8602 L 4258.8722 3143.0213 L 4259.3554 3143.1824 L 4260.1607 3143.1824 L 4260.6438 3143.0213 L 4260.9659 3142.8602 L 4261.2881 3142.5381 L 4261.4491 3142.216 L 4261.4491 3141.5718 L 4261.2881 3141.2496 L 4260.9659 3140.9275 L 4260.6438 3140.7665 M 4258.0669 3138.0929 L 4260.6438 3138.0929 L 4261.127 3138.2539 L 4261.2881 3138.415 L 4261.4491 3138.7371 L 4261.4491 3139.0592 L 4261.2881 3139.3814 L 4261.127 3139.5424 L 4260.6438 3139.7035 L 4260.3217 3139.7035 M 4258.0669 3137.0299 L 4261.4491 3137.0299 M 4261.4491 3137.0299 L 4261.4491 3135.0972 M 4258.8722 3131.6183 L 4258.5501 3131.7794 L 4258.2279 3132.1015 L 4258.0669 3132.4236 L 4258.0669 3133.0678 L 4258.2279 3133.3899 L 4258.5501 3133.7121 L 4258.8722 3133.8731 L 4259.3554 3134.0342 L 4260.1607 3134.0342 L 4260.6438 3133.8731 L 4260.9659 3133.7121 L 4261.2881 3133.3899 L 4261.4491 3133.0678 L 4261.4491 3132.4236 L 4261.2881 3132.1015 L 4260.9659 3131.7794 L 4260.6438 3131.6183 M 4258.0669 3128.9447 L 4260.6438 3128.9447 L 4261.127 3129.1058 L 4261.2881 3129.2668 L 4261.4491 3129.5889 L 4261.4491 3129.9111 L 4261.2881 3130.2332 L 4261.127 3130.3942 L 4260.6438 3130.5553 L 4260.3217 3130.5553 M 4258.0669 3127.8817 L 4261.4491 3127.8817 M 4261.4491 3127.8817 L 4261.4491 3125.949 M 4258.8722 3122.4701 L 4258.5501 3122.6312 L 4258.2279 3122.9533 L 4258.0669 3123.2754 L 4258.0669 3123.9197 L 4258.2279 3124.2418 L 4258.5501 3124.5639 L 4258.8722 3124.7249 L 4259.3554 3124.886 L 4260.1607 3124.886 L 4260.6438 3124.7249 L 4260.9659 3124.5639 L 4261.2881 3124.2418 L 4261.4491 3123.9197 L 4261.4491 3123.2754 L 4261.2881 3122.9533 L 4260.9659 3122.6312 L 4260.6438 3122.4701" fill="none"  stroke-width="0.6693"  /></g><g c_partid="part_pcbtext" c_etype="pinpart" c_origin="4207.74,3156.84" c_rotation="90" c_mirror="0" id="gge2" locked="0" layerid="3" c_shapetype="group" ><path c_fontsize="5" c_fontfamily="NotoSansCJKjp-DemiLight" c_text="RJ45 Adapter v2" d="M 4203.6602 3156.7899 L 4203.6602 3156.1599 C 4203.6602 3155.5699 4203.8402 3155.2399 4204.3402 3155.2399 C 4204.8202 3155.2399 4205.0602 3155.5699 4205.0602 3156.1599 L 4205.0602 3156.7899 Z  M 4206.9802 3154.7299 L 4205.3602 3155.6699 C 4205.2402 3155.1599 4204.9102 3154.8199 4204.3402 3154.8199 C 4203.5902 3154.8199 4203.3202 3155.3399 4203.3202 3156.0899 L 4203.3202 3157.2099 L 4206.9802 3157.2099 L 4206.9802 3156.7899 L 4205.4002 3156.7899 L 4205.4002 3156.1099 L 4206.9802 3155.1999 Z  M 4207.0502 3153.5199 C 4207.0502 3152.8099 4206.5502 3152.5299 4205.9302 3152.5299 L 4203.3202 3152.5299 L 4203.3202 3152.9499 L 4205.8902 3152.9499 C 4206.4502 3152.9499 4206.6802 3153.1499 4206.6802 3153.5499 C 4206.6802 3153.8299 4206.5702 3154.0399 4206.2602 3154.1999 L 4206.4702 3154.4999 C 4206.8502 3154.2899 4207.0502 3153.9599 4207.0502 3153.5199 Z  M 4205.6402 3151.5099 L 4204.3202 3150.6199 C 4204.1502 3150.5199 4203.9702 3150.4199 4203.8002 3150.3299 L 4203.8002 3150.3099 C 4203.9702 3150.3199 4204.2602 3150.3399 4204.4502 3150.3399 L 4205.6402 3150.3399 Z  M 4205.6402 3149.4499 L 4205.6402 3149.9499 L 4203.3202 3149.9499 L 4203.3202 3150.3899 L 4205.7002 3151.9399 L 4205.9602 3151.9399 L 4205.9602 3150.3399 L 4206.9802 3150.3399 L 4206.9802 3149.9499 L 4205.9602 3149.9499 L 4205.9602 3149.4499 Z  M 4207.0502 3147.9999 C 4207.0502 3147.3899 4206.5902 3146.8199 4205.8002 3146.8199 C 4204.9902 3146.8199 4204.6202 3147.3099 4204.6202 3147.9099 C 4204.6202 3148.1399 4204.6802 3148.3099 4204.7802 3148.4799 L 4203.6702 3148.3799 L 4203.6702 3146.9899 L 4203.3202 3146.9899 L 4203.3202 3148.7399 L 4205.0202 3148.8599 L 4205.1602 3148.6299 C 4205.0202 3148.4199 4204.9402 3148.2599 4204.9402 3148.0099 C 4204.9402 3147.5399 4205.2602 3147.2299 4205.8002 3147.2299 C 4206.3602 3147.2299 4206.7002 3147.5899 4206.7002 3148.0299 C 4206.7002 3148.4699 4206.5102 3148.7399 4206.2902 3148.9499 L 4206.5602 3149.1499 C 4206.8002 3148.9099 4207.0502 3148.5699 4207.0502 3147.9999 Z  M 4205.5002 3144.5099 L 4204.9102 3144.3199 C 4204.4902 3144.1899 4204.1002 3144.0699 4203.6602 3143.9499 L 4203.6602 3143.9299 C 4204.0902 3143.7999 4204.4902 3143.6899 4204.9102 3143.5499 L 4205.5002 3143.3599 Z  M 4206.9802 3142.8899 L 4206.9802 3142.4499 L 4203.3202 3143.6999 L 4203.3202 3144.1599 L 4206.9802 3145.4099 L 4206.9802 3144.9899 L 4205.8202 3144.6199 L 4205.8202 3143.2499 Z  M 4207.0502 3141.0399 C 4207.0502 3140.7099 4206.8702 3140.4199 4206.6602 3140.2099 L 4206.6602 3140.1999 L 4206.9802 3140.1599 L 4206.9802 3139.8199 L 4203.0002 3139.8199 L 4203.0002 3140.2299 L 4204.0602 3140.2299 L 4204.5302 3140.2099 C 4204.3302 3140.4499 4204.2102 3140.6599 4204.2102 3140.9799 C 4204.2102 3141.5999 4204.7602 3142.1599 4205.6402 3142.1599 C 4206.5302 3142.1599 4207.0502 3141.7199 4207.0502 3141.0399 Z  M 4206.7002 3140.9599 C 4206.7002 3141.4499 4206.3002 3141.7299 4205.6302 3141.7299 C 4205.0002 3141.7299 4204.5502 3141.3799 4204.5502 3140.9199 C 4204.5502 3140.6799 4204.6402 3140.4699 4204.8602 3140.2299 L 4206.3202 3140.2299 C 4206.5702 3140.4699 4206.7002 3140.6999 4206.7002 3140.9599 Z  M 4207.0502 3138.2699 C 4207.0502 3137.9299 4206.8702 3137.6199 4206.6502 3137.3599 L 4206.6502 3137.3399 L 4206.9802 3137.3099 L 4206.9802 3136.9699 L 4205.3002 3136.9699 C 4204.6602 3136.9699 4204.2102 3137.2299 4204.2102 3137.8899 C 4204.2102 3138.3199 4204.4102 3138.6999 4204.5702 3138.9399 L 4204.8502 3138.7699 C 4204.7002 3138.5699 4204.5502 3138.2799 4204.5502 3137.9499 C 4204.5502 3137.4899 4204.9102 3137.3699 4205.2802 3137.3799 C 4205.4102 3138.5399 4205.7002 3139.0499 4206.2802 3139.0499 C 4206.7802 3139.0499 4207.0502 3138.7099 4207.0502 3138.2699 Z  M 4206.7202 3138.1599 C 4206.7202 3138.4299 4206.5902 3138.6599 4206.2602 3138.6599 C 4205.8902 3138.6599 4205.6602 3138.3299 4205.5502 3137.3799 L 4206.3402 3137.3799 C 4206.5902 3137.6499 4206.7202 3137.8799 4206.7202 3138.1599 Z  M 4208.1402 3136.0799 L 4208.1402 3135.6799 L 4207.2002 3135.6799 L 4206.7302 3135.6899 C 4206.9302 3135.4299 4207.0502 3135.1799 4207.0502 3134.9299 C 4207.0502 3134.2999 4206.5102 3133.7499 4205.5902 3133.7499 C 4204.7602 3133.7499 4204.2102 3134.1199 4204.2102 3134.8299 C 4204.2102 3135.1399 4204.3902 3135.4499 4204.5902 3135.6999 L 4204.5902 3135.7099 L 4204.2802 3135.7499 L 4204.2802 3136.0799 Z  M 4206.7002 3134.9899 C 4206.7002 3135.1699 4206.6202 3135.4199 4206.4102 3135.6799 L 4204.9502 3135.6799 C 4204.6902 3135.3999 4204.5502 3135.1599 4204.5502 3134.9199 C 4204.5502 3134.3799 4204.9802 3134.1699 4205.5902 3134.1699 C 4206.2802 3134.1699 4206.7002 3134.5199 4206.7002 3134.9899 Z  M 4207.0502 3132.2799 C 4207.0502 3132.1299 4206.9902 3131.9499 4206.9502 3131.7999 L 4206.6402 3131.8799 C 4206.6802 3131.9699 4206.7102 3132.0899 4206.7102 3132.1899 C 4206.7102 3132.5199 4206.5102 3132.6199 4206.1802 3132.6199 L 4204.6202 3132.6199 L 4204.6202 3131.8699 L 4204.2802 3131.8699 L 4204.2802 3132.6199 L 4203.5102 3132.6199 L 4203.5102 3132.9599 L 4204.2802 3133.0099 L 4204.3002 3133.4299 L 4204.6202 3133.4299 L 4204.6202 3133.0199 L 4206.1602 3133.0199 C 4206.7002 3133.0199 4207.0502 3132.8399 4207.0502 3132.2799 Z  M 4207.0502 3130.2599 C 4207.0502 3129.8799 4206.9202 3129.6099 4206.7702 3129.3699 L 4206.5002 3129.5199 C 4206.6402 3129.7199 4206.7202 3129.9399 4206.7202 3130.2099 C 4206.7202 3130.7499 4206.3202 3131.1099 4205.7202 3131.1299 L 4205.7202 3129.2899 C 4205.6602 3129.2699 4205.5702 3129.2699 4205.4702 3129.2699 C 4204.7002 3129.2699 4204.2102 3129.6599 4204.2102 3130.3299 C 4204.2102 3130.9499 4204.7602 3131.5399 4205.6402 3131.5399 C 4206.5202 3131.5399 4207.0502 3130.9699 4207.0502 3130.2599 Z  M 4205.4302 3131.1399 C 4204.8702 3131.0799 4204.5402 3130.7299 4204.5402 3130.3299 C 4204.5402 3129.8899 4204.8402 3129.6299 4205.4302 3129.6299 Z  M 4206.9802 3128.5799 L 4206.9802 3128.1799 L 4205.2202 3128.1799 C 4204.7502 3127.9899 4204.5802 3127.7099 4204.5802 3127.4799 C 4204.5802 3127.3799 4204.5902 3127.3199 4204.6202 3127.2299 L 4204.2702 3127.1499 C 4204.2202 3127.2399 4204.2102 3127.3199 4204.2102 3127.4299 C 4204.2102 3127.7399 4204.4302 3128.0099 4204.7802 3128.1999 L 4204.7802 3128.2099 L 4204.2802 3128.2499 L 4204.2802 3128.5799 Z  M 4206.9802 3124.9999 L 4206.9802 3124.5199 L 4204.2802 3123.5599 L 4204.2802 3123.9599 L 4205.8502 3124.4899 C 4206.1202 3124.5699 4206.3902 3124.6699 4206.6402 3124.7499 L 4206.6402 3124.7699 C 4206.3902 3124.8499 4206.1202 3124.9399 4205.8502 3125.0199 L 4204.2802 3125.5599 L 4204.2802 3125.9799 Z  M 4206.9802 3123.2699 L 4206.9802 3120.9999 L 4206.6302 3120.9999 L 4206.6302 3122.0499 C 4206.6302 3122.2399 4206.6402 3122.4599 4206.6602 3122.6499 C 4205.8202 3121.7599 4205.0702 3121.1799 4204.3202 3121.1799 C 4203.6802 3121.1799 4203.2602 3121.5799 4203.2602 3122.2299 C 4203.2602 3122.6799 4203.4702 3122.9999 4203.7902 3123.2899 L 4204.0202 3123.0499 C 4203.7802 3122.8399 4203.5902 3122.5799 4203.5902 3122.2699 C 4203.5902 3121.7999 4203.9102 3121.5799 4204.3402 3121.5799 C 4204.9702 3121.5799 4205.7202 3122.0899 4206.7402 3123.2699 Z "  stroke="none" stroke-width="0.8"  /></g><g c_partid="part_pcbtext" c_etype="pinpart" c_origin="4202,3159" c_rotation="90" c_mirror="0" id="gge4" locked="0" layerid="3" c_shapetype="group" ><path c_fontsize="5" c_fontfamily="NotoSansCJKjp-DemiLight" c_text="Finn Rautenberg" d="M 4202 3158.49 L 4202 3158.07 L 4200.33 3158.07 L 4200.33 3156.66 L 4199.98 3156.66 L 4199.98 3158.07 L 4198.69 3158.07 L 4198.69 3156.41 L 4198.34 3156.41 L 4198.34 3158.49 Z  M 4202 3155.8 L 4202 3155.39 L 4199.3 3155.39 L 4199.3 3155.8 Z  M 4198.72 3155.59 C 4198.72 3155.43 4198.61 3155.3 4198.45 3155.3 C 4198.27 3155.3 4198.16 3155.43 4198.16 3155.59 C 4198.16 3155.76 4198.27 3155.89 4198.45 3155.89 C 4198.61 3155.89 4198.72 3155.76 4198.72 3155.59 Z  M 4202 3154.45 L 4202 3154.05 L 4200.03 3154.05 C 4199.74 3153.77 4199.59 3153.56 4199.59 3153.28 C 4199.59 3152.9 4199.82 3152.74 4200.34 3152.74 L 4202 3152.74 L 4202 3152.33 L 4200.28 3152.33 C 4199.59 3152.33 4199.23 3152.59 4199.23 3153.15 C 4199.23 3153.53 4199.44 3153.81 4199.7 3154.07 L 4199.7 3154.08 L 4199.3 3154.12 L 4199.3 3154.45 Z  M 4202 3151.43 L 4202 3151.02 L 4200.03 3151.02 C 4199.74 3150.74 4199.59 3150.54 4199.59 3150.25 C 4199.59 3149.88 4199.82 3149.72 4200.34 3149.72 L 4202 3149.72 L 4202 3149.31 L 4200.28 3149.31 C 4199.59 3149.31 4199.23 3149.57 4199.23 3150.13 C 4199.23 3150.5 4199.44 3150.78 4199.7 3151.04 L 4199.7 3151.06 L 4199.3 3151.1 L 4199.3 3151.43 Z  M 4198.68 3146.84 L 4198.68 3146.2 C 4198.68 3145.61 4198.86 3145.28 4199.36 3145.28 C 4199.84 3145.28 4200.08 3145.61 4200.08 3146.2 L 4200.08 3146.84 Z  M 4202 3144.77 L 4200.38 3145.72 C 4200.26 3145.2 4199.93 3144.87 4199.36 3144.87 C 4198.61 3144.87 4198.34 3145.39 4198.34 3146.13 L 4198.34 3147.25 L 4202 3147.25 L 4202 3146.84 L 4200.42 3146.84 L 4200.42 3146.15 L 4202 3145.24 Z  M 4202.07 3143.56 C 4202.07 3143.22 4201.89 3142.91 4201.67 3142.65 L 4201.67 3142.64 L 4202 3142.6 L 4202 3142.27 L 4200.32 3142.27 C 4199.68 3142.27 4199.23 3142.53 4199.23 3143.18 C 4199.23 3143.62 4199.43 3144 4199.59 3144.23 L 4199.87 3144.07 C 4199.72 3143.86 4199.57 3143.57 4199.57 3143.25 C 4199.57 3142.78 4199.93 3142.67 4200.3 3142.67 C 4200.43 3143.83 4200.72 3144.35 4201.3 3144.35 C 4201.8 3144.35 4202.07 3144.01 4202.07 3143.56 Z  M 4201.74 3143.45 C 4201.74 3143.73 4201.61 3143.95 4201.28 3143.95 C 4200.91 3143.95 4200.68 3143.63 4200.57 3142.67 L 4201.36 3142.67 C 4201.61 3142.95 4201.74 3143.18 4201.74 3143.45 Z  M 4202.07 3140.6 C 4202.07 3140.22 4201.86 3139.95 4201.57 3139.7 L 4201.57 3139.68 L 4202 3139.65 L 4202 3139.31 L 4199.3 3139.31 L 4199.3 3139.72 L 4201.24 3139.72 C 4201.57 3139.99 4201.71 3140.19 4201.71 3140.48 C 4201.71 3140.86 4201.49 3141.01 4200.97 3141.01 L 4199.3 3141.01 L 4199.3 3141.42 L 4201.01 3141.42 C 4201.7 3141.42 4202.07 3141.16 4202.07 3140.6 Z  M 4202.07 3137.55 C 4202.07 3137.4 4202.01 3137.22 4201.97 3137.07 L 4201.66 3137.15 C 4201.7 3137.24 4201.73 3137.36 4201.73 3137.46 C 4201.73 3137.79 4201.53 3137.89 4201.2 3137.89 L 4199.64 3137.89 L 4199.64 3137.14 L 4199.3 3137.14 L 4199.3 3137.89 L 4198.53 3137.89 L 4198.53 3138.23 L 4199.3 3138.28 L 4199.32 3138.7 L 4199.64 3138.7 L 4199.64 3138.29 L 4201.18 3138.29 C 4201.72 3138.29 4202.07 3138.11 4202.07 3137.55 Z  M 4202.07 3135.53 C 4202.07 3135.15 4201.94 3134.88 4201.79 3134.64 L 4201.52 3134.79 C 4201.66 3134.99 4201.74 3135.21 4201.74 3135.48 C 4201.74 3136.02 4201.34 3136.38 4200.74 3136.4 L 4200.74 3134.56 C 4200.68 3134.54 4200.59 3134.54 4200.49 3134.54 C 4199.72 3134.54 4199.23 3134.93 4199.23 3135.6 C 4199.23 3136.22 4199.78 3136.81 4200.66 3136.81 C 4201.54 3136.81 4202.07 3136.24 4202.07 3135.53 Z  M 4200.45 3136.41 C 4199.89 3136.35 4199.56 3136 4199.56 3135.6 C 4199.56 3135.16 4199.86 3134.9 4200.45 3134.9 Z  M 4202 3133.85 L 4202 3133.45 L 4200.03 3133.45 C 4199.74 3133.17 4199.59 3132.96 4199.59 3132.68 C 4199.59 3132.3 4199.82 3132.14 4200.34 3132.14 L 4202 3132.14 L 4202 3131.73 L 4200.28 3131.73 C 4199.59 3131.73 4199.23 3131.99 4199.23 3132.56 C 4199.23 3132.93 4199.44 3133.21 4199.7 3133.47 L 4199.7 3133.48 L 4199.3 3133.52 L 4199.3 3133.85 Z  M 4202.07 3129.67 C 4202.07 3129.05 4201.53 3128.49 4200.61 3128.49 C 4199.78 3128.49 4199.23 3128.87 4199.23 3129.57 C 4199.23 3129.88 4199.41 3130.19 4199.62 3130.44 L 4199.13 3130.42 L 4198.02 3130.42 L 4198.02 3130.83 L 4202 3130.83 L 4202 3130.51 L 4201.72 3130.46 L 4201.72 3130.45 C 4201.94 3130.21 4202.07 3129.92 4202.07 3129.67 Z  M 4201.72 3129.73 C 4201.72 3129.92 4201.64 3130.18 4201.43 3130.42 L 4199.97 3130.42 C 4199.71 3130.15 4199.57 3129.9 4199.57 3129.67 C 4199.57 3129.13 4200 3128.92 4200.61 3128.92 C 4201.3 3128.92 4201.72 3129.26 4201.72 3129.73 Z  M 4202.07 3126.69 C 4202.07 3126.31 4201.94 3126.04 4201.79 3125.8 L 4201.52 3125.95 C 4201.66 3126.15 4201.74 3126.37 4201.74 3126.64 C 4201.74 3127.18 4201.34 3127.54 4200.74 3127.56 L 4200.74 3125.72 C 4200.68 3125.7 4200.59 3125.7 4200.49 3125.7 C 4199.72 3125.7 4199.23 3126.09 4199.23 3126.76 C 4199.23 3127.38 4199.78 3127.97 4200.66 3127.97 C 4201.54 3127.97 4202.07 3127.4 4202.07 3126.69 Z  M 4200.45 3127.57 C 4199.89 3127.51 4199.56 3127.16 4199.56 3126.76 C 4199.56 3126.32 4199.86 3126.06 4200.45 3126.06 Z  M 4202 3125.01 L 4202 3124.61 L 4200.24 3124.61 C 4199.77 3124.42 4199.6 3124.14 4199.6 3123.91 C 4199.6 3123.81 4199.61 3123.75 4199.64 3123.66 L 4199.29 3123.58 C 4199.24 3123.67 4199.23 3123.75 4199.23 3123.86 C 4199.23 3124.17 4199.45 3124.44 4199.8 3124.63 L 4199.8 3124.64 L 4199.3 3124.68 L 4199.3 3125.01 Z  M 4203.26 3122.27 C 4203.26 3121.45 4202.82 3120.93 4202.33 3120.93 C 4201.89 3120.93 4201.69 3121.24 4201.69 3121.86 L 4201.69 3122.4 C 4201.69 3122.77 4201.56 3122.88 4201.39 3122.88 C 4201.23 3122.88 4201.13 3122.8 4201.05 3122.7 C 4201.11 3122.57 4201.14 3122.42 4201.14 3122.28 C 4201.14 3121.74 4200.78 3121.31 4200.2 3121.31 C 4199.95 3121.31 4199.74 3121.41 4199.61 3121.54 L 4199.61 3120.97 L 4199.3 3120.97 L 4199.3 3121.91 C 4199.26 3122 4199.23 3122.13 4199.23 3122.28 C 4199.23 3122.83 4199.61 3123.28 4200.2 3123.28 C 4200.51 3123.28 4200.78 3123.11 4200.92 3122.93 L 4200.94 3122.93 C 4201.04 3123.07 4201.22 3123.23 4201.44 3123.23 C 4201.66 3123.23 4201.8 3123.13 4201.89 3122.99 L 4201.91 3122.99 C 4202.07 3123.24 4202.3 3123.39 4202.53 3123.39 C 4202.99 3123.39 4203.26 3122.94 4203.26 3122.27 Z  M 4200.86 3122.28 C 4200.86 3122.61 4200.6 3122.89 4200.2 3122.89 C 4199.78 3122.89 4199.53 3122.62 4199.53 3122.28 C 4199.53 3121.95 4199.78 3121.68 4200.2 3121.68 C 4200.6 3121.68 4200.86 3121.96 4200.86 3122.28 Z  M 4202.97 3122.22 C 4202.97 3122.73 4202.78 3123.03 4202.47 3123.03 C 4202.31 3123.03 4202.14 3122.94 4201.99 3122.73 C 4202.02 3122.61 4202.03 3122.47 4202.03 3122.39 L 4202.03 3121.89 C 4202.03 3121.52 4202.13 3121.33 4202.39 3121.33 C 4202.68 3121.33 4202.97 3121.68 4202.97 3122.22 Z "  stroke="none" stroke-width="0.8"  /></g><g c_partid="part_pcbtext" c_etype="pinpart" c_origin="4158.68,3125.7" c_rotation="0" c_mirror="0" id="gge298" locked="0" layerid="3" c_shapetype="group" ><path c_fontsize="6" c_fontfamily="NotoSansCJKjp-DemiLight" c_text="D3" d="M 4159.0001 3125.48 L 4160.1001 3125.48 C 4161.4301 3125.48 4162.1301 3124.65 4162.1301 3123.27 C 4162.1301 3121.89 4161.4301 3121.09 4160.0801 3121.09 L 4159.0001 3121.09 Z  M 4159.5001 3125.07 L 4159.5001 3121.5 L 4160.0401 3121.5 C 4161.1101 3121.5 4161.6201 3122.14 4161.6201 3123.27 C 4161.6201 3124.39 4161.1101 3125.07 4160.0401 3125.07 Z  M 4164.0601 3125.56 C 4164.8301 3125.56 4165.4401 3125.09 4165.4401 3124.31 C 4165.4401 3123.7 4165.0201 3123.31 4164.5001 3123.19 L 4164.5001 3123.16 C 4164.9701 3123 4165.2901 3122.64 4165.2901 3122.1 C 4165.2901 3121.4 4164.7601 3121.01 4164.0401 3121 C 4163.5401 3121.01 4163.1501 3121.23 4162.8301 3121.53 L 4163.1001 3121.84 C 4163.3501 3121.59 4163.6601 3121.41 4164.0201 3121.4 C 4164.5001 3121.41 4164.7901 3121.69 4164.7901 3122.13 C 4164.7901 3122.62 4164.4701 3123 4163.5601 3123 L 4163.5601 3123.39 C 4164.5801 3123.39 4164.9501 3123.75 4164.9501 3124.3 C 4164.9501 3124.82 4164.5601 3125.15 4164.0301 3125.15 C 4163.5101 3125.15 4163.1801 3124.9 4162.9201 3124.64 L 4162.6701 3124.96 C 4162.9501 3125.26 4163.3801 3125.56 4164.0601 3125.56 Z "  stroke="none" stroke-width="0.7"  /></g><g c_partid="part_pcbtext" c_etype="pinpart" c_origin="4169.18,3125.51" c_rotation="0" c_mirror="0" id="gge302" locked="0" layerid="3" c_shapetype="group" ><path c_fontsize="6" c_fontfamily="NotoSansCJKjp-DemiLight" c_text="D4" d="M 4169.0001 3125.3899 L 4170.1001 3125.3899 C 4171.4301 3125.3899 4172.1301 3124.5599 4172.1301 3123.1799 C 4172.1301 3121.7999 4171.4301 3120.9999 4170.0801 3120.9999 L 4169.0001 3120.9999 Z  M 4169.5001 3124.9799 L 4169.5001 3121.4099 L 4170.0401 3121.4099 C 4171.1101 3121.4099 4171.6201 3122.0499 4171.6201 3123.1799 C 4171.6201 3124.2999 4171.1101 3124.9799 4170.0401 3124.9799 Z  M 4173.1201 3123.7799 L 4174.1901 3122.1999 C 4174.3101 3121.9899 4174.4301 3121.7799 4174.5301 3121.5699 L 4174.5601 3121.5699 C 4174.5501 3121.7799 4174.5301 3122.1299 4174.5301 3122.3499 L 4174.5301 3123.7799 Z  M 4175.5901 3123.7799 L 4174.9901 3123.7799 L 4174.9901 3120.9999 L 4174.4701 3120.9999 L 4172.6001 3123.8499 L 4172.6001 3124.1699 L 4174.5301 3124.1699 L 4174.5301 3125.3899 L 4174.9901 3125.3899 L 4174.9901 3124.1699 L 4175.5901 3124.1699 Z "  stroke="none" stroke-width="0.7"  /></g><g c_partid="part_pcbtext" c_etype="pinpart" c_origin="4179.18,3125.51" c_rotation="0" c_mirror="0" id="gge305" locked="0" layerid="3" c_shapetype="group" ><path c_fontsize="6" c_fontfamily="NotoSansCJKjp-DemiLight" c_text="D5" d="M 4179.0001 3125.3899 L 4180.1001 3125.3899 C 4181.4301 3125.3899 4182.1301 3124.5599 4182.1301 3123.1799 C 4182.1301 3121.7999 4181.4301 3120.9999 4180.0801 3120.9999 L 4179.0001 3120.9999 Z  M 4179.5001 3124.9799 L 4179.5001 3121.4099 L 4180.0401 3121.4099 C 4181.1101 3121.4099 4181.6201 3122.0499 4181.6201 3123.1799 C 4181.6201 3124.2999 4181.1101 3124.9799 4180.0401 3124.9799 Z  M 4184.0401 3125.4699 C 4184.7701 3125.4699 4185.4601 3124.9199 4185.4601 3123.9699 C 4185.4601 3122.9999 4184.8701 3122.5599 4184.1401 3122.5599 C 4183.8701 3122.5599 4183.6601 3122.6399 4183.4601 3122.7499 L 4183.5801 3121.4199 L 4185.2501 3121.4199 L 4185.2501 3120.9999 L 4183.1501 3120.9999 L 4183.0101 3123.0399 L 4183.2801 3123.2099 C 4183.5301 3123.0399 4183.7201 3122.9399 4184.0201 3122.9399 C 4184.5901 3122.9399 4184.9701 3123.3299 4184.9701 3123.9799 C 4184.9701 3124.6399 4184.5301 3125.0599 4184.0001 3125.0599 C 4183.4801 3125.0599 4183.1501 3124.8199 4182.9001 3124.5599 L 4182.6601 3124.8899 C 4182.9501 3125.1799 4183.3601 3125.4699 4184.0401 3125.4699 Z "  stroke="none" stroke-width="0.7"  /></g><g c_partid="part_pcbtext" c_etype="pinpart" c_origin="4189.26,3126.13" c_rotation="0" c_mirror="0" id="gge308" locked="0" layerid="3" c_shapetype="group" ><path c_fontsize="6" c_fontfamily="NotoSansCJKjp-DemiLight" c_text="D6" d="M 4189.0001 3125.47 L 4190.1001 3125.47 C 4191.4301 3125.47 4192.1301 3124.64 4192.1301 3123.26 C 4192.1301 3121.88 4191.4301 3121.08 4190.0801 3121.08 L 4189.0001 3121.08 Z  M 4189.5001 3125.06 L 4189.5001 3121.49 L 4190.0401 3121.49 C 4191.1101 3121.49 4191.6201 3122.13 4191.6201 3123.26 C 4191.6201 3124.38 4191.1101 3125.06 4190.0401 3125.06 Z  M 4194.2801 3125.16 C 4193.7001 3125.16 4193.3601 3124.63 4193.3001 3123.7 C 4193.6001 3123.28 4193.9501 3123.12 4194.2301 3123.12 C 4194.7901 3123.12 4195.0501 3123.52 4195.0501 3124.13 C 4195.0501 3124.74 4194.7201 3125.16 4194.2801 3125.16 Z  M 4195.4401 3121.44 C 4195.2001 3121.19 4194.8801 3121 4194.4401 3121 C 4193.6001 3121 4192.8301 3121.65 4192.8301 3123.38 C 4192.8301 3124.82 4193.4401 3125.55 4194.2801 3125.55 C 4194.9501 3125.55 4195.5201 3124.97 4195.5201 3124.13 C 4195.5201 3123.21 4195.0501 3122.75 4194.3101 3122.75 C 4193.9501 3122.75 4193.5701 3122.96 4193.2901 3123.29 C 4193.3201 3121.88 4193.8401 3121.41 4194.4601 3121.41 C 4194.7201 3121.41 4194.9801 3121.53 4195.1601 3121.74 Z "  stroke="none" stroke-width="0.7"  /></g><g c_partid="part_pcbtext" c_etype="pinpart" c_origin="4180.18,3159.51" c_rotation="0" c_mirror="0" id="gge311" locked="0" layerid="3" c_shapetype="group" ><path c_fontsize="6" c_fontfamily="NotoSansCJKjp-DemiLight" c_text="D1" d="M 4180.0001 3159.3899 L 4181.1001 3159.3899 C 4182.4301 3159.3899 4183.1301 3158.5599 4183.1301 3157.1799 C 4183.1301 3155.7999 4182.4301 3154.9999 4181.0801 3154.9999 L 4180.0001 3154.9999 Z  M 4180.5001 3158.9799 L 4180.5001 3155.4099 L 4181.0401 3155.4099 C 4182.1101 3155.4099 4182.6201 3156.0499 4182.6201 3157.1799 C 4182.6201 3158.2999 4182.1101 3158.9799 4181.0401 3158.9799 Z  M 4184.0201 3159.3899 L 4186.3901 3159.3899 L 4186.3901 3158.9799 L 4185.4901 3158.9799 L 4185.4901 3154.9999 L 4185.1201 3154.9999 C 4184.8901 3155.1399 4184.6101 3155.2299 4184.2301 3155.2999 L 4184.2301 3155.6199 L 4185.0101 3155.6199 L 4185.0101 3158.9799 L 4184.0201 3158.9799 Z "  stroke="none" stroke-width="0.7"  /></g><g c_partid="part_pcbtext" c_etype="pinpart" c_origin="4189.18,3159.69" c_rotation="0" c_mirror="0" id="gge314" locked="0" layerid="3" c_shapetype="group" ><path c_fontsize="6" c_fontfamily="NotoSansCJKjp-DemiLight" c_text="D2" d="M 4189.0001 3159.47 L 4190.1001 3159.47 C 4191.4301 3159.47 4192.1301 3158.64 4192.1301 3157.26 C 4192.1301 3155.88 4191.4301 3155.08 4190.0801 3155.08 L 4189.0001 3155.08 Z  M 4189.5001 3159.06 L 4189.5001 3155.49 L 4190.0401 3155.49 C 4191.1101 3155.49 4191.6201 3156.13 4191.6201 3157.26 C 4191.6201 3158.38 4191.1101 3159.06 4190.0401 3159.06 Z  M 4192.7601 3159.47 L 4195.4801 3159.47 L 4195.4801 3159.05 L 4194.2201 3159.05 C 4193.9901 3159.05 4193.7301 3159.06 4193.5001 3159.09 C 4194.5701 3158.08 4195.2701 3157.17 4195.2701 3156.28 C 4195.2701 3155.5 4194.7901 3155 4194.0101 3155 C 4193.4601 3155 4193.0801 3155.26 4192.7301 3155.64 L 4193.0201 3155.92 C 4193.2701 3155.62 4193.5901 3155.4 4193.9501 3155.4 C 4194.5201 3155.4 4194.7901 3155.79 4194.7901 3156.3 C 4194.7901 3157.06 4194.1601 3157.95 4192.7601 3159.18 Z "  stroke="none" stroke-width="0.7"  /></g><g c_partid="part_pcbtext" c_etype="pinpart" c_origin="4159.98,3159.51" c_rotation="0" c_mirror="0" id="gge317" locked="0" layerid="3" c_shapetype="group" ><path c_fontsize="6" c_fontfamily="NotoSansCJKjp-DemiLight" c_text="V-" d="M 4160.4102 3159.3899 L 4160.9802 3159.3899 L 4162.3902 3154.9999 L 4161.8802 3154.9999 L 4161.1602 3157.4199 C 4160.9902 3157.9399 4160.8902 3158.3599 4160.7202 3158.8699 L 4160.6902 3158.8699 C 4160.5202 3158.3599 4160.4202 3157.9399 4160.2602 3157.4199 L 4159.5202 3154.9999 L 4159.0002 3154.9999 Z  M 4162.5402 3157.9099 L 4164.0602 3157.9099 L 4164.0602 3157.5199 L 4162.5402 3157.5199 Z "  stroke="none" stroke-width="0.7"  /></g><g c_partid="part_pcbtext" c_etype="pinpart" c_origin="4169.98,3159.51" c_rotation="0" c_mirror="0" id="gge320" locked="0" layerid="3" c_shapetype="group" ><path c_fontsize="6" c_fontfamily="NotoSansCJKjp-DemiLight" c_text="V+" d="M 4170.4102 3159.3899 L 4170.9802 3159.3899 L 4172.3902 3154.9999 L 4171.8802 3154.9999 L 4171.1602 3157.4199 C 4170.9902 3157.9399 4170.8902 3158.3599 4170.7202 3158.8699 L 4170.6902 3158.8699 C 4170.5202 3158.3599 4170.4202 3157.9399 4170.2602 3157.4199 L 4169.5202 3154.9999 L 4169.0002 3154.9999 Z  M 4173.8402 3158.6899 L 4174.2402 3158.6899 L 4174.2402 3157.3699 L 4175.4602 3157.3699 L 4175.4602 3156.9999 L 4174.2402 3156.9999 L 4174.2402 3155.6799 L 4173.8402 3155.6799 L 4173.8402 3156.9999 L 4172.6202 3156.9999 L 4172.6202 3157.3699 L 4173.8402 3157.3699 Z "  stroke="none" stroke-width="0.7"  /></g><g c_partid="part_pcbtext" c_etype="" c_origin="4200.17,3135.63" c_rotation="270" c_mirror="0" id="gge25" locked="0" layerid="3" c_shapetype="group" display="none"><path c_fontsize="4.5" c_fontfamily="" c_text="RJ1" d="M 4206.32 3135.6299 L 4202.03 3135.6299 M 4206.32 3135.6299 L 4206.32 3137.4699 L 4206.12 3138.0799 L 4205.92 3138.2899 L 4205.51 3138.4899 L 4205.1 3138.4899 L 4204.69 3138.2899 L 4204.48 3138.0799 L 4204.28 3137.4699 L 4204.28 3135.6299 M 4204.28 3137.0599 L 4202.03 3138.4899 M 4206.32 3141.8899 L 4203.05 3141.8899 L 4202.44 3141.6799 L 4202.23 3141.4799 L 4202.03 3141.0699 L 4202.03 3140.6599 L 4202.23 3140.2499 L 4202.44 3140.0499 L 4203.05 3139.8399 L 4203.46 3139.8399 M 4205.51 3143.2399 L 4205.71 3143.6499 L 4206.32 3144.2599 L 4202.03 3144.2599" fill="none"  stroke-width="0.6" c_note="note_pre" /></g><g c_partid="part_pcbtext" c_etype="" c_origin="4203.63,3139.5" c_rotation="90" c_mirror="0" id="gge26" locked="0" layerid="3" c_shapetype="group" display="none"><path c_fontsize="4.5" c_fontfamily="" c_text="RJ45-B-1*1" d="M 4197.48 3139.5 L 4201.77 3139.5 M 4197.48 3139.5 L 4197.48 3137.66 L 4197.68 3137.05 L 4197.88 3136.84 L 4198.29 3136.64 L 4198.7 3136.64 L 4199.11 3136.84 L 4199.32 3137.05 L 4199.52 3137.66 L 4199.52 3139.5 M 4199.52 3138.07 L 4201.77 3136.64 M 4197.48 3133.24 L 4200.75 3133.24 L 4201.36 3133.45 L 4201.57 3133.65 L 4201.77 3134.06 L 4201.77 3134.47 L 4201.57 3134.88 L 4201.36 3135.08 L 4200.75 3135.29 L 4200.34 3135.29 M 4197.48 3129.85 L 4200.34 3131.89 L 4200.34 3128.82 M 4197.48 3129.85 L 4201.77 3129.85 M 4197.48 3125.02 L 4197.48 3127.06 L 4199.32 3127.27 L 4199.11 3127.06 L 4198.91 3126.45 L 4198.91 3125.84 L 4199.11 3125.22 L 4199.52 3124.81 L 4200.13 3124.61 L 4200.54 3124.61 L 4201.16 3124.81 L 4201.57 3125.22 L 4201.77 3125.84 L 4201.77 3126.45 L 4201.57 3127.06 L 4201.36 3127.27 L 4200.95 3127.47 M 4199.93 3123.26 L 4199.93 3119.58 M 4197.48 3118.23 L 4201.77 3118.23 M 4197.48 3118.23 L 4197.48 3116.39 L 4197.68 3115.77 L 4197.88 3115.57 L 4198.29 3115.36 L 4198.7 3115.36 L 4199.11 3115.57 L 4199.32 3115.77 L 4199.52 3116.39 M 4199.52 3118.23 L 4199.52 3116.39 L 4199.73 3115.77 L 4199.93 3115.57 L 4200.34 3115.36 L 4200.95 3115.36 L 4201.36 3115.57 L 4201.57 3115.77 L 4201.77 3116.39 L 4201.77 3118.23 M 4199.93 3114.01 L 4199.93 3110.33 M 4198.29 3108.98 L 4198.09 3108.57 L 4197.48 3107.96 L 4201.77 3107.96 M 4198.7 3105.59 L 4201.16 3105.59 M 4199.32 3106.61 L 4200.54 3104.56 M 4199.32 3104.56 L 4200.54 3106.61 M 4198.29 3103.21 L 4198.09 3102.8 L 4197.48 3102.19 L 4201.77 3102.19" fill="none"  stroke-width="0.6" c_note="note_name" /></g><g c_partid="part_pcbtext" c_etype="" c_origin="4176.999,3130.86" c_rotation="0" c_mirror="0" id="gge52" locked="0" layerid="3" c_shapetype="group" display="none"><path c_fontsize="4.5" c_fontfamily="" c_text="H3" d="M 4176.999 3124.709 L 4176.999 3128.999 M 4179.859 3124.709 L 4179.859 3128.999 M 4176.999 3126.749 L 4179.859 3126.749 M 4181.619 3124.709 L 4183.869 3124.709 L 4182.649 3126.339 L 4183.259 3126.339 L 4183.669 3126.549 L 4183.869 3126.749 L 4184.079 3127.369 L 4184.079 3127.769 L 4183.869 3128.389 L 4183.459 3128.799 L 4182.849 3128.999 L 4182.239 3128.999 L 4181.619 3128.799 L 4181.419 3128.589 L 4181.209 3128.179" fill="none"  stroke-width="0.6" c_note="note_pre" /></g><g c_partid="part_pcbtext" c_etype="" c_origin="4176.999,3125.36" c_rotation="0" c_mirror="0" id="gge53" locked="0" layerid="3" c_shapetype="group" display="none"><path c_fontsize="4.5" c_fontfamily="" c_text="210S-2*4P L=11.6MMGold-plated black" d="M 4177.199 3120.229 L 4177.199 3120.019 L 4177.409 3119.619 L 4177.609 3119.409 L 4178.019 3119.209 L 4178.839 3119.209 L 4179.249 3119.409 L 4179.449 3119.619 L 4179.659 3120.019 L 4179.659 3120.429 L 4179.449 3120.839 L 4179.049 3121.459 L 4176.999 3123.499 L 4179.859 3123.499 M 4181.209 3120.019 L 4181.619 3119.819 L 4182.239 3119.209 L 4182.239 3123.499 M 4184.809 3119.209 L 4184.199 3119.409 L 4183.789 3120.019 L 4183.589 3121.049 L 4183.589 3121.659 L 4183.789 3122.679 L 4184.199 3123.299 L 4184.809 3123.499 L 4185.219 3123.499 L 4185.839 3123.299 L 4186.249 3122.679 L 4186.449 3121.659 L 4186.449 3121.049 L 4186.249 3120.019 L 4185.839 3119.409 L 4185.219 3119.209 L 4184.809 3119.209 M 4190.659 3119.819 L 4190.249 3119.409 L 4189.639 3119.209 L 4188.819 3119.209 L 4188.209 3119.409 L 4187.799 3119.819 L 4187.799 3120.229 L 4187.999 3120.639 L 4188.209 3120.839 L 4188.619 3121.049 L 4189.849 3121.459 L 4190.249 3121.659 L 4190.459 3121.869 L 4190.659 3122.269 L 4190.659 3122.889 L 4190.249 3123.299 L 4189.639 3123.499 L 4188.819 3123.499 L 4188.209 3123.299 L 4187.799 3122.889 M 4192.009 3121.659 L 4195.699 3121.659 M 4197.249 3120.229 L 4197.249 3120.019 L 4197.449 3119.619 L 4197.659 3119.409 L 4198.069 3119.209 L 4198.889 3119.209 L 4199.299 3119.409 L 4199.499 3119.619 L 4199.699 3120.019 L 4199.699 3120.429 L 4199.499 3120.839 L 4199.089 3121.459 L 4197.049 3123.499 L 4199.909 3123.499 M 4202.279 3120.429 L 4202.279 3122.889 M 4201.259 3121.049 L 4203.299 3122.269 M 4203.299 3121.049 L 4201.259 3122.269 M 4206.699 3119.209 L 4204.649 3122.069 L 4207.719 3122.069 M 4206.699 3119.209 L 4206.699 3123.499 M 4209.069 3119.209 L 4209.069 3123.499 M 4209.069 3119.209 L 4210.909 3119.209 L 4211.529 3119.409 L 4211.729 3119.619 L 4211.939 3120.019 L 4211.939 3120.639 L 4211.729 3121.049 L 4211.529 3121.249 L 4210.909 3121.459 L 4209.069 3121.459 M 4216.439 3119.209 L 4216.439 3123.499 M 4216.439 3123.499 L 4218.889 3123.499 M 4220.239 3121.049 L 4223.919 3121.049 M 4220.239 3122.269 L 4223.919 3122.269 M 4225.269 3120.019 L 4225.679 3119.819 L 4226.299 3119.209 L 4226.299 3123.499 M 4227.649 3120.019 L 4228.049 3119.819 L 4228.669 3119.209 L 4228.669 3123.499 M 4230.219 3122.479 L 4230.019 3122.679 L 4230.219 3122.889 L 4230.429 3122.679 L 4230.219 3122.479 M 4234.229 3119.819 L 4234.029 3119.409 L 4233.409 3119.209 L 4232.999 3119.209 L 4232.389 3119.409 L 4231.979 3120.019 L 4231.779 3121.049 L 4231.779 3122.069 L 4231.979 3122.889 L 4232.389 3123.299 L 4232.999 3123.499 L 4233.209 3123.499 L 4233.819 3123.299 L 4234.229 3122.889 L 4234.439 3122.269 L 4234.439 3122.069 L 4234.229 3121.459 L 4233.819 3121.049 L 4233.209 3120.839 L 4232.999 3120.839 L 4232.389 3121.049 L 4231.979 3121.459 L 4231.779 3122.069 M 4235.789 3119.209 L 4235.789 3123.499 M 4235.789 3119.209 L 4237.419 3123.499 M 4239.059 3119.209 L 4237.419 3123.499 M 4239.059 3119.209 L 4239.059 3123.499 M 4240.409 3119.209 L 4240.409 3123.499 M 4240.409 3119.209 L 4242.049 3123.499 M 4243.679 3119.209 L 4242.049 3123.499 M 4243.679 3119.209 L 4243.679 3123.499 M 4248.099 3120.229 L 4247.899 3119.819 L 4247.489 3119.409 L 4247.079 3119.209 L 4246.259 3119.209 L 4245.849 3119.409 L 4245.439 3119.819 L 4245.239 3120.229 L 4245.029 3120.839 L 4245.029 3121.869 L 4245.239 3122.479 L 4245.439 3122.889 L 4245.849 3123.299 L 4246.259 3123.499 L 4247.079 3123.499 L 4247.489 3123.299 L 4247.899 3122.889 L 4248.099 3122.479 L 4248.099 3121.869 M 4247.079 3121.869 L 4248.099 3121.869 M 4250.469 3120.639 L 4250.059 3120.839 L 4249.649 3121.249 L 4249.449 3121.869 L 4249.449 3122.269 L 4249.649 3122.889 L 4250.059 3123.299 L 4250.469 3123.499 L 4251.089 3123.499 L 4251.499 3123.299 L 4251.899 3122.889 L 4252.109 3122.269 L 4252.109 3121.869 L 4251.899 3121.249 L 4251.499 3120.839 L 4251.089 3120.639 L 4250.469 3120.639 M 4253.459 3119.209 L 4253.459 3123.499 M 4257.259 3119.209 L 4257.259 3123.499 M 4257.259 3121.249 L 4256.849 3120.839 L 4256.449 3120.639 L 4255.829 3120.639 L 4255.419 3120.839 L 4255.009 3121.249 L 4254.809 3121.869 L 4254.809 3122.269 L 4255.009 3122.889 L 4255.419 3123.299 L 4255.829 3123.499 L 4256.449 3123.499 L 4256.849 3123.299 L 4257.259 3122.889 M 4258.609 3121.659 L 4262.299 3121.659 M 4263.649 3120.639 L 4263.649 3124.929 M 4263.649 3121.249 L 4264.049 3120.839 L 4264.459 3120.639 L 4265.079 3120.639 L 4265.489 3120.839 L 4265.899 3121.249 L 4266.099 3121.869 L 4266.099 3122.269 L 4265.899 3122.889 L 4265.489 3123.299 L 4265.079 3123.499 L 4264.459 3123.499 L 4264.049 3123.299 L 4263.649 3122.889 M 4267.449 3119.209 L 4267.449 3123.499 M 4271.249 3120.639 L 4271.249 3123.499 M 4271.249 3121.249 L 4270.849 3120.839 L 4270.439 3120.639 L 4269.819 3120.639 L 4269.409 3120.839 L 4268.999 3121.249 L 4268.799 3121.869 L 4268.799 3122.269 L 4268.999 3122.889 L 4269.409 3123.299 L 4269.819 3123.499 L 4270.439 3123.499 L 4270.849 3123.299 L 4271.249 3122.889 M 4273.219 3119.209 L 4273.219 3122.679 L 4273.419 3123.299 L 4273.829 3123.499 L 4274.239 3123.499 M 4272.599 3120.639 L 4274.039 3120.639 M 4275.589 3121.869 L 4278.049 3121.869 L 4278.049 3121.459 L 4277.839 3121.049 L 4277.639 3120.839 L 4277.229 3120.639 L 4276.609 3120.639 L 4276.199 3120.839 L 4275.799 3121.249 L 4275.589 3121.869 L 4275.589 3122.269 L 4275.799 3122.889 L 4276.199 3123.299 L 4276.609 3123.499 L 4277.229 3123.499 L 4277.639 3123.299 L 4278.049 3122.889 M 4281.849 3119.209 L 4281.849 3123.499 M 4281.849 3121.249 L 4281.439 3120.839 L 4281.029 3120.639 L 4280.419 3120.639 L 4280.009 3120.839 L 4279.599 3121.249 L 4279.399 3121.869 L 4279.399 3122.269 L 4279.599 3122.889 L 4280.009 3123.299 L 4280.419 3123.499 L 4281.029 3123.499 L 4281.439 3123.299 L 4281.849 3122.889 M 4286.349 3119.209 L 4286.349 3123.499 M 4286.349 3121.249 L 4286.759 3120.839 L 4287.169 3120.639 L 4287.779 3120.639 L 4288.189 3120.839 L 4288.599 3121.249 L 4288.799 3121.869 L 4288.799 3122.269 L 4288.599 3122.889 L 4288.189 3123.299 L 4287.779 3123.499 L 4287.169 3123.499 L 4286.759 3123.299 L 4286.349 3122.889 M 4290.149 3119.209 L 4290.149 3123.499 M 4293.959 3120.639 L 4293.959 3123.499 M 4293.959 3121.249 L 4293.549 3120.839 L 4293.139 3120.639 L 4292.529 3120.639 L 4292.119 3120.839 L 4291.709 3121.249 L 4291.499 3121.869 L 4291.499 3122.269 L 4291.709 3122.889 L 4292.119 3123.299 L 4292.529 3123.499 L 4293.139 3123.499 L 4293.549 3123.299 L 4293.959 3122.889 M 4297.759 3121.249 L 4297.349 3120.839 L 4296.949 3120.639 L 4296.329 3120.639 L 4295.919 3120.839 L 4295.509 3121.249 L 4295.309 3121.869 L 4295.309 3122.269 L 4295.509 3122.889 L 4295.919 3123.299 L 4296.329 3123.499 L 4296.949 3123.499 L 4297.349 3123.299 L 4297.759 3122.889 M 4299.109 3119.209 L 4299.109 3123.499 M 4301.159 3120.639 L 4299.109 3122.679 M 4299.929 3121.869 L 4301.359 3123.499" fill="none"  stroke-width="0.6" c_note="note_name" /></g><g c_partid="part_pcbtext" c_etype="" c_origin="4177.5,3164.86" c_rotation="0" c_mirror="0" id="gge73" locked="0" layerid="3" c_shapetype="group" display="none"><path c_fontsize="4.5" c_fontfamily="" c_text="H1" d="M 4177.5 3158.71 L 4177.5 3163 M 4180.36 3158.71 L 4180.36 3163 M 4177.5 3160.75 L 4180.36 3160.75 M 4181.71 3159.52 L 4182.12 3159.32 L 4182.74 3158.71 L 4182.74 3163" fill="none"  stroke-width="0.6" c_note="note_pre" /></g><g c_partid="part_pcbtext" c_etype="" c_origin="4177.5,3159.36" c_rotation="0" c_mirror="0" id="gge75" locked="0" layerid="3" c_shapetype="group" display="none"><path c_fontsize="4.5" c_fontfamily="" c_text="Header-Male-2.54_1x4" d="M 4177.5 3153.21 L 4177.5 3157.5 M 4180.36 3153.21 L 4180.36 3157.5 M 4177.5 3155.25 L 4180.36 3155.25 M 4181.71 3155.86 L 4184.17 3155.86 L 4184.17 3155.46 L 4183.96 3155.05 L 4183.76 3154.84 L 4183.35 3154.64 L 4182.74 3154.64 L 4182.33 3154.84 L 4181.92 3155.25 L 4181.71 3155.86 L 4181.71 3156.27 L 4181.92 3156.89 L 4182.33 3157.3 L 4182.74 3157.5 L 4183.35 3157.5 L 4183.76 3157.3 L 4184.17 3156.89 M 4187.97 3154.64 L 4187.97 3157.5 M 4187.97 3155.25 L 4187.56 3154.84 L 4187.15 3154.64 L 4186.54 3154.64 L 4186.13 3154.84 L 4185.72 3155.25 L 4185.52 3155.86 L 4185.52 3156.27 L 4185.72 3156.89 L 4186.13 3157.3 L 4186.54 3157.5 L 4187.15 3157.5 L 4187.56 3157.3 L 4187.97 3156.89 M 4191.78 3153.21 L 4191.78 3157.5 M 4191.78 3155.25 L 4191.37 3154.84 L 4190.96 3154.64 L 4190.35 3154.64 L 4189.94 3154.84 L 4189.53 3155.25 L 4189.32 3155.86 L 4189.32 3156.27 L 4189.53 3156.89 L 4189.94 3157.3 L 4190.35 3157.5 L 4190.96 3157.5 L 4191.37 3157.3 L 4191.78 3156.89 M 4193.13 3155.86 L 4195.58 3155.86 L 4195.58 3155.46 L 4195.38 3155.05 L 4195.17 3154.84 L 4194.76 3154.64 L 4194.15 3154.64 L 4193.74 3154.84 L 4193.33 3155.25 L 4193.13 3155.86 L 4193.13 3156.27 L 4193.33 3156.89 L 4193.74 3157.3 L 4194.15 3157.5 L 4194.76 3157.5 L 4195.17 3157.3 L 4195.58 3156.89 M 4196.93 3154.64 L 4196.93 3157.5 M 4196.93 3155.86 L 4197.14 3155.25 L 4197.55 3154.84 L 4197.95 3154.64 L 4198.57 3154.64 M 4199.92 3155.66 L 4203.6 3155.66 M 4204.95 3153.21 L 4204.95 3157.5 M 4204.95 3153.21 L 4206.59 3157.5 M 4208.22 3153.21 L 4206.59 3157.5 M 4208.22 3153.21 L 4208.22 3157.5 M 4212.03 3154.64 L 4212.03 3157.5 M 4212.03 3155.25 L 4211.62 3154.84 L 4211.21 3154.64 L 4210.6 3154.64 L 4210.19 3154.84 L 4209.78 3155.25 L 4209.57 3155.86 L 4209.57 3156.27 L 4209.78 3156.89 L 4210.19 3157.3 L 4210.6 3157.5 L 4211.21 3157.5 L 4211.62 3157.3 L 4212.03 3156.89 M 4213.38 3153.21 L 4213.38 3157.5 M 4214.73 3155.86 L 4217.18 3155.86 L 4217.18 3155.46 L 4216.98 3155.05 L 4216.77 3154.84 L 4216.36 3154.64 L 4215.75 3154.64 L 4215.34 3154.84 L 4214.93 3155.25 L 4214.73 3155.86 L 4214.73 3156.27 L 4214.93 3156.89 L 4215.34 3157.3 L 4215.75 3157.5 L 4216.36 3157.5 L 4216.77 3157.3 L 4217.18 3156.89 M 4218.53 3155.66 L 4222.21 3155.66 M 4223.77 3154.23 L 4223.77 3154.02 L 4223.97 3153.61 L 4224.18 3153.41 L 4224.59 3153.21 L 4225.4 3153.21 L 4225.81 3153.41 L 4226.02 3153.61 L 4226.22 3154.02 L 4226.22 3154.43 L 4226.02 3154.84 L 4225.61 3155.46 L 4223.56 3157.5 L 4226.43 3157.5 M 4227.98 3156.48 L 4227.78 3156.68 L 4227.98 3156.89 L 4228.19 3156.68 L 4227.98 3156.48 M 4231.99 3153.21 L 4229.95 3153.21 L 4229.74 3155.05 L 4229.95 3154.84 L 4230.56 3154.64 L 4231.17 3154.64 L 4231.79 3154.84 L 4232.2 3155.25 L 4232.4 3155.86 L 4232.4 3156.27 L 4232.2 3156.89 L 4231.79 3157.3 L 4231.17 3157.5 L 4230.56 3157.5 L 4229.95 3157.3 L 4229.74 3157.09 L 4229.54 3156.68 M 4235.8 3153.21 L 4233.75 3156.07 L 4236.82 3156.07 M 4235.8 3153.21 L 4235.8 3157.5 M 4238.17 3158.93 L 4241.85 3158.93 M 4243.2 3154.02 L 4243.61 3153.82 L 4244.22 3153.21 L 4244.22 3157.5 M 4245.57 3154.64 L 4247.82 3157.5 M 4247.82 3154.64 L 4245.57 3157.5 M 4251.22 3153.21 L 4249.17 3156.07 L 4252.24 3156.07 M 4251.22 3153.21 L 4251.22 3157.5" fill="none"  stroke-width="0.6" c_note="note_name" /></g><g c_partid="part_pcbtext" c_etype="" c_origin="4177.5,3104.86" c_rotation="0" c_mirror="0" id="gge98" locked="0" layerid="3" c_shapetype="group" display="none"><path c_fontsize="4.5" c_fontfamily="" c_text="H2" d="M 4177.5 3098.71 L 4177.5 3103 M 4180.36 3098.71 L 4180.36 3103 M 4177.5 3100.75 L 4180.36 3100.75 M 4181.92 3099.73 L 4181.92 3099.52 L 4182.12 3099.11 L 4182.33 3098.91 L 4182.74 3098.71 L 4183.55 3098.71 L 4183.96 3098.91 L 4184.17 3099.11 L 4184.37 3099.52 L 4184.37 3099.93 L 4184.17 3100.34 L 4183.76 3100.96 L 4181.71 3103 L 4184.58 3103" fill="none"  stroke-width="0.6" c_note="note_pre" /></g><g c_partid="part_pcbtext" c_etype="" c_origin="4177.5,3099.36" c_rotation="0" c_mirror="0" id="gge100" locked="0" layerid="3" c_shapetype="group" display="none"><path c_fontsize="4.5" c_fontfamily="" c_text="Header-Male-2.54_1x4" d="M 4177.5 3093.21 L 4177.5 3097.5 M 4180.36 3093.21 L 4180.36 3097.5 M 4177.5 3095.25 L 4180.36 3095.25 M 4181.71 3095.86 L 4184.17 3095.86 L 4184.17 3095.46 L 4183.96 3095.05 L 4183.76 3094.84 L 4183.35 3094.64 L 4182.74 3094.64 L 4182.33 3094.84 L 4181.92 3095.25 L 4181.71 3095.86 L 4181.71 3096.27 L 4181.92 3096.89 L 4182.33 3097.3 L 4182.74 3097.5 L 4183.35 3097.5 L 4183.76 3097.3 L 4184.17 3096.89 M 4187.97 3094.64 L 4187.97 3097.5 M 4187.97 3095.25 L 4187.56 3094.84 L 4187.15 3094.64 L 4186.54 3094.64 L 4186.13 3094.84 L 4185.72 3095.25 L 4185.52 3095.86 L 4185.52 3096.27 L 4185.72 3096.89 L 4186.13 3097.3 L 4186.54 3097.5 L 4187.15 3097.5 L 4187.56 3097.3 L 4187.97 3096.89 M 4191.78 3093.21 L 4191.78 3097.5 M 4191.78 3095.25 L 4191.37 3094.84 L 4190.96 3094.64 L 4190.35 3094.64 L 4189.94 3094.84 L 4189.53 3095.25 L 4189.32 3095.86 L 4189.32 3096.27 L 4189.53 3096.89 L 4189.94 3097.3 L 4190.35 3097.5 L 4190.96 3097.5 L 4191.37 3097.3 L 4191.78 3096.89 M 4193.13 3095.86 L 4195.58 3095.86 L 4195.58 3095.46 L 4195.38 3095.05 L 4195.17 3094.84 L 4194.76 3094.64 L 4194.15 3094.64 L 4193.74 3094.84 L 4193.33 3095.25 L 4193.13 3095.86 L 4193.13 3096.27 L 4193.33 3096.89 L 4193.74 3097.3 L 4194.15 3097.5 L 4194.76 3097.5 L 4195.17 3097.3 L 4195.58 3096.89 M 4196.93 3094.64 L 4196.93 3097.5 M 4196.93 3095.86 L 4197.14 3095.25 L 4197.55 3094.84 L 4197.95 3094.64 L 4198.57 3094.64 M 4199.92 3095.66 L 4203.6 3095.66 M 4204.95 3093.21 L 4204.95 3097.5 M 4204.95 3093.21 L 4206.59 3097.5 M 4208.22 3093.21 L 4206.59 3097.5 M 4208.22 3093.21 L 4208.22 3097.5 M 4212.03 3094.64 L 4212.03 3097.5 M 4212.03 3095.25 L 4211.62 3094.84 L 4211.21 3094.64 L 4210.6 3094.64 L 4210.19 3094.84 L 4209.78 3095.25 L 4209.57 3095.86 L 4209.57 3096.27 L 4209.78 3096.89 L 4210.19 3097.3 L 4210.6 3097.5 L 4211.21 3097.5 L 4211.62 3097.3 L 4212.03 3096.89 M 4213.38 3093.21 L 4213.38 3097.5 M 4214.73 3095.86 L 4217.18 3095.86 L 4217.18 3095.46 L 4216.98 3095.05 L 4216.77 3094.84 L 4216.36 3094.64 L 4215.75 3094.64 L 4215.34 3094.84 L 4214.93 3095.25 L 4214.73 3095.86 L 4214.73 3096.27 L 4214.93 3096.89 L 4215.34 3097.3 L 4215.75 3097.5 L 4216.36 3097.5 L 4216.77 3097.3 L 4217.18 3096.89 M 4218.53 3095.66 L 4222.21 3095.66 M 4223.77 3094.23 L 4223.77 3094.02 L 4223.97 3093.61 L 4224.18 3093.41 L 4224.59 3093.21 L 4225.4 3093.21 L 4225.81 3093.41 L 4226.02 3093.61 L 4226.22 3094.02 L 4226.22 3094.43 L 4226.02 3094.84 L 4225.61 3095.46 L 4223.56 3097.5 L 4226.43 3097.5 M 4227.98 3096.48 L 4227.78 3096.68 L 4227.98 3096.89 L 4228.19 3096.68 L 4227.98 3096.48 M 4231.99 3093.21 L 4229.95 3093.21 L 4229.74 3095.05 L 4229.95 3094.84 L 4230.56 3094.64 L 4231.17 3094.64 L 4231.79 3094.84 L 4232.2 3095.25 L 4232.4 3095.86 L 4232.4 3096.27 L 4232.2 3096.89 L 4231.79 3097.3 L 4231.17 3097.5 L 4230.56 3097.5 L 4229.95 3097.3 L 4229.74 3097.09 L 4229.54 3096.68 M 4235.8 3093.21 L 4233.75 3096.07 L 4236.82 3096.07 M 4235.8 3093.21 L 4235.8 3097.5 M 4238.17 3098.93 L 4241.85 3098.93 M 4243.2 3094.02 L 4243.61 3093.82 L 4244.22 3093.21 L 4244.22 3097.5 M 4245.57 3094.64 L 4247.82 3097.5 M 4247.82 3094.64 L 4245.57 3097.5 M 4251.22 3093.21 L 4249.17 3096.07 L 4252.24 3096.07 M 4251.22 3093.21 L 4251.22 3097.5" fill="none"  stroke-width="0.6" c_note="note_name" /></g><polyline points="4155 3102.5 4155 3177.5" stroke-width="1"  stroke-linecap="round" fill="none" layerid="10" net="S$338" id="gge337" locked="0" /><polyline points="4258.5 3177 4155 3177.5" stroke-width="1"  stroke-linecap="round" fill="none" layerid="10" net="S$334" id="gge333" locked="0" /><polyline points="4268 3110 4268 3170" stroke-width="1"  stroke-linecap="round" fill="none" layerid="10" net="S$332" id="gge331" locked="0" /><polyline points="4155 3102.5 4261.4 3102.5" stroke-width="1"  stroke-linecap="round" fill="none" layerid="10" net="S$330" id="gge329" locked="0" /><path d="M 4268 3110 A 6.9195 6.9195 0 0 0 4260.5 3102.5" locked="0"  fill="none" stroke-width="1" c_helper_type="arc2" net="S$332" layerid="10" id="gge343" /><path d="M 4268 3170 A 8.4146 8.4146 0 0 1 4258.5 3177" locked="0"  fill="none" stroke-width="1" c_helper_type="arc2" net="S$332" layerid="10" id="gge344" /></svg>