<svg xmlns="http://www.w3.org/2000/svg" xmlns:xlink="http://www.w3.org/1999/xlink" width="34.671mm" height="24.257mm" viewBox="4145 3092 136.5 95.5"><title></title><style type="text/css">
*[layerid="1"] {stroke:#FF0000;fill:#FF0000;}
*[layerid="2"] {stroke:#0000FF;fill:#0000FF;}
*[layerid="3"] {stroke:#FFCC00;fill:#FFCC00;}
*[layerid="4"] {stroke:#66CC33;fill:#66CC33;}
*[layerid="5"] {stroke:#808080;fill:#808080;}
*[layerid="6"] {stroke:#800000;fill:#800000;}
*[layerid="7"] {stroke:#800080;fill:#800080;stroke-opacity:0.7;fill-opacity:0.7;}
*[layerid="8"] {stroke:#AA00FF;fill:#AA00FF;stroke-opacity:0.7;fill-opacity:0.7;}
*[layerid="9"] {stroke:#6464FF;fill:#6464FF;}
*[layerid="10"] {stroke:#FF00FF;fill:#FF00FF;}
*[layerid="11"] {stroke:#C0C0C0;fill:#C0C0C0;}
*[layerid="12"] {stroke:#FFFFFF;fill:#FFFFFF;}
*[layerid="13"] {stroke:#33CC99;fill:#33CC99;}
*[layerid="14"] {stroke:#5555FF;fill:#5555FF;}
*[layerid="15"] {stroke:#F022F0;fill:#F022F0;}
*[layerid="19"] {stroke:#66CCFF;fill:#66CCFF;}
*[layerid="21"] {stroke:#999966;fill:#999966;}
*[layerid="22"] {stroke:#008000;fill:#008000;}
*[layerid="23"] {stroke:#00FF00;fill:#00FF00;}
*[layerid="24"] {stroke:#BC8E00;fill:#BC8E00;}
*[layerid="25"] {stroke:#70DBFA;fill:#70DBFA;}
*[layerid="26"] {stroke:#00CC66;fill:#00CC66;}
*[layerid="27"] {stroke:#9966FF;fill:#9966FF;}
*[layerid="28"] {stroke:#800080;fill:#800080;}
*[layerid="29"] {stroke:#008080;fill:#008080;}
*[layerid="30"] {stroke:#15935F;fill:#15935F;}
*[layerid="31"] {stroke:#000080;fill:#000080;}
*[layerid="32"] {stroke:#00B400;fill:#00B400;}
*[layerid="33"] {stroke:#2E4756;fill:#2E4756;}
*[layerid="34"] {stroke:#99842F;fill:#99842F;}
*[layerid="35"] {stroke:#FFFFAA;fill:#FFFFAA;}
*[layerid="36"] {stroke:#99842F;fill:#99842F;}
*[layerid="37"] {stroke:#2E4756;fill:#2E4756;}
*[layerid="38"] {stroke:#3535FF;fill:#3535FF;}
*[layerid="39"] {stroke:#8000BC;fill:#8000BC;}
*[layerid="40"] {stroke:#43AE5F;fill:#43AE5F;}
*[layerid="41"] {stroke:#C3ECCE;fill:#C3ECCE;}
*[layerid="42"] {stroke:#728978;fill:#728978;}
*[layerid="43"] {stroke:#39503F;fill:#39503F;}
*[layerid="44"] {stroke:#0C715D;fill:#0C715D;}
*[layerid="45"] {stroke:#5A8A80;fill:#5A8A80;}
*[layerid="46"] {stroke:#2B937E;fill:#2B937E;}
*[layerid="47"] {stroke:#23999D;fill:#23999D;}
*[layerid="48"] {stroke:#45B4E3;fill:#45B4E3;}
*[layerid="49"] {stroke:#215DA1;fill:#215DA1;}
*[layerid="50"] {stroke:#4564D7;fill:#4564D7;}
*[layerid="51"] {stroke:#6969E9;fill:#6969E9;}
*[layerid="52"] {stroke:#9069E9;fill:#9069E9;}
*[layerid="99"] {stroke:#00CCCC;fill:#00CCCC;}
*[layerid="100"] {stroke:#CC9999;fill:#CC9999;}
*[layerid="Hole"] {stroke:#222222;fill:#222222;}
*[layerid="DRCError"] {stroke:#FAD609;fill:#FAD609;}
*[fill="none"] {fill: none;}
*[stroke="none"] {stroke: none;}
path, polyline, polygon, line {stroke-linecap:round;}
g[c_partid="part_pad"][layerid="1"] ellipse:not([c_etype="pad_outer"]) {fill:#FF0000;}
g[c_partid="part_pad"][layerid="1"] polygon:not([c_etype="pad_outer"]) {fill:#FF0000;}
g[c_partid="part_pad"][layerid="1"] polyline:not([c_etype="pad_outer"]) {stroke:#FF0000;}
g[c_partid="part_pad"][layerid="2"] ellipse:not([c_etype="pad_outer"]) {fill:#0000FF;}
g[c_partid="part_pad"][layerid="2"] polygon:not([c_etype="pad_outer"]) {fill:#0000FF;}
g[c_partid="part_pad"][layerid="2"] polyline:not([c_etype="pad_outer"]) {stroke:#0000FF;}
g[c_partid="part_pad"][layerid="11"] ellipse:not([c_etype="pad_outer"]) {fill:#C0C0C0;}
g[c_partid="part_pad"][layerid="11"] polygon:not([c_etype="pad_outer"]) {fill:#C0C0C0;}
g[c_partid="part_pad"][layerid="11"] polyline:not([c_etype="pad_outer"]) {stroke:#C0C0C0;}
g[c_partid="part_pad"][layerid="11"] circle {fill:#222222;}
g[c_partid="part_pad"][layerid="11"] > polyline:nth-of-type(2) {stroke:#222222;}
g[c_partid="part_pad"][layerid="11"][c_shape="ELLIPSE"]  polyline:nth-last-of-type(1) {stroke:#222222;}
g[c_partid="part_pad"][layerid="11"][c_shape="RECT"]  polyline:nth-last-of-type(1) {stroke:#222222;}
g[c_partid="part_pad"][layerid="11"][c_shape="POLYGON"]  polyline:nth-last-of-type(1) {stroke:#222222;}
g[c_partid="part_via"] > * + circle, #gCurParts g[c_partid="part_via"] > * + circle {fill:#222222;}
g[c_partid="part_pad"] > polygon[c_etype="pad_outer"], #gCurParts g[c_partid="part_pad"] > polygon[c_etype="pad_outer"] {stroke-linejoin: miter;stroke-miterlimit: 100;}
g[c_partid="part_hole"] > circle {fill: #222222;}path, polyline, polygon {stroke-linejoin:round;}
rect, circle, ellipse, polyline, line, polygon, path {shape-rendering:crispEdges;}
</style>
<rect x="4145" y="3092" width="136.5" height="95.5" fill="#000000" stroke="none"/><g transform="matrix(-1, 0, 0, 1, 8426.5, 0)"><polyline points="4236.01 3171.4 4236.01 3163.99 4240 3160 4240 3149.99 4239.51 3149.5" stroke-width="1"  stroke-linecap="round" fill="none" layerid="2" net="GND" id="gge159" locked="0" /><polyline points="4239.5098 3149.5 4245.5098 3143.5 4255 3143.5" stroke-width="1"  stroke-linecap="round" fill="none" layerid="2" net="GND" id="gge160" locked="0" /><polyline points="4162.5 3127.5 4170 3120 4197.5 3120 4211.5 3106 4220 3106 4225 3111 4225 3117.5 4230 3122.5 4235 3122.5 4239.51 3125.5" stroke-width="1"  stroke-linecap="round" fill="none" layerid="2" net="D3" id="gge324" locked="0" /><polyline points="4182.5 3152.5 4202.5 3152.5" stroke-width="1"  stroke-linecap="round" fill="none" layerid="2" net="D1" id="gge204" locked="0" /><polyline points="4202.5 3167.5 4212.54 3167.5 4213.53 3166.51" stroke-width="1"  stroke-linecap="round" fill="none" layerid="2" net="D1" id="gge207" locked="0" /><polyline points="4222.5 3142.5 4222.5 3130" stroke-width="1"  stroke-linecap="round" fill="none" layerid="2" net="D2" id="gge211" locked="0" /><polyline points="4219 3151 4219 3126.9802 4213.5298 3121.51" stroke-width="1"  stroke-linecap="round" fill="none" layerid="2" net="VCC" id="gge217" locked="0" /><polyline points="4205 3122.5 4202.5 3122.5 4177.5 3122.5 4172.5 3127.5" stroke-width="1"  stroke-linecap="round" fill="none" layerid="2" net="D4" id="gge261" locked="0" /><polyline points="4162.5 3152.5 4167.5 3157.5 4205 3157.5 4207.5 3160" stroke-width="1"  stroke-linecap="round" fill="none" layerid="2" net="GND" id="gge221" locked="0" /><polyline points="4207.5 3172.5 4234.91 3172.5 4236.01 3171.4" stroke-width="1"  stroke-linecap="round" fill="none" layerid="2" net="GND" id="gge224" locked="0" /><polyline points="4255 3151.5 4253.5 3150 4250 3150" stroke-width="1"  stroke-linecap="round" fill="none" layerid="2" net="R1_2" id="gge228" locked="0" /><polyline points="4226 3166 4226 3137" stroke-width="1"  stroke-linecap="round" fill="none" layerid="2" net="D1" id="gge232" locked="0" /><polyline points="4255 3126 4247.5 3126 4247.5 3125 4240 3117.5 4232.5 3117.5 4230 3115" stroke-width="1"  stroke-linecap="round" fill="none" layerid="2" net="RJ1_9" id="gge244" locked="0" /><polyline points="4207.5 3147.5 4207.5 3136.5 4206 3135 4192 3135" stroke-width="1"  stroke-linecap="round" fill="none" layerid="2" net="D6" id="gge279" locked="0" /><polyline points="4172.5 3152.5 4175 3155 4207.5 3155 4210 3152.5 4215 3152.5 4216.5 3151 4219 3151" stroke-width="1"  stroke-linecap="round" fill="none" layerid="2" net="VCC" id="gge292" locked="0" /><polyline points="4212.5 3150 4212.5 3132.5 4210 3130 4205 3130 4202.5 3127.5 4182.5 3127.5" stroke-width="1"  stroke-linecap="round" fill="none" layerid="2" net="D5" id="gge326" locked="0" /><polyline points="4255 3143.5 4255 3134" stroke-width="1"  stroke-linecap="round" fill="none" layerid="2" net="GND" id="gge349" locked="0" /><g c_partid="part_pad" c_etype="pinpart" c_origin="4255,3143.5" layerid="2" number="1" net="GND" plated ="Y"  id="gge11" locked="0" c_rotation="90" c_width="4.567" c_height="5.7087" title="GND" c_shape="RECT" pasteexpansion="0" solderexpansion="0.4"><polygon  c_etype="pad_shell" points="4252.1457 3141.2165 4252.1457 3145.7835 4257.8543 3145.7835 4257.8543 3141.2165" layerid="2" stroke-width="0" /><circle c_etype="pad_hole" cx="4255" cy="3143.5" r="0" layerid="2" stroke-width="0"/></g><g c_partid="part_pad" c_etype="pinpart" c_origin="4255,3151.5" layerid="2" number="2" net="R1_2" plated ="Y"  id="gge12" locked="0" c_rotation="90" c_width="4.567" c_height="5.7087" title="R1_2" c_shape="RECT" pasteexpansion="0" solderexpansion="0.4"><polygon  c_etype="pad_shell" points="4252.1457 3149.2165 4252.1457 3153.7835 4257.8543 3153.7835 4257.8543 3149.2165" layerid="2" stroke-width="0" /><circle c_etype="pad_hole" cx="4255" cy="3151.5" r="0" layerid="2" stroke-width="0"/></g><g c_partid="part_pad" c_etype="pinpart" c_origin="4255,3134" layerid="2" number="1" net="GND" plated ="Y"  id="gge18" locked="0" c_rotation="270" c_width="4.567" c_height="5.7087" title="GND" c_shape="RECT" pasteexpansion="0" solderexpansion="0.4"><polygon  c_etype="pad_shell" points="4257.8543 3136.2835 4257.8543 3131.7165 4252.1457 3131.7165 4252.1457 3136.2835" layerid="2" stroke-width="0" /><circle c_etype="pad_hole" cx="4255" cy="3134" r="0" layerid="2" stroke-width="0"/></g><g c_partid="part_pad" c_etype="pinpart" c_origin="4255,3126" layerid="2" number="2" net="RJ1_9" plated ="Y"  id="gge19" locked="0" c_rotation="270" c_width="4.567" c_height="5.7087" title="RJ1_9" c_shape="RECT" pasteexpansion="0" solderexpansion="0.4"><polygon  c_etype="pad_shell" points="4257.8543 3128.2835 4257.8543 3123.7165 4252.1457 3123.7165 4252.1457 3128.2835" layerid="2" stroke-width="0" /><circle c_etype="pad_hole" cx="4255" cy="3126" r="0" layerid="2" stroke-width="0"/></g></g><g transform="matrix(-1, 0, 0, 1, 8426.5, 0)"><polyline points="4259.074 3149.684 4259.074 3154.881 4250.924 3154.881 4250.924 3149.684" stroke-width="0.787"  stroke-linecap="round" fill="none" layerid="4" net="" id="gge15" locked="0" /><polyline points="4259.074 3145.227 4259.074 3140.03 4250.924 3140.03 4250.924 3145.227" stroke-width="0.787"  stroke-linecap="round" fill="none" layerid="4" net="" id="gge16" locked="0" /><polyline points="4250.926 3127.816 4250.926 3122.619 4259.076 3122.619 4259.076 3127.816" stroke-width="0.787"  stroke-linecap="round" fill="none" layerid="4" net="" id="gge22" locked="0" /><polyline points="4250.926 3132.273 4250.926 3137.47 4259.076 3137.47 4259.076 3132.273" stroke-width="0.787"  stroke-linecap="round" fill="none" layerid="4" net="" id="gge23" locked="0" /><g c_partid="part_pcbtext" c_etype="" c_origin="4250.656,3132.001" c_rotation="90" c_mirror="1" id="gge13" locked="0" layerid="4" c_shapetype="group" ><path c_fontsize="4.5" c_fontfamily="" c_text="R1" d="M 4244.4999 3132 L 4248.7999 3132 M 4244.4999 3132 L 4244.4999 3133.84 L 4244.7099 3134.46 L 4244.9099 3134.66 L 4245.3199 3134.86 L 4245.7299 3134.86 L 4246.1399 3134.66 L 4246.3399 3134.46 L 4246.5499 3133.84 L 4246.5499 3132 M 4246.5499 3133.43 L 4248.7999 3134.86 M 4245.3199 3136.21 L 4245.1199 3136.62 L 4244.4999 3137.24 L 4248.7999 3137.24" fill="none"  stroke-width="0.6" c_note="note_pre" /></g><g c_partid="part_pcbtext" c_etype="" c_origin="4246.285,3146.5" c_rotation="90" c_mirror="1" id="gge14" locked="0" layerid="4" c_shapetype="group" display="none"><path c_fontsize="4.5" c_fontfamily="" c_text="220" d="M 4244.849 3146.709 L 4244.649 3146.709 L 4244.239 3146.909 L 4244.039 3147.109 L 4243.829 3147.519 L 4243.829 3148.339 L 4244.039 3148.749 L 4244.239 3148.959 L 4244.649 3149.159 L 4245.059 3149.159 L 4245.469 3148.959 L 4246.079 3148.549 L 4248.129 3146.499 L 4248.129 3149.359 M 4244.849 3150.919 L 4244.649 3150.919 L 4244.239 3151.119 L 4244.039 3151.329 L 4243.829 3151.739 L 4243.829 3152.559 L 4244.039 3152.959 L 4244.239 3153.169 L 4244.649 3153.369 L 4245.059 3153.369 L 4245.469 3153.169 L 4246.079 3152.759 L 4248.129 3150.709 L 4248.129 3153.579 M 4243.829 3156.159 L 4244.039 3155.539 L 4244.649 3155.129 L 4245.669 3154.929 L 4246.289 3154.929 L 4247.309 3155.129 L 4247.919 3155.539 L 4248.129 3156.159 L 4248.129 3156.559 L 4247.919 3157.179 L 4247.309 3157.589 L 4246.289 3157.789 L 4245.669 3157.789 L 4244.649 3157.589 L 4244.039 3157.179 L 4243.829 3156.559 L 4243.829 3156.159" fill="none"  stroke-width="0.6" c_note="note_name" /></g><g c_partid="part_pcbtext" c_etype="" c_origin="4250.655,3140" c_rotation="90" c_mirror="1" id="gge20" locked="0" layerid="4" c_shapetype="group" ><path c_fontsize="4.5" c_fontfamily="" c_text="R2" d="M 4244.5 3140 L 4248.8 3140 M 4244.5 3140 L 4244.5 3141.84 L 4244.7 3142.45 L 4244.91 3142.66 L 4245.32 3142.86 L 4245.73 3142.86 L 4246.14 3142.66 L 4246.34 3142.45 L 4246.55 3141.84 L 4246.55 3140 M 4246.55 3141.43 L 4248.8 3142.86 M 4245.52 3144.42 L 4245.32 3144.42 L 4244.91 3144.62 L 4244.7 3144.83 L 4244.5 3145.24 L 4244.5 3146.05 L 4244.7 3146.46 L 4244.91 3146.67 L 4245.32 3146.87 L 4245.73 3146.87 L 4246.14 3146.67 L 4246.75 3146.26 L 4248.8 3144.21 L 4248.8 3147.08" fill="none"  stroke-width="0.6" c_note="note_pre" /></g><g c_partid="part_pcbtext" c_etype="" c_origin="4263.716,3131.001" c_rotation="270" c_mirror="1" id="gge21" locked="0" layerid="4" c_shapetype="group" display="none"><path c_fontsize="4.5" c_fontfamily="" c_text="220" d="M 4268.851 3130.801 L 4269.051 3130.801 L 4269.461 3130.591 L 4269.671 3130.391 L 4269.871 3129.981 L 4269.871 3129.161 L 4269.671 3128.751 L 4269.461 3128.551 L 4269.051 3128.341 L 4268.641 3128.341 L 4268.231 3128.551 L 4267.621 3128.951 L 4265.571 3131.001 L 4265.571 3128.141 M 4268.851 3126.581 L 4269.051 3126.581 L 4269.461 3126.381 L 4269.671 3126.171 L 4269.871 3125.761 L 4269.871 3124.951 L 4269.671 3124.541 L 4269.461 3124.331 L 4269.051 3124.131 L 4268.641 3124.131 L 4268.231 3124.331 L 4267.621 3124.741 L 4265.571 3126.791 L 4265.571 3123.921 M 4269.871 3121.351 L 4269.671 3121.961 L 4269.051 3122.371 L 4268.031 3122.571 L 4267.421 3122.571 L 4266.391 3122.371 L 4265.781 3121.961 L 4265.571 3121.351 L 4265.571 3120.941 L 4265.781 3120.321 L 4266.391 3119.911 L 4267.421 3119.711 L 4268.031 3119.711 L 4269.051 3119.911 L 4269.671 3120.321 L 4269.871 3120.941 L 4269.871 3121.351" fill="none"  stroke-width="0.6" c_note="note_name" /></g></g><g transform="matrix(-1, 0, 0, 1, 8426.5, 0)"><g c_partid="part_pad" c_etype="pinpart" c_origin="4232.5,3153.5" layerid="11" number="8" net="VCC" plated ="Y"  id="gge37" locked="0" c_rotation="270" c_width="5.9" c_height="5.9" title="VCC" c_shape="ELLIPSE" pasteexpansion="0" solderexpansion="0.4"><ellipse c_etype="pad_shell" cx="4232.5" cy="3153.5" rx="2.95" ry="2.95" layerid="11" stroke-width="0"/><circle c_etype="pad_hole" cx="4232.5" cy="3153.5" r="1.8" layerid="11" stroke-width="0"/></g><g c_partid="part_pad" c_etype="pinpart" c_origin="4239.51,3125.5" layerid="11" number="1" net="D3" plated ="Y"  id="gge38" locked="0" c_rotation="270" c_width="5.9" c_height="5.9" title="D3" c_shape="RECT" pasteexpansion="0" solderexpansion="0.4"><polygon  c_etype="pad_shell" points="4242.46 3122.55 4242.46 3128.45 4236.56 3128.45 4236.56 3122.55" layerid="11" stroke-width="0" /><circle c_etype="pad_hole" cx="4239.51" cy="3125.5" r="1.8" layerid="11" stroke-width="0"/></g><g c_partid="part_pad" c_etype="pinpart" c_origin="4239.51,3141.5" layerid="11" number="5" net="D5" plated ="Y"  id="gge39" locked="0" c_rotation="270" c_width="5.9" c_height="5.9" title="D5" c_shape="ELLIPSE" pasteexpansion="0" solderexpansion="0.4"><ellipse c_etype="pad_shell" cx="4239.51" cy="3141.5" rx="2.95" ry="2.95" layerid="11" stroke-width="0"/><circle c_etype="pad_hole" cx="4239.51" cy="3141.5" r="1.8" layerid="11" stroke-width="0"/></g><g c_partid="part_pad" c_etype="pinpart" c_origin="4239.51,3133.5" layerid="11" number="3" net="D4" plated ="Y"  id="gge40" locked="0" c_rotation="270" c_width="5.9" c_height="5.9" title="D4" c_shape="ELLIPSE" pasteexpansion="0" solderexpansion="0.4"><ellipse c_etype="pad_shell" cx="4239.51" cy="3133.5" rx="2.95" ry="2.95" layerid="11" stroke-width="0"/><circle c_etype="pad_hole" cx="4239.51" cy="3133.5" r="1.8" layerid="11" stroke-width="0"/></g><g c_partid="part_pad" c_etype="pinpart" c_origin="4232.5,3137.5" layerid="11" number="4" net="D1" plated ="Y"  id="gge41" locked="0" c_rotation="270" c_width="5.9" c_height="5.9" title="D1" c_shape="ELLIPSE" pasteexpansion="0" solderexpansion="0.4"><ellipse c_etype="pad_shell" cx="4232.5" cy="3137.5" rx="2.95" ry="2.95" layerid="11" stroke-width="0"/><circle c_etype="pad_hole" cx="4232.5" cy="3137.5" r="1.8" layerid="11" stroke-width="0"/></g><g c_partid="part_pad" c_etype="pinpart" c_origin="4232.5,3129.5" layerid="11" number="2" net="D2" plated ="Y"  id="gge42" locked="0" c_rotation="270" c_width="5.9" c_height="5.9" title="D2" c_shape="ELLIPSE" pasteexpansion="0" solderexpansion="0.4"><ellipse c_etype="pad_shell" cx="4232.5" cy="3129.5" rx="2.95" ry="2.95" layerid="11" stroke-width="0"/><circle c_etype="pad_hole" cx="4232.5" cy="3129.5" r="1.8" layerid="11" stroke-width="0"/></g><g c_partid="part_pad" c_etype="pinpart" c_origin="4239.51,3149.5" layerid="11" number="7" net="GND" plated ="Y"  id="gge43" locked="0" c_rotation="270" c_width="5.9" c_height="5.9" title="GND" c_shape="ELLIPSE" pasteexpansion="0" solderexpansion="0.4"><ellipse c_etype="pad_shell" cx="4239.51" cy="3149.5" rx="2.95" ry="2.95" layerid="11" stroke-width="0"/><circle c_etype="pad_hole" cx="4239.51" cy="3149.5" r="1.8" layerid="11" stroke-width="0"/></g><g c_partid="part_pad" c_etype="pinpart" c_origin="4236.01,3107.6" layerid="11" number="0" net="GND" plated ="Y"  id="gge44" locked="0" c_rotation="270" c_width="10.4" c_height="10.4" title="GND" c_shape="ELLIPSE" pasteexpansion="0" solderexpansion="0.4"><ellipse c_etype="pad_shell" cx="4236.01" cy="3107.6" rx="5.2" ry="5.2" layerid="11" stroke-width="0"/><circle c_etype="pad_hole" cx="4236.01" cy="3107.6" r="3.5433" layerid="11" stroke-width="0"/></g><g c_partid="part_pad" c_etype="pinpart" c_origin="4236.01,3171.4" layerid="11" number="0" net="GND" plated ="Y"  id="gge45" locked="0" c_rotation="90" c_width="10.4" c_height="10.4" title="GND" c_shape="ELLIPSE" pasteexpansion="0" solderexpansion="0.4"><ellipse c_etype="pad_shell" cx="4236.01" cy="3171.4" rx="5.2" ry="5.2" layerid="11" stroke-width="0"/><circle c_etype="pad_hole" cx="4236.01" cy="3171.4" r="3.5433" layerid="11" stroke-width="0"/></g><g c_partid="part_pad" c_etype="pinpart" c_origin="4232.5,3145.5" layerid="11" number="6" net="D6" plated ="Y"  id="gge46" locked="0" c_rotation="270" c_width="5.9" c_height="5.9" title="D6" c_shape="ELLIPSE" pasteexpansion="0" solderexpansion="0.4"><ellipse c_etype="pad_shell" cx="4232.5" cy="3145.5" rx="2.95" ry="2.95" layerid="11" stroke-width="0"/><circle c_etype="pad_hole" cx="4232.5" cy="3145.5" r="1.8" layerid="11" stroke-width="0"/></g><g c_partid="part_pad" c_etype="pinpart" c_origin="4213.53,3157.49" layerid="11" number="11" net="R1_2" plated ="Y"  id="gge47" locked="0" c_rotation="270" c_width="5.9" c_height="5.9" title="R1_2" c_shape="ELLIPSE" pasteexpansion="0" solderexpansion="0.4"><ellipse c_etype="pad_shell" cx="4213.53" cy="3157.49" rx="2.95" ry="2.95" layerid="11" stroke-width="0"/><circle c_etype="pad_hole" cx="4213.53" cy="3157.49" r="1.8" layerid="11" stroke-width="0"/></g><g c_partid="part_pad" c_etype="pinpart" c_origin="4213.53,3166.51" layerid="11" number="12" net="D1" plated ="Y"  id="gge48" locked="0" c_rotation="270" c_width="5.9" c_height="5.9" title="D1" c_shape="ELLIPSE" pasteexpansion="0" solderexpansion="0.4"><ellipse c_etype="pad_shell" cx="4213.53" cy="3166.51" rx="2.95" ry="2.95" layerid="11" stroke-width="0"/><circle c_etype="pad_hole" cx="4213.53" cy="3166.51" r="1.8" layerid="11" stroke-width="0"/></g><g c_partid="part_pad" c_etype="pinpart" c_origin="4213.53,3112.49" layerid="11" number="9" net="RJ1_9" plated ="Y"  id="gge49" locked="0" c_rotation="270" c_width="5.9" c_height="5.9" title="RJ1_9" c_shape="ELLIPSE" pasteexpansion="0" solderexpansion="0.4"><ellipse c_etype="pad_shell" cx="4213.53" cy="3112.49" rx="2.95" ry="2.95" layerid="11" stroke-width="0"/><circle c_etype="pad_hole" cx="4213.53" cy="3112.49" r="1.8" layerid="11" stroke-width="0"/></g><g c_partid="part_pad" c_etype="pinpart" c_origin="4213.53,3121.51" layerid="11" number="10" net="VCC" plated ="Y"  id="gge50" locked="0" c_rotation="270" c_width="5.9" c_height="5.9" title="VCC" c_shape="ELLIPSE" pasteexpansion="0" solderexpansion="0.4"><ellipse c_etype="pad_shell" cx="4213.53" cy="3121.51" rx="2.95" ry="2.95" layerid="11" stroke-width="0"/><circle c_etype="pad_hole" cx="4213.53" cy="3121.51" r="1.8" layerid="11" stroke-width="0"/></g><g c_partid="part_pad" c_etype="pinpart" c_origin="4162,3145" layerid="11" number="1" net="GND" plated ="Y"  id="gge64" locked="0" c_rotation="0" c_width="6.3937" c_height="6.3937" title="GND" c_shape="ELLIPSE" pasteexpansion="0" solderexpansion="0.4"><ellipse c_etype="pad_shell" cx="4162" cy="3145" rx="3.19685" ry="3.19685" layerid="11" stroke-width="0"/><circle c_etype="pad_hole" cx="4161.9999" cy="3145.0001" r="2.1654" layerid="11" stroke-width="0"/></g><g c_partid="part_pad" c_etype="pinpart" c_origin="4162,3135" layerid="11" number="2" net="D3" plated ="Y"  id="gge65" locked="0" c_rotation="0" c_width="6.3937" c_height="6.3937" title="D3" c_shape="ELLIPSE" pasteexpansion="0" solderexpansion="0.4"><ellipse c_etype="pad_shell" cx="4162" cy="3135" rx="3.19685" ry="3.19685" layerid="11" stroke-width="0"/><circle c_etype="pad_hole" cx="4161.9999" cy="3135.0001" r="2.1654" layerid="11" stroke-width="0"/></g><g c_partid="part_pad" c_etype="pinpart" c_origin="4172,3145" layerid="11" number="3" net="VCC" plated ="Y"  id="gge66" locked="0" c_rotation="0" c_width="6.3937" c_height="6.3937" title="VCC" c_shape="ELLIPSE" pasteexpansion="0" solderexpansion="0.4"><ellipse c_etype="pad_shell" cx="4172" cy="3145" rx="3.19685" ry="3.19685" layerid="11" stroke-width="0"/><circle c_etype="pad_hole" cx="4171.9999" cy="3145.0001" r="2.1654" layerid="11" stroke-width="0"/></g><g c_partid="part_pad" c_etype="pinpart" c_origin="4172,3135" layerid="11" number="4" net="D4" plated ="Y"  id="gge67" locked="0" c_rotation="0" c_width="6.3937" c_height="6.3937" title="D4" c_shape="ELLIPSE" pasteexpansion="0" solderexpansion="0.4"><ellipse c_etype="pad_shell" cx="4172" cy="3135" rx="3.19685" ry="3.19685" layerid="11" stroke-width="0"/><circle c_etype="pad_hole" cx="4171.9999" cy="3135.0001" r="2.1654" layerid="11" stroke-width="0"/></g><g c_partid="part_pad" c_etype="pinpart" c_origin="4182,3145" layerid="11" number="5" net="D1" plated ="Y"  id="gge68" locked="0" c_rotation="0" c_width="6.3937" c_height="6.3937" title="D1" c_shape="ELLIPSE" pasteexpansion="0" solderexpansion="0.4"><ellipse c_etype="pad_shell" cx="4182" cy="3145" rx="3.19685" ry="3.19685" layerid="11" stroke-width="0"/><circle c_etype="pad_hole" cx="4181.9999" cy="3145.0001" r="2.1654" layerid="11" stroke-width="0"/></g><g c_partid="part_pad" c_etype="pinpart" c_origin="4182,3135" layerid="11" number="6" net="D5" plated ="Y"  id="gge69" locked="0" c_rotation="0" c_width="6.3937" c_height="6.3937" title="D5" c_shape="ELLIPSE" pasteexpansion="0" solderexpansion="0.4"><ellipse c_etype="pad_shell" cx="4182" cy="3135" rx="3.19685" ry="3.19685" layerid="11" stroke-width="0"/><circle c_etype="pad_hole" cx="4181.9999" cy="3135.0001" r="2.1654" layerid="11" stroke-width="0"/></g><g c_partid="part_pad" c_etype="pinpart" c_origin="4192,3145" layerid="11" number="7" net="D2" plated ="Y"  id="gge70" locked="0" c_rotation="0" c_width="6.3937" c_height="6.3937" title="D2" c_shape="ELLIPSE" pasteexpansion="0" solderexpansion="0.4"><ellipse c_etype="pad_shell" cx="4192" cy="3145" rx="3.19685" ry="3.19685" layerid="11" stroke-width="0"/><circle c_etype="pad_hole" cx="4191.9999" cy="3145.0001" r="2.1654" layerid="11" stroke-width="0"/></g><g c_partid="part_pad" c_etype="pinpart" c_origin="4192,3135" layerid="11" number="8" net="D6" plated ="Y"  id="gge71" locked="0" c_rotation="0" c_width="6.3937" c_height="6.3937" title="D6" c_shape="ELLIPSE" pasteexpansion="0" solderexpansion="0.4"><ellipse c_etype="pad_shell" cx="4192" cy="3135" rx="3.19685" ry="3.19685" layerid="11" stroke-width="0"/><circle c_etype="pad_hole" cx="4191.9999" cy="3135.0001" r="2.1654" layerid="11" stroke-width="0"/></g><g c_partid="part_pad" c_etype="pinpart" c_origin="4162.5,3170" layerid="11" number="1" net="GND" plated ="Y"  id="gge79" locked="0" c_rotation="0" c_width="7.0866" c_height="7.0866" title="GND" c_shape="RECT" pasteexpansion="0" solderexpansion="0.4"><polygon  c_etype="pad_shell" points="4158.9567 3166.4567 4166.0433 3166.4567 4166.0433 3173.5433 4158.9567 3173.5433" layerid="11" stroke-width="0" /><circle c_etype="pad_hole" cx="4162.5" cy="3170" r="2.3622" layerid="11" stroke-width="0"/></g><g c_partid="part_pad" c_etype="pinpart" c_origin="4172.5,3170" layerid="11" number="2" net="VCC" plated ="Y"  id="gge84" locked="0" c_rotation="0" c_width="7.0866" c_height="7.0866" title="VCC" c_shape="ELLIPSE" pasteexpansion="0" solderexpansion="0.4"><ellipse c_etype="pad_shell" cx="4172.5" cy="3170" rx="3.5433" ry="3.5433" layerid="11" stroke-width="0"/><circle c_etype="pad_hole" cx="4172.5" cy="3170" r="2.3622" layerid="11" stroke-width="0"/></g><g c_partid="part_pad" c_etype="pinpart" c_origin="4182.5,3170" layerid="11" number="3" net="D1" plated ="Y"  id="gge89" locked="0" c_rotation="0" c_width="7.0866" c_height="7.0866" title="D1" c_shape="ELLIPSE" pasteexpansion="0" solderexpansion="0.4"><ellipse c_etype="pad_shell" cx="4182.5" cy="3170" rx="3.5433" ry="3.5433" layerid="11" stroke-width="0"/><circle c_etype="pad_hole" cx="4182.5" cy="3170" r="2.3622" layerid="11" stroke-width="0"/></g><g c_partid="part_pad" c_etype="pinpart" c_origin="4192.5,3170" layerid="11" number="4" net="D2" plated ="Y"  id="gge92" locked="0" c_rotation="0" c_width="7.0866" c_height="7.0866" title="D2" c_shape="ELLIPSE" pasteexpansion="0" solderexpansion="0.4"><ellipse c_etype="pad_shell" cx="4192.5" cy="3170" rx="3.5433" ry="3.5433" layerid="11" stroke-width="0"/><circle c_etype="pad_hole" cx="4192.5" cy="3170" r="2.3622" layerid="11" stroke-width="0"/></g><g c_partid="part_pad" c_etype="pinpart" c_origin="4162.5,3110" layerid="11" number="1" net="D3" plated ="Y"  id="gge104" locked="0" c_rotation="0" c_width="7.0866" c_height="7.0866" title="D3" c_shape="RECT" pasteexpansion="0" solderexpansion="0.4"><polygon  c_etype="pad_shell" points="4158.9567 3106.4567 4166.0433 3106.4567 4166.0433 3113.5433 4158.9567 3113.5433" layerid="11" stroke-width="0" /><circle c_etype="pad_hole" cx="4162.5" cy="3110" r="2.3622" layerid="11" stroke-width="0"/></g><g c_partid="part_pad" c_etype="pinpart" c_origin="4172.5,3110" layerid="11" number="2" net="D4" plated ="Y"  id="gge109" locked="0" c_rotation="0" c_width="7.0866" c_height="7.0866" title="D4" c_shape="ELLIPSE" pasteexpansion="0" solderexpansion="0.4"><ellipse c_etype="pad_shell" cx="4172.5" cy="3110" rx="3.5433" ry="3.5433" layerid="11" stroke-width="0"/><circle c_etype="pad_hole" cx="4172.5" cy="3110" r="2.3622" layerid="11" stroke-width="0"/></g><g c_partid="part_pad" c_etype="pinpart" c_origin="4182.5,3110" layerid="11" number="3" net="D5" plated ="Y"  id="gge114" locked="0" c_rotation="0" c_width="7.0866" c_height="7.0866" title="D5" c_shape="ELLIPSE" pasteexpansion="0" solderexpansion="0.4"><ellipse c_etype="pad_shell" cx="4182.5" cy="3110" rx="3.5433" ry="3.5433" layerid="11" stroke-width="0"/><circle c_etype="pad_hole" cx="4182.5" cy="3110" r="2.3622" layerid="11" stroke-width="0"/></g><g c_partid="part_pad" c_etype="pinpart" c_origin="4192.5,3110" layerid="11" number="4" net="D6" plated ="Y"  id="gge117" locked="0" c_rotation="0" c_width="7.0866" c_height="7.0866" title="D6" c_shape="ELLIPSE" pasteexpansion="0" solderexpansion="0.4"><ellipse c_etype="pad_shell" cx="4192.5" cy="3110" rx="3.5433" ry="3.5433" layerid="11" stroke-width="0"/><circle c_etype="pad_hole" cx="4192.5" cy="3110" r="2.3622" layerid="11" stroke-width="0"/></g><g c_partid="part_via" c_etype="pinpart" c_shapetype="group" net="D3" c_origin="4162.5,3127.5" layerid="11" id="gge168" locked="0" solderexpansion=""><circle cx="4162.5" cy="3127.5" r="1.2" stroke-width="0" c_etype="pad_shell"/><circle cx="4162.5" cy="3127.5" r="0.6"  stroke-width="0" c_etype="pad_hole"/></g><g c_partid="part_via" c_etype="pinpart" c_shapetype="group" net="D4" c_origin="4172.5,3127.5" layerid="11" id="gge172" locked="0" solderexpansion=""><circle cx="4172.5" cy="3127.5" r="1.2" stroke-width="0" c_etype="pad_shell"/><circle cx="4172.5" cy="3127.5" r="0.6"  stroke-width="0" c_etype="pad_hole"/></g><g c_partid="part_via" c_etype="pinpart" c_shapetype="group" net="D5" c_origin="4182.5,3127.5" layerid="11" id="gge176" locked="0" solderexpansion=""><circle cx="4182.5" cy="3127.5" r="1.2" stroke-width="0" c_etype="pad_shell"/><circle cx="4182.5" cy="3127.5" r="0.6"  stroke-width="0" c_etype="pad_hole"/></g><g c_partid="part_via" c_etype="pinpart" c_shapetype="group" net="D1" c_origin="4182.5,3152.5" layerid="11" id="gge187" locked="0" solderexpansion=""><circle cx="4182.5" cy="3152.5" r="1.2" stroke-width="0" c_etype="pad_shell"/><circle cx="4182.5" cy="3152.5" r="0.6"  stroke-width="0" c_etype="pad_hole"/></g><g c_partid="part_via" c_etype="pinpart" c_shapetype="group" net="VCC" c_origin="4172.5,3152.5" layerid="11" id="gge191" locked="0" solderexpansion=""><circle cx="4172.5" cy="3152.5" r="1.2" stroke-width="0" c_etype="pad_shell"/><circle cx="4172.5" cy="3152.5" r="0.6"  stroke-width="0" c_etype="pad_hole"/></g><g c_partid="part_via" c_etype="pinpart" c_shapetype="group" net="GND" c_origin="4162.5,3152.5" layerid="11" id="gge195" locked="0" solderexpansion=""><circle cx="4162.5" cy="3152.5" r="1.2" stroke-width="0" c_etype="pad_shell"/><circle cx="4162.5" cy="3152.5" r="0.6"  stroke-width="0" c_etype="pad_hole"/></g><g c_partid="part_via" c_etype="pinpart" c_shapetype="group" net="D1" c_origin="4202.5,3152.5" layerid="11" id="gge206" locked="0" solderexpansion=""><circle cx="4202.5" cy="3152.5" r="1.2" stroke-width="0" c_etype="pad_shell"/><circle cx="4202.5" cy="3152.5" r="0.6"  stroke-width="0" c_etype="pad_hole"/></g><g c_partid="part_via" c_etype="pinpart" c_shapetype="group" net="D1" c_origin="4202.5,3167.5" layerid="11" id="gge208" locked="0" solderexpansion=""><circle cx="4202.5" cy="3167.5" r="1.2" stroke-width="0" c_etype="pad_shell"/><circle cx="4202.5" cy="3167.5" r="0.6"  stroke-width="0" c_etype="pad_hole"/></g><g c_partid="part_via" c_etype="pinpart" c_shapetype="group" net="D2" c_origin="4222.5,3142.5" layerid="11" id="gge212" locked="0" solderexpansion=""><circle cx="4222.5" cy="3142.5" r="1.2" stroke-width="0" c_etype="pad_shell"/><circle cx="4222.5" cy="3142.5" r="0.6"  stroke-width="0" c_etype="pad_hole"/></g><g c_partid="part_via" c_etype="pinpart" c_shapetype="group" net="D2" c_origin="4222.5,3130" layerid="11" id="gge214" locked="0" solderexpansion=""><circle cx="4222.5" cy="3130" r="1.2" stroke-width="0" c_etype="pad_shell"/><circle cx="4222.5" cy="3130" r="0.6"  stroke-width="0" c_etype="pad_hole"/></g><g c_partid="part_via" c_etype="pinpart" c_shapetype="group" net="VCC" c_origin="4219,3151" layerid="11" id="gge218" locked="0" solderexpansion=""><circle cx="4219" cy="3151" r="1.2" stroke-width="0" c_etype="pad_shell"/><circle cx="4219" cy="3151" r="0.6"  stroke-width="0" c_etype="pad_hole"/></g><g c_partid="part_via" c_etype="pinpart" c_shapetype="group" net="GND" c_origin="4207.5,3160" layerid="11" id="gge223" locked="0" solderexpansion=""><circle cx="4207.5" cy="3160" r="1.2" stroke-width="0" c_etype="pad_shell"/><circle cx="4207.5" cy="3160" r="0.6"  stroke-width="0" c_etype="pad_hole"/></g><g c_partid="part_via" c_etype="pinpart" c_shapetype="group" net="GND" c_origin="4207.5,3172.5" layerid="11" id="gge225" locked="0" solderexpansion=""><circle cx="4207.5" cy="3172.5" r="1.2" stroke-width="0" c_etype="pad_shell"/><circle cx="4207.5" cy="3172.5" r="0.6"  stroke-width="0" c_etype="pad_hole"/></g><g c_partid="part_via" c_etype="pinpart" c_shapetype="group" net="R1_2" c_origin="4250,3150" layerid="11" id="gge230" locked="0" solderexpansion=""><circle cx="4250" cy="3150" r="1.2" stroke-width="0" c_etype="pad_shell"/><circle cx="4250" cy="3150" r="0.6"  stroke-width="0" c_etype="pad_hole"/></g><g c_partid="part_via" c_etype="pinpart" c_shapetype="group" net="D1" c_origin="4226,3166" layerid="11" id="gge233" locked="0" solderexpansion=""><circle cx="4226" cy="3166" r="1.2" stroke-width="0" c_etype="pad_shell"/><circle cx="4226" cy="3166" r="0.6"  stroke-width="0" c_etype="pad_hole"/></g><g c_partid="part_via" c_etype="pinpart" c_shapetype="group" net="D1" c_origin="4226,3137" layerid="11" id="gge235" locked="0" solderexpansion=""><circle cx="4226" cy="3137" r="1.2" stroke-width="0" c_etype="pad_shell"/><circle cx="4226" cy="3137" r="0.6"  stroke-width="0" c_etype="pad_hole"/></g><g c_partid="part_via" c_etype="pinpart" c_shapetype="group" net="D3" c_origin="4225,3125" layerid="11" id="gge242" locked="0" solderexpansion=""><circle cx="4225" cy="3125" r="1.2" stroke-width="0" c_etype="pad_shell"/><circle cx="4225" cy="3125" r="0.6"  stroke-width="0" c_etype="pad_hole"/></g><g c_partid="part_via" c_etype="pinpart" c_shapetype="group" net="RJ1_9" c_origin="4230,3115" layerid="11" id="gge246" locked="0" solderexpansion=""><circle cx="4230" cy="3115" r="1.2" stroke-width="0" c_etype="pad_shell"/><circle cx="4230" cy="3115" r="0.6"  stroke-width="0" c_etype="pad_hole"/></g><g c_partid="part_via" c_etype="pinpart" c_shapetype="group" net="D4" c_origin="4205,3122.5" layerid="11" id="gge255" locked="0" solderexpansion=""><circle cx="4205" cy="3122.5" r="1.2" stroke-width="0" c_etype="pad_shell"/><circle cx="4205" cy="3122.5" r="0.6"  stroke-width="0" c_etype="pad_hole"/></g><g c_partid="part_via" c_etype="pinpart" c_shapetype="group" net="D5" c_origin="4212.5,3150" layerid="11" id="gge264" locked="0" solderexpansion=""><circle cx="4212.5" cy="3150" r="1.2" stroke-width="0" c_etype="pad_shell"/><circle cx="4212.5" cy="3150" r="0.6"  stroke-width="0" c_etype="pad_hole"/></g><g c_partid="part_via" c_etype="pinpart" c_shapetype="group" net="D6" c_origin="4207.5,3147.5" layerid="11" id="gge280" locked="0" solderexpansion=""><circle cx="4207.5" cy="3147.5" r="1.2" stroke-width="0" c_etype="pad_shell"/><circle cx="4207.5" cy="3147.5" r="0.6"  stroke-width="0" c_etype="pad_hole"/></g><g c_partid="part_hole" c_etype="pinpart" c_shapetype="group" c_origin="4249.51,3114.5" layerid="11" id="gge35" locked="0" ><circle cx="4249.51" cy="3114.5" r="6.3976"  stroke-width="0" /></g><g c_partid="part_hole" c_etype="pinpart" c_shapetype="group" c_origin="4249.51,3164.5" layerid="11" id="gge36" locked="0" ><circle cx="4249.51" cy="3164.5" r="6.3976"  stroke-width="0" /></g></g><g transform="matrix(-1, 0, 0, 1, 8426.5, 0)"><polyline points="4155 3102.5 4155 3177.5" stroke-width="1"  stroke-linecap="round" fill="none" layerid="10" net="S$338" id="gge337" locked="0" /><polyline points="4258.5 3177 4155 3177.5" stroke-width="1"  stroke-linecap="round" fill="none" layerid="10" net="S$334" id="gge333" locked="0" /><polyline points="4268 3110 4268 3170" stroke-width="1"  stroke-linecap="round" fill="none" layerid="10" net="S$332" id="gge331" locked="0" /><polyline points="4155 3102.5 4261.4 3102.5" stroke-width="1"  stroke-linecap="round" fill="none" layerid="10" net="S$330" id="gge329" locked="0" /><path d="M 4268 3110 A 6.9195 6.9195 0 0 0 4260.5 3102.5" locked="0"  fill="none" stroke-width="1" c_helper_type="arc2" net="S$332" layerid="10" id="gge343" /><path d="M 4268 3170 A 8.4146 8.4146 0 0 1 4258.5 3177" locked="0"  fill="none" stroke-width="1" c_helper_type="arc2" net="S$332" layerid="10" id="gge344" /></g></svg>