G04 Layer: TopSilkLayer*
G04 EasyEDA v6.3.22, 2020-02-22T14:36:41+01:00*
G04 fca1b2bbbae341289ab7ee7fc42174b0,5bf1b712bda346c5934589caff60f8c7,10*
G04 Gerber Generator version 0.2*
G04 Scale: 100 percent, Rotated: No, Reflected: No *
G04 Dimensions in inches *
G04 leading zeros omitted , absolute positions ,2 integer and 4 decimal *
%FSLAX24Y24*%
%MOIN*%
G90*
G70D02*

%ADD10C,0.010000*%
%ADD19C,0.007900*%
%ADD20C,0.006693*%

%LPD*%
G54D19*
G01X9114Y578D02*
G01X8777Y578D01*
G01X7419Y7026D02*
G01X5327Y7026D01*
G01X5327Y6426D01*
G01X7419Y578D02*
G01X5327Y578D01*
G01X5327Y2080D01*
G01X9114Y7026D02*
G01X8777Y7026D01*
G01X9781Y7026D02*
G01X11651Y7026D01*
G01X11651Y578D01*
G01X9781Y578D01*
G01X5327Y6532D02*
G01X5327Y1986D01*
G54D10*
G01X11651Y600D02*
G01X10851Y200D01*
G01X9951Y300D01*
G01X9051Y200D01*
G01X11651Y7000D02*
G01X10851Y7400D01*
G01X9951Y7300D01*
G01X9051Y7400D01*
G01X4199Y4500D02*
G01X4199Y3000D01*
G01X200Y4500D02*
G01X200Y3000D01*
G01X200Y4500D02*
G01X450Y4750D01*
G01X950Y4750D01*
G01X1200Y4500D01*
G01X200Y3000D02*
G01X450Y2750D01*
G01X950Y2750D01*
G01X1200Y3000D01*
G01X1200Y4500D02*
G01X1450Y4750D01*
G01X1950Y4750D01*
G01X2200Y4500D01*
G01X1200Y3000D02*
G01X1450Y2750D01*
G01X1950Y2750D01*
G01X2200Y3000D01*
G01X2200Y4500D02*
G01X2450Y4750D01*
G01X2950Y4750D01*
G01X3200Y4500D01*
G01X2200Y3000D02*
G01X2450Y2750D01*
G01X2950Y2750D01*
G01X3200Y3000D01*
G01X3200Y4500D02*
G01X3450Y4750D01*
G01X3950Y4750D01*
G01X4200Y4500D01*
G01X3200Y3000D02*
G01X3450Y2750D01*
G01X3950Y2750D01*
G01X4200Y3000D01*
G01X150Y1350D02*
G01X4350Y1350D01*
G01X4350Y150D01*
G01X150Y150D01*
G01X150Y1350D01*
G01X1250Y1350D02*
G01X1250Y150D01*
G01X150Y7350D02*
G01X4350Y7350D01*
G01X4350Y6150D01*
G01X150Y6150D01*
G01X150Y7350D01*
G01X1250Y7350D02*
G01X1250Y6150D01*
G54D20*
G01X10306Y2111D02*
G01X10564Y2111D01*
G01X10612Y2094D01*
G01X10628Y2078D01*
G01X10644Y2046D01*
G01X10644Y2014D01*
G01X10628Y1982D01*
G01X10612Y1966D01*
G01X10564Y1950D01*
G01X10532Y1950D01*
G01X10306Y2217D02*
G01X10644Y2217D01*
G01X10644Y2217D02*
G01X10644Y2410D01*
G01X10387Y2758D02*
G01X10355Y2742D01*
G01X10322Y2710D01*
G01X10306Y2678D01*
G01X10306Y2613D01*
G01X10322Y2581D01*
G01X10355Y2549D01*
G01X10387Y2533D01*
G01X10435Y2516D01*
G01X10516Y2516D01*
G01X10564Y2533D01*
G01X10596Y2549D01*
G01X10628Y2581D01*
G01X10644Y2613D01*
G01X10644Y2678D01*
G01X10628Y2710D01*
G01X10596Y2742D01*
G01X10564Y2758D01*
G01X10306Y3025D02*
G01X10564Y3025D01*
G01X10612Y3009D01*
G01X10628Y2993D01*
G01X10644Y2961D01*
G01X10644Y2929D01*
G01X10628Y2897D01*
G01X10612Y2880D01*
G01X10564Y2864D01*
G01X10532Y2864D01*
G01X10306Y3132D02*
G01X10644Y3132D01*
G01X10644Y3132D02*
G01X10644Y3325D01*
G01X10387Y3673D02*
G01X10355Y3657D01*
G01X10322Y3625D01*
G01X10306Y3592D01*
G01X10306Y3528D01*
G01X10322Y3496D01*
G01X10355Y3463D01*
G01X10387Y3447D01*
G01X10435Y3431D01*
G01X10516Y3431D01*
G01X10564Y3447D01*
G01X10596Y3463D01*
G01X10628Y3496D01*
G01X10644Y3528D01*
G01X10644Y3592D01*
G01X10628Y3625D01*
G01X10596Y3657D01*
G01X10564Y3673D01*
G01X10306Y3940D02*
G01X10564Y3940D01*
G01X10612Y3924D01*
G01X10628Y3908D01*
G01X10644Y3876D01*
G01X10644Y3844D01*
G01X10628Y3811D01*
G01X10612Y3795D01*
G01X10564Y3779D01*
G01X10532Y3779D01*
G01X10306Y4047D02*
G01X10644Y4047D01*
G01X10644Y4047D02*
G01X10644Y4240D01*
G01X10387Y4588D02*
G01X10355Y4572D01*
G01X10322Y4539D01*
G01X10306Y4507D01*
G01X10306Y4443D01*
G01X10322Y4411D01*
G01X10355Y4378D01*
G01X10387Y4362D01*
G01X10435Y4346D01*
G01X10516Y4346D01*
G01X10564Y4362D01*
G01X10596Y4378D01*
G01X10628Y4411D01*
G01X10644Y4443D01*
G01X10644Y4507D01*
G01X10628Y4539D01*
G01X10596Y4572D01*
G01X10564Y4588D01*
G01X10306Y4855D02*
G01X10564Y4855D01*
G01X10612Y4839D01*
G01X10628Y4823D01*
G01X10644Y4791D01*
G01X10644Y4758D01*
G01X10628Y4726D01*
G01X10612Y4710D01*
G01X10564Y4694D01*
G01X10532Y4694D01*
G01X10306Y4961D02*
G01X10644Y4961D01*
G01X10644Y4961D02*
G01X10644Y5155D01*
G01X10387Y5502D02*
G01X10355Y5486D01*
G01X10322Y5454D01*
G01X10306Y5422D01*
G01X10306Y5358D01*
G01X10322Y5325D01*
G01X10355Y5293D01*
G01X10387Y5277D01*
G01X10435Y5261D01*
G01X10516Y5261D01*
G01X10564Y5277D01*
G01X10596Y5293D01*
G01X10628Y5325D01*
G01X10644Y5358D01*
G01X10644Y5422D01*
G01X10628Y5454D01*
G01X10596Y5486D01*
G01X10564Y5502D01*

%LPD*%
G36*
G01X5197Y5650D02*
G01X5163Y5650D01*
G01X5163Y5515D01*
G01X5164Y5499D01*
G01X5165Y5484D01*
G01X5145Y5506D01*
G01X5124Y5526D01*
G01X5104Y5545D01*
G01X5084Y5562D01*
G01X5064Y5578D01*
G01X5045Y5591D01*
G01X5026Y5603D01*
G01X5007Y5613D01*
G01X4988Y5621D01*
G01X4969Y5627D01*
G01X4950Y5630D01*
G01X4931Y5632D01*
G01X4909Y5630D01*
G01X4888Y5624D01*
G01X4870Y5615D01*
G01X4855Y5603D01*
G01X4842Y5588D01*
G01X4833Y5570D01*
G01X4827Y5550D01*
G01X4826Y5526D01*
G01X4829Y5495D01*
G01X4840Y5467D01*
G01X4857Y5443D01*
G01X4878Y5421D01*
G01X4902Y5444D01*
G01X4885Y5461D01*
G01X4871Y5480D01*
G01X4862Y5500D01*
G01X4859Y5523D01*
G01X4864Y5553D01*
G01X4880Y5575D01*
G01X4904Y5587D01*
G01X4934Y5592D01*
G01X4950Y5590D01*
G01X4966Y5587D01*
G01X4983Y5582D01*
G01X5001Y5574D01*
G01X5020Y5564D01*
G01X5039Y5551D01*
G01X5059Y5536D01*
G01X5080Y5519D01*
G01X5102Y5499D01*
G01X5125Y5476D01*
G01X5148Y5451D01*
G01X5173Y5423D01*
G01X5197Y5423D01*
G01X5197Y5650D01*
G37*

%LPD*%
G36*
G01X5197Y5298D02*
G01X4927Y5394D01*
G01X4927Y5353D01*
G01X5085Y5301D01*
G01X5105Y5294D01*
G01X5125Y5288D01*
G01X5144Y5281D01*
G01X5164Y5275D01*
G01X5164Y5273D01*
G01X5144Y5266D01*
G01X5125Y5260D01*
G01X5085Y5248D01*
G01X4927Y5194D01*
G01X4927Y5151D01*
G01X5197Y5250D01*
G01X5197Y5298D01*
G37*

%LPD*%
G36*
G01X4961Y5026D02*
G01X4927Y5034D01*
G01X4923Y5028D01*
G01X4921Y5014D01*
G01X4921Y5007D01*
G01X4925Y4984D01*
G01X4936Y4963D01*
G01X4954Y4945D01*
G01X4977Y4930D01*
G01X4977Y4928D01*
G01X4927Y4925D01*
G01X4927Y4892D01*
G01X5197Y4892D01*
G01X5197Y4932D01*
G01X5022Y4932D01*
G01X4992Y4947D01*
G01X4972Y4965D01*
G01X4961Y4984D01*
G01X4957Y5001D01*
G01X4958Y5008D01*
G01X4958Y5014D01*
G01X4960Y5020D01*
G01X4961Y5026D01*
G37*

%LPD*%
G36*
G01X5054Y4823D02*
G01X5047Y4823D01*
G01X5019Y4821D01*
G01X4994Y4815D01*
G01X4973Y4807D01*
G01X4955Y4795D01*
G01X4940Y4780D01*
G01X4929Y4761D01*
G01X4923Y4740D01*
G01X4921Y4717D01*
G01X4923Y4694D01*
G01X4931Y4671D01*
G01X4943Y4651D01*
G01X4959Y4633D01*
G01X4980Y4617D01*
G01X5004Y4606D01*
G01X5032Y4598D01*
G01X5064Y4596D01*
G01X5095Y4598D01*
G01X5123Y4605D01*
G01X5147Y4617D01*
G01X5167Y4633D01*
G01X5183Y4652D01*
G01X5195Y4673D01*
G01X5202Y4698D01*
G01X5205Y4723D01*
G01X5202Y4750D01*
G01X5196Y4773D01*
G01X5187Y4794D01*
G01X5177Y4813D01*
G01X5150Y4798D01*
G01X5159Y4782D01*
G01X5166Y4766D01*
G01X5170Y4748D01*
G01X5172Y4728D01*
G01X5170Y4709D01*
G01X5164Y4692D01*
G01X5156Y4676D01*
G01X5144Y4663D01*
G01X5130Y4652D01*
G01X5113Y4644D01*
G01X5093Y4639D01*
G01X5072Y4636D01*
G01X5072Y4821D01*
G01X5067Y4822D01*
G01X5060Y4822D01*
G01X5054Y4823D01*
G37*

%LPC*%
G36*
G01X5043Y4636D02*
G01X5043Y4786D01*
G01X5004Y4782D01*
G01X4976Y4768D01*
G01X4959Y4746D01*
G01X4953Y4717D01*
G01X4960Y4688D01*
G01X4977Y4663D01*
G01X5005Y4645D01*
G01X5043Y4636D01*
G37*

%LPD*%
G36*
G01X5198Y4558D02*
G01X5194Y4569D01*
G01X5164Y4561D01*
G01X5166Y4554D01*
G01X5170Y4538D01*
G01X5171Y4530D01*
G01X5167Y4510D01*
G01X5156Y4497D01*
G01X5140Y4490D01*
G01X5118Y4488D01*
G01X4961Y4488D01*
G01X4961Y4563D01*
G01X4927Y4563D01*
G01X4927Y4488D01*
G01X4851Y4488D01*
G01X4851Y4453D01*
G01X4927Y4448D01*
G01X4930Y4407D01*
G01X4961Y4407D01*
G01X4961Y4448D01*
G01X5115Y4448D01*
G01X5152Y4451D01*
G01X5180Y4463D01*
G01X5198Y4486D01*
G01X5205Y4521D01*
G01X5203Y4533D01*
G01X5201Y4546D01*
G01X5198Y4558D01*
G37*

%LPD*%
G36*
G01X5091Y4372D02*
G01X5059Y4375D01*
G01X5029Y4373D01*
G01X5002Y4368D01*
G01X4978Y4359D01*
G01X4958Y4347D01*
G01X4942Y4332D01*
G01X4931Y4313D01*
G01X4923Y4292D01*
G01X4921Y4267D01*
G01X4924Y4243D01*
G01X4932Y4221D01*
G01X4944Y4199D01*
G01X4959Y4180D01*
G01X4959Y4178D01*
G01X4927Y4175D01*
G01X4927Y4142D01*
G01X5314Y4142D01*
G01X5314Y4182D01*
G01X5219Y4182D01*
G01X5172Y4180D01*
G01X5186Y4200D01*
G01X5196Y4219D01*
G01X5202Y4238D01*
G01X5205Y4257D01*
G01X5202Y4280D01*
G01X5195Y4301D01*
G01X5182Y4321D01*
G01X5166Y4339D01*
G01X5145Y4354D01*
G01X5120Y4365D01*
G01X5091Y4372D01*
G37*

%LPC*%
G36*
G01X5059Y4332D02*
G01X5036Y4332D01*
G01X5017Y4328D01*
G01X4999Y4323D01*
G01X4984Y4315D01*
G01X4971Y4305D01*
G01X4962Y4292D01*
G01X4956Y4276D01*
G01X4955Y4257D01*
G01X4957Y4240D01*
G01X4965Y4221D01*
G01X4977Y4202D01*
G01X4994Y4182D01*
G01X5140Y4182D01*
G01X5154Y4201D01*
G01X5163Y4219D01*
G01X5168Y4236D01*
G01X5169Y4251D01*
G01X5168Y4267D01*
G01X5162Y4283D01*
G01X5152Y4297D01*
G01X5140Y4309D01*
G01X5124Y4319D01*
G01X5105Y4326D01*
G01X5083Y4331D01*
G01X5059Y4332D01*
G37*

%LPD*%
G36*
G01X5197Y4053D02*
G01X5030Y4053D01*
G01X5006Y4051D01*
G01X4985Y4048D01*
G01X4967Y4041D01*
G01X4951Y4031D01*
G01X4938Y4019D01*
G01X4928Y4003D01*
G01X4922Y3984D01*
G01X4921Y3961D01*
G01X4924Y3929D01*
G01X4932Y3901D01*
G01X4944Y3876D01*
G01X4956Y3855D01*
G01X4985Y3873D01*
G01X4973Y3889D01*
G01X4964Y3909D01*
G01X4957Y3930D01*
G01X4955Y3955D01*
G01X4961Y3983D01*
G01X4977Y4001D01*
G01X5001Y4009D01*
G01X5027Y4011D01*
G01X5033Y3971D01*
G01X5040Y3936D01*
G01X5050Y3908D01*
G01X5061Y3884D01*
G01X5074Y3867D01*
G01X5089Y3854D01*
G01X5107Y3847D01*
G01X5127Y3844D01*
G01X5161Y3851D01*
G01X5185Y3867D01*
G01X5200Y3892D01*
G01X5205Y3923D01*
G01X5201Y3948D01*
G01X5193Y3971D01*
G01X5180Y3993D01*
G01X5164Y4013D01*
G01X5164Y4015D01*
G01X5197Y4019D01*
G01X5197Y4053D01*
G37*

%LPC*%
G36*
G01X5134Y4011D02*
G01X5055Y4011D01*
G01X5059Y3979D01*
G01X5065Y3951D01*
G01X5072Y3929D01*
G01X5080Y3912D01*
G01X5090Y3899D01*
G01X5100Y3890D01*
G01X5112Y3885D01*
G01X5126Y3884D01*
G01X5147Y3888D01*
G01X5161Y3898D01*
G01X5169Y3914D01*
G01X5172Y3934D01*
G01X5169Y3954D01*
G01X5162Y3973D01*
G01X5150Y3992D01*
G01X5134Y4011D01*
G37*

%LPD*%
G36*
G01X5197Y3767D02*
G01X4800Y3767D01*
G01X4800Y3726D01*
G01X4906Y3726D01*
G01X4952Y3728D01*
G01X4939Y3711D01*
G01X4929Y3693D01*
G01X4923Y3674D01*
G01X4921Y3651D01*
G01X4923Y3629D01*
G01X4931Y3607D01*
G01X4943Y3587D01*
G01X4959Y3569D01*
G01X4980Y3555D01*
G01X5004Y3543D01*
G01X5032Y3536D01*
G01X5064Y3534D01*
G01X5095Y3536D01*
G01X5123Y3542D01*
G01X5147Y3551D01*
G01X5167Y3564D01*
G01X5183Y3580D01*
G01X5195Y3599D01*
G01X5202Y3621D01*
G01X5205Y3646D01*
G01X5201Y3669D01*
G01X5193Y3692D01*
G01X5181Y3711D01*
G01X5165Y3728D01*
G01X5165Y3730D01*
G01X5197Y3734D01*
G01X5197Y3767D01*
G37*

%LPC*%
G36*
G01X5131Y3726D02*
G01X4985Y3726D01*
G01X4971Y3709D01*
G01X4962Y3692D01*
G01X4956Y3675D01*
G01X4955Y3657D01*
G01X4956Y3641D01*
G01X4963Y3626D01*
G01X4972Y3612D01*
G01X4985Y3600D01*
G01X5001Y3590D01*
G01X5019Y3583D01*
G01X5040Y3578D01*
G01X5063Y3576D01*
G01X5086Y3578D01*
G01X5107Y3582D01*
G01X5126Y3588D01*
G01X5141Y3597D01*
G01X5153Y3608D01*
G01X5162Y3621D01*
G01X5168Y3636D01*
G01X5169Y3653D01*
G01X5167Y3673D01*
G01X5160Y3691D01*
G01X5148Y3709D01*
G01X5131Y3726D01*
G37*

%LPD*%
G36*
G01X5197Y3461D02*
G01X5197Y3505D01*
G01X4831Y3380D01*
G01X4831Y3334D01*
G01X5197Y3209D01*
G01X5197Y3251D01*
G01X5081Y3288D01*
G01X5081Y3425D01*
G01X5197Y3461D01*
G37*

%LPC*%
G36*
G01X5050Y3298D02*
G01X5050Y3413D01*
G01X4990Y3394D01*
G01X4959Y3384D01*
G01X4897Y3366D01*
G01X4865Y3357D01*
G01X4865Y3355D01*
G01X4898Y3346D01*
G01X4929Y3336D01*
G01X4960Y3327D01*
G01X4990Y3317D01*
G01X5050Y3298D01*
G37*

%LPD*%
G36*
G01X5107Y3065D02*
G01X5080Y3067D01*
G01X5051Y3065D01*
G01X5027Y3059D01*
G01X5006Y3049D01*
G01X4990Y3036D01*
G01X4977Y3019D01*
G01X4968Y3001D01*
G01X4963Y2980D01*
G01X4961Y2959D01*
G01X4963Y2942D01*
G01X4966Y2928D01*
G01X4971Y2914D01*
G01X4977Y2901D01*
G01X4867Y2911D01*
G01X4867Y3051D01*
G01X4831Y3051D01*
G01X4831Y2876D01*
G01X5002Y2863D01*
G01X5015Y2886D01*
G01X5006Y2901D01*
G01X4999Y2916D01*
G01X4995Y2931D01*
G01X4993Y2948D01*
G01X4999Y2980D01*
G01X5016Y3005D01*
G01X5043Y3021D01*
G01X5080Y3026D01*
G01X5117Y3020D01*
G01X5146Y3003D01*
G01X5163Y2978D01*
G01X5169Y2946D01*
G01X5166Y2917D01*
G01X5157Y2892D01*
G01X5144Y2871D01*
G01X5128Y2855D01*
G01X5156Y2834D01*
G01X5173Y2855D01*
G01X5189Y2880D01*
G01X5200Y2911D01*
G01X5205Y2950D01*
G01X5202Y2972D01*
G01X5196Y2994D01*
G01X5186Y3014D01*
G01X5172Y3031D01*
G01X5154Y3046D01*
G01X5132Y3058D01*
G01X5107Y3065D01*
G37*

%LPD*%
G36*
G01X5096Y2805D02*
G01X5064Y2805D01*
G01X5064Y2755D01*
G01X4831Y2755D01*
G01X4831Y2711D01*
G01X5069Y2555D01*
G01X5096Y2555D01*
G01X5096Y2715D01*
G01X5197Y2715D01*
G01X5197Y2755D01*
G01X5096Y2755D01*
G01X5096Y2805D01*
G37*

%LPC*%
G36*
G01X4894Y2718D02*
G01X4880Y2719D01*
G01X4880Y2717D01*
G01X4893Y2709D01*
G01X4919Y2695D01*
G01X4931Y2688D01*
G01X5064Y2598D01*
G01X5064Y2715D01*
G01X4944Y2715D01*
G01X4929Y2716D01*
G01X4911Y2717D01*
G01X4894Y2718D01*
G37*

%LPD*%
G36*
G01X5093Y2496D02*
G01X4831Y2496D01*
G01X4831Y2455D01*
G01X5089Y2455D01*
G01X5125Y2451D01*
G01X5149Y2440D01*
G01X5163Y2421D01*
G01X5168Y2394D01*
G01X5165Y2375D01*
G01X5158Y2357D01*
G01X5145Y2342D01*
G01X5126Y2330D01*
G01X5147Y2300D01*
G01X5172Y2317D01*
G01X5190Y2340D01*
G01X5201Y2367D01*
G01X5205Y2398D01*
G01X5202Y2422D01*
G01X5196Y2443D01*
G01X5185Y2460D01*
G01X5172Y2474D01*
G01X5155Y2484D01*
G01X5136Y2491D01*
G01X5115Y2495D01*
G01X5093Y2496D01*
G37*

%LPD*%
G36*
G01X5197Y2230D02*
G01X5197Y2276D01*
G01X5035Y2182D01*
G01X5030Y2201D01*
G01X5022Y2217D01*
G01X5013Y2232D01*
G01X5001Y2244D01*
G01X4988Y2254D01*
G01X4972Y2261D01*
G01X4954Y2266D01*
G01X4934Y2267D01*
G01X4908Y2265D01*
G01X4886Y2258D01*
G01X4868Y2247D01*
G01X4854Y2232D01*
G01X4844Y2214D01*
G01X4837Y2192D01*
G01X4833Y2167D01*
G01X4831Y2140D01*
G01X4831Y2028D01*
G01X5197Y2028D01*
G01X5197Y2071D01*
G01X5039Y2071D01*
G01X5039Y2138D01*
G01X5197Y2230D01*
G37*

%LPC*%
G36*
G01X4965Y2219D02*
G01X4934Y2226D01*
G01X4902Y2219D01*
G01X4881Y2202D01*
G01X4869Y2173D01*
G01X4865Y2134D01*
G01X4865Y2071D01*
G01X5006Y2071D01*
G01X5006Y2134D01*
G01X5001Y2173D01*
G01X4988Y2202D01*
G01X4965Y2219D01*
G37*

%LPD*%

%LPD*%
G36*
G01X4751Y5654D02*
G01X4732Y5657D01*
G01X4704Y5651D01*
G01X4684Y5633D01*
G01X4672Y5604D01*
G01X4668Y5563D01*
G01X4668Y5509D01*
G01X4666Y5486D01*
G01X4660Y5472D01*
G01X4650Y5464D01*
G01X4639Y5461D01*
G01X4627Y5463D01*
G01X4618Y5467D01*
G01X4611Y5473D01*
G01X4605Y5480D01*
G01X4609Y5490D01*
G01X4611Y5500D01*
G01X4613Y5511D01*
G01X4614Y5521D01*
G01X4612Y5541D01*
G01X4607Y5559D01*
G01X4599Y5576D01*
G01X4588Y5590D01*
G01X4575Y5602D01*
G01X4559Y5611D01*
G01X4540Y5617D01*
G01X4519Y5619D01*
G01X4502Y5617D01*
G01X4485Y5612D01*
G01X4472Y5605D01*
G01X4460Y5596D01*
G01X4460Y5653D01*
G01X4430Y5653D01*
G01X4430Y5559D01*
G01X4427Y5551D01*
G01X4425Y5542D01*
G01X4423Y5532D01*
G01X4422Y5521D01*
G01X4424Y5501D01*
G01X4429Y5483D01*
G01X4438Y5466D01*
G01X4449Y5451D01*
G01X4463Y5439D01*
G01X4480Y5429D01*
G01X4498Y5423D01*
G01X4519Y5421D01*
G01X4542Y5425D01*
G01X4562Y5432D01*
G01X4579Y5444D01*
G01X4592Y5457D01*
G01X4593Y5457D01*
G01X4602Y5446D01*
G01X4614Y5436D01*
G01X4628Y5429D01*
G01X4643Y5426D01*
G01X4659Y5428D01*
G01X4671Y5433D01*
G01X4681Y5441D01*
G01X4689Y5451D01*
G01X4690Y5451D01*
G01X4704Y5434D01*
G01X4719Y5421D01*
G01X4735Y5413D01*
G01X4752Y5411D01*
G01X4769Y5413D01*
G01X4783Y5419D01*
G01X4796Y5428D01*
G01X4806Y5441D01*
G01X4814Y5458D01*
G01X4821Y5477D01*
G01X4824Y5498D01*
G01X4826Y5523D01*
G01X4823Y5552D01*
G01X4818Y5578D01*
G01X4809Y5601D01*
G01X4797Y5620D01*
G01X4784Y5636D01*
G01X4768Y5647D01*
G01X4751Y5654D01*
G37*

%LPC*%
G36*
G01X4760Y5610D02*
G01X4739Y5617D01*
G01X4722Y5613D01*
G01X4711Y5602D01*
G01X4705Y5585D01*
G01X4702Y5561D01*
G01X4702Y5495D01*
G01X4700Y5486D01*
G01X4698Y5476D01*
G01X4710Y5463D01*
G01X4722Y5454D01*
G01X4734Y5448D01*
G01X4747Y5446D01*
G01X4767Y5452D01*
G01X4783Y5468D01*
G01X4793Y5493D01*
G01X4797Y5528D01*
G01X4792Y5564D01*
G01X4778Y5592D01*
G01X4760Y5610D01*
G37*
G36*
G01X4547Y5577D02*
G01X4519Y5582D01*
G01X4491Y5577D01*
G01X4470Y5564D01*
G01X4457Y5545D01*
G01X4452Y5521D01*
G01X4457Y5498D01*
G01X4470Y5478D01*
G01X4491Y5465D01*
G01X4519Y5461D01*
G01X4547Y5465D01*
G01X4568Y5479D01*
G01X4581Y5498D01*
G01X4585Y5521D01*
G01X4581Y5544D01*
G01X4568Y5563D01*
G01X4547Y5577D01*
G37*

%LPD*%
G36*
G01X4464Y5384D02*
G01X4428Y5392D01*
G01X4424Y5378D01*
G01X4423Y5371D01*
G01X4422Y5363D01*
G01X4427Y5341D01*
G01X4438Y5321D01*
G01X4456Y5302D01*
G01X4480Y5286D01*
G01X4430Y5282D01*
G01X4430Y5248D01*
G01X4700Y5248D01*
G01X4700Y5288D01*
G01X4523Y5288D01*
G01X4494Y5304D01*
G01X4474Y5322D01*
G01X4463Y5340D01*
G01X4460Y5359D01*
G01X4460Y5371D01*
G01X4462Y5377D01*
G01X4464Y5384D01*
G37*

%LPD*%
G36*
G01X4556Y5180D02*
G01X4548Y5180D01*
G01X4521Y5178D01*
G01X4496Y5172D01*
G01X4475Y5164D01*
G01X4457Y5152D01*
G01X4442Y5136D01*
G01X4431Y5118D01*
G01X4425Y5097D01*
G01X4422Y5073D01*
G01X4425Y5051D01*
G01X4432Y5028D01*
G01X4444Y5008D01*
G01X4461Y4990D01*
G01X4481Y4975D01*
G01X4506Y4963D01*
G01X4534Y4955D01*
G01X4565Y4953D01*
G01X4597Y4955D01*
G01X4625Y4963D01*
G01X4649Y4974D01*
G01X4669Y4990D01*
G01X4685Y5009D01*
G01X4697Y5030D01*
G01X4704Y5055D01*
G01X4706Y5080D01*
G01X4704Y5107D01*
G01X4698Y5130D01*
G01X4689Y5151D01*
G01X4678Y5169D01*
G01X4652Y5155D01*
G01X4661Y5139D01*
G01X4668Y5123D01*
G01X4672Y5105D01*
G01X4673Y5086D01*
G01X4672Y5066D01*
G01X4666Y5049D01*
G01X4658Y5033D01*
G01X4646Y5020D01*
G01X4631Y5009D01*
G01X4614Y5001D01*
G01X4595Y4996D01*
G01X4573Y4994D01*
G01X4573Y5178D01*
G01X4568Y5179D01*
G01X4563Y5179D01*
G01X4556Y5180D01*
G37*

%LPC*%
G36*
G01X4544Y4992D02*
G01X4544Y5144D01*
G01X4506Y5139D01*
G01X4478Y5125D01*
G01X4461Y5103D01*
G01X4456Y5073D01*
G01X4461Y5045D01*
G01X4479Y5020D01*
G01X4507Y5002D01*
G01X4544Y4992D01*
G37*

%LPD*%
G36*
G01X4593Y4898D02*
G01X4560Y4901D01*
G01X4531Y4899D01*
G01X4504Y4894D01*
G01X4480Y4885D01*
G01X4460Y4873D01*
G01X4444Y4857D01*
G01X4432Y4839D01*
G01X4425Y4817D01*
G01X4422Y4792D01*
G01X4426Y4769D01*
G01X4434Y4747D01*
G01X4447Y4725D01*
G01X4461Y4705D01*
G01X4413Y4707D01*
G01X4302Y4707D01*
G01X4302Y4667D01*
G01X4700Y4667D01*
G01X4700Y4698D01*
G01X4672Y4703D01*
G01X4672Y4705D01*
G01X4686Y4723D01*
G01X4697Y4743D01*
G01X4704Y4763D01*
G01X4706Y4782D01*
G01X4704Y4805D01*
G01X4697Y4827D01*
G01X4685Y4847D01*
G01X4668Y4865D01*
G01X4647Y4880D01*
G01X4622Y4891D01*
G01X4593Y4898D01*
G37*

%LPC*%
G36*
G01X4560Y4857D02*
G01X4539Y4857D01*
G01X4518Y4853D01*
G01X4501Y4848D01*
G01X4486Y4840D01*
G01X4473Y4830D01*
G01X4464Y4817D01*
G01X4459Y4801D01*
G01X4456Y4782D01*
G01X4459Y4765D01*
G01X4467Y4746D01*
G01X4479Y4727D01*
G01X4497Y4707D01*
G01X4643Y4707D01*
G01X4656Y4726D01*
G01X4665Y4744D01*
G01X4670Y4761D01*
G01X4672Y4776D01*
G01X4669Y4794D01*
G01X4664Y4809D01*
G01X4655Y4823D01*
G01X4642Y4835D01*
G01X4626Y4844D01*
G01X4607Y4851D01*
G01X4585Y4856D01*
G01X4560Y4857D01*
G37*

%LPD*%
G36*
G01X4700Y4576D02*
G01X4527Y4576D01*
G01X4503Y4575D01*
G01X4482Y4571D01*
G01X4464Y4565D01*
G01X4449Y4556D01*
G01X4438Y4545D01*
G01X4429Y4530D01*
G01X4424Y4513D01*
G01X4422Y4494D01*
G01X4426Y4467D01*
G01X4436Y4444D01*
G01X4451Y4423D01*
G01X4469Y4403D01*
G01X4469Y4401D01*
G01X4430Y4398D01*
G01X4430Y4365D01*
G01X4700Y4365D01*
G01X4700Y4405D01*
G01X4502Y4405D01*
G01X4483Y4425D01*
G01X4470Y4443D01*
G01X4461Y4461D01*
G01X4459Y4482D01*
G01X4463Y4506D01*
G01X4477Y4523D01*
G01X4500Y4532D01*
G01X4534Y4536D01*
G01X4700Y4536D01*
G01X4700Y4576D01*
G37*

%LPD*%
G36*
G01X4556Y4296D02*
G01X4548Y4296D01*
G01X4521Y4294D01*
G01X4496Y4288D01*
G01X4475Y4280D01*
G01X4457Y4268D01*
G01X4442Y4253D01*
G01X4431Y4234D01*
G01X4425Y4213D01*
G01X4422Y4190D01*
G01X4425Y4167D01*
G01X4432Y4144D01*
G01X4444Y4124D01*
G01X4461Y4106D01*
G01X4481Y4090D01*
G01X4506Y4079D01*
G01X4534Y4071D01*
G01X4565Y4069D01*
G01X4597Y4071D01*
G01X4625Y4078D01*
G01X4649Y4090D01*
G01X4669Y4106D01*
G01X4685Y4125D01*
G01X4697Y4146D01*
G01X4704Y4171D01*
G01X4706Y4196D01*
G01X4704Y4223D01*
G01X4698Y4246D01*
G01X4689Y4267D01*
G01X4678Y4286D01*
G01X4652Y4271D01*
G01X4661Y4255D01*
G01X4668Y4239D01*
G01X4672Y4221D01*
G01X4673Y4201D01*
G01X4672Y4182D01*
G01X4666Y4165D01*
G01X4658Y4149D01*
G01X4646Y4136D01*
G01X4631Y4125D01*
G01X4614Y4117D01*
G01X4595Y4112D01*
G01X4573Y4109D01*
G01X4573Y4294D01*
G01X4568Y4295D01*
G01X4563Y4295D01*
G01X4556Y4296D01*
G37*

%LPC*%
G36*
G01X4544Y4109D02*
G01X4544Y4259D01*
G01X4506Y4255D01*
G01X4478Y4241D01*
G01X4461Y4219D01*
G01X4456Y4190D01*
G01X4461Y4161D01*
G01X4479Y4136D01*
G01X4507Y4118D01*
G01X4544Y4109D01*
G37*

%LPD*%
G36*
G01X4700Y4031D02*
G01X4697Y4042D01*
G01X4665Y4034D01*
G01X4668Y4027D01*
G01X4671Y4019D01*
G01X4672Y4011D01*
G01X4672Y4003D01*
G01X4669Y3983D01*
G01X4658Y3970D01*
G01X4642Y3963D01*
G01X4619Y3961D01*
G01X4464Y3961D01*
G01X4464Y4036D01*
G01X4430Y4036D01*
G01X4430Y3961D01*
G01X4352Y3961D01*
G01X4352Y3926D01*
G01X4430Y3921D01*
G01X4431Y3880D01*
G01X4464Y3880D01*
G01X4464Y3921D01*
G01X4618Y3921D01*
G01X4654Y3924D01*
G01X4682Y3936D01*
G01X4700Y3959D01*
G01X4706Y3994D01*
G01X4706Y4006D01*
G01X4703Y4019D01*
G01X4700Y4031D01*
G37*

%LPD*%
G36*
G01X4700Y3819D02*
G01X4430Y3819D01*
G01X4430Y3778D01*
G01X4623Y3778D01*
G01X4645Y3758D01*
G01X4659Y3740D01*
G01X4668Y3722D01*
G01X4671Y3701D01*
G01X4666Y3677D01*
G01X4653Y3661D01*
G01X4630Y3651D01*
G01X4597Y3648D01*
G01X4430Y3648D01*
G01X4430Y3607D01*
G01X4601Y3607D01*
G01X4625Y3609D01*
G01X4646Y3613D01*
G01X4664Y3619D01*
G01X4679Y3628D01*
G01X4691Y3639D01*
G01X4700Y3653D01*
G01X4705Y3670D01*
G01X4706Y3690D01*
G01X4703Y3716D01*
G01X4692Y3739D01*
G01X4677Y3760D01*
G01X4656Y3780D01*
G01X4656Y3782D01*
G01X4700Y3784D01*
G01X4700Y3819D01*
G37*

%LPD*%
G36*
G01X4700Y3523D02*
G01X4531Y3523D01*
G01X4509Y3521D01*
G01X4488Y3517D01*
G01X4469Y3511D01*
G01X4453Y3501D01*
G01X4440Y3489D01*
G01X4431Y3473D01*
G01X4425Y3454D01*
G01X4422Y3432D01*
G01X4426Y3400D01*
G01X4435Y3371D01*
G01X4446Y3346D01*
G01X4459Y3326D01*
G01X4486Y3342D01*
G01X4476Y3360D01*
G01X4466Y3379D01*
G01X4459Y3401D01*
G01X4456Y3425D01*
G01X4463Y3453D01*
G01X4479Y3471D01*
G01X4502Y3480D01*
G01X4530Y3482D01*
G01X4535Y3442D01*
G01X4543Y3407D01*
G01X4552Y3378D01*
G01X4563Y3355D01*
G01X4576Y3337D01*
G01X4591Y3325D01*
G01X4609Y3317D01*
G01X4630Y3315D01*
G01X4663Y3321D01*
G01X4687Y3337D01*
G01X4702Y3362D01*
G01X4706Y3394D01*
G01X4703Y3419D01*
G01X4695Y3442D01*
G01X4682Y3464D01*
G01X4667Y3484D01*
G01X4667Y3486D01*
G01X4700Y3490D01*
G01X4700Y3523D01*
G37*

%LPC*%
G36*
G01X4635Y3482D02*
G01X4556Y3482D01*
G01X4561Y3450D01*
G01X4567Y3422D01*
G01X4574Y3400D01*
G01X4582Y3382D01*
G01X4592Y3370D01*
G01X4602Y3361D01*
G01X4614Y3356D01*
G01X4627Y3355D01*
G01X4649Y3358D01*
G01X4663Y3369D01*
G01X4671Y3385D01*
G01X4673Y3405D01*
G01X4671Y3424D01*
G01X4664Y3443D01*
G01X4652Y3462D01*
G01X4635Y3482D01*
G37*

%LPD*%
G36*
G01X4700Y3226D02*
G01X4700Y3273D01*
G01X4538Y3178D01*
G01X4532Y3196D01*
G01X4525Y3213D01*
G01X4515Y3227D01*
G01X4503Y3240D01*
G01X4490Y3249D01*
G01X4474Y3257D01*
G01X4456Y3261D01*
G01X4435Y3263D01*
G01X4410Y3260D01*
G01X4388Y3253D01*
G01X4370Y3242D01*
G01X4356Y3227D01*
G01X4346Y3209D01*
G01X4339Y3188D01*
G01X4335Y3163D01*
G01X4334Y3136D01*
G01X4334Y3025D01*
G01X4700Y3025D01*
G01X4700Y3065D01*
G01X4542Y3065D01*
G01X4542Y3134D01*
G01X4700Y3226D01*
G37*

%LPC*%
G36*
G01X4467Y3215D02*
G01X4435Y3221D01*
G01X4404Y3215D01*
G01X4383Y3198D01*
G01X4371Y3169D01*
G01X4368Y3130D01*
G01X4368Y3065D01*
G01X4507Y3065D01*
G01X4507Y3130D01*
G01X4503Y3169D01*
G01X4489Y3198D01*
G01X4467Y3215D01*
G37*

%LPD*%
G36*
G01X4700Y2819D02*
G01X4527Y2819D01*
G01X4503Y2817D01*
G01X4482Y2813D01*
G01X4464Y2807D01*
G01X4449Y2798D01*
G01X4438Y2787D01*
G01X4429Y2773D01*
G01X4424Y2756D01*
G01X4422Y2736D01*
G01X4426Y2710D01*
G01X4436Y2687D01*
G01X4451Y2665D01*
G01X4469Y2646D01*
G01X4469Y2644D01*
G01X4430Y2640D01*
G01X4430Y2607D01*
G01X4700Y2607D01*
G01X4700Y2648D01*
G01X4502Y2648D01*
G01X4483Y2667D01*
G01X4470Y2686D01*
G01X4461Y2704D01*
G01X4459Y2725D01*
G01X4463Y2748D01*
G01X4477Y2765D01*
G01X4500Y2775D01*
G01X4534Y2778D01*
G01X4700Y2778D01*
G01X4700Y2819D01*
G37*

%LPD*%
G36*
G01X4700Y2517D02*
G01X4527Y2517D01*
G01X4503Y2515D01*
G01X4482Y2511D01*
G01X4464Y2505D01*
G01X4449Y2496D01*
G01X4438Y2485D01*
G01X4429Y2471D01*
G01X4424Y2454D01*
G01X4422Y2434D01*
G01X4426Y2408D01*
G01X4436Y2384D01*
G01X4451Y2363D01*
G01X4469Y2342D01*
G01X4430Y2338D01*
G01X4430Y2305D01*
G01X4700Y2305D01*
G01X4700Y2344D01*
G01X4502Y2344D01*
G01X4483Y2365D01*
G01X4470Y2383D01*
G01X4461Y2401D01*
G01X4459Y2421D01*
G01X4463Y2446D01*
G01X4477Y2463D01*
G01X4500Y2473D01*
G01X4534Y2476D01*
G01X4700Y2476D01*
G01X4700Y2517D01*
G37*

%LPD*%
G36*
G01X4700Y2211D02*
G01X4430Y2211D01*
G01X4430Y2169D01*
G01X4700Y2169D01*
G01X4700Y2211D01*
G37*

%LPD*%
G36*
G01X4356Y2217D02*
G01X4344Y2219D01*
G01X4332Y2217D01*
G01X4323Y2211D01*
G01X4318Y2202D01*
G01X4315Y2190D01*
G01X4318Y2179D01*
G01X4323Y2169D01*
G01X4332Y2163D01*
G01X4344Y2161D01*
G01X4356Y2163D01*
G01X4364Y2169D01*
G01X4369Y2179D01*
G01X4372Y2190D01*
G01X4369Y2202D01*
G01X4364Y2211D01*
G01X4356Y2217D01*
G37*

%LPD*%
G36*
G01X4368Y2109D02*
G01X4334Y2109D01*
G01X4334Y1901D01*
G01X4700Y1901D01*
G01X4700Y1942D01*
G01X4532Y1942D01*
G01X4532Y2084D01*
G01X4497Y2084D01*
G01X4497Y1942D01*
G01X4368Y1942D01*
G01X4368Y2109D01*
G37*

%LPD*%

%LPD*%
G36*
G01X532Y5640D02*
G01X400Y5640D01*
G01X400Y5201D01*
G01X510Y5201D01*
G01X534Y5203D01*
G01X556Y5205D01*
G01X578Y5210D01*
G01X597Y5217D01*
G01X615Y5225D01*
G01X632Y5235D01*
G01X647Y5247D01*
G01X661Y5260D01*
G01X673Y5275D01*
G01X683Y5292D01*
G01X692Y5310D01*
G01X700Y5330D01*
G01X705Y5351D01*
G01X709Y5373D01*
G01X712Y5397D01*
G01X713Y5423D01*
G01X712Y5448D01*
G01X709Y5471D01*
G01X705Y5494D01*
G01X700Y5515D01*
G01X692Y5534D01*
G01X683Y5552D01*
G01X673Y5569D01*
G01X661Y5583D01*
G01X647Y5596D01*
G01X632Y5608D01*
G01X615Y5618D01*
G01X597Y5626D01*
G01X577Y5632D01*
G01X555Y5637D01*
G01X532Y5640D01*
G37*

%LPC*%
G36*
G01X503Y5600D02*
G01X450Y5600D01*
G01X450Y5242D01*
G01X503Y5242D01*
G01X529Y5244D01*
G01X552Y5248D01*
G01X573Y5255D01*
G01X592Y5264D01*
G01X609Y5276D01*
G01X623Y5290D01*
G01X635Y5307D01*
G01X644Y5326D01*
G01X652Y5347D01*
G01X657Y5370D01*
G01X660Y5396D01*
G01X661Y5423D01*
G01X660Y5450D01*
G01X657Y5475D01*
G01X652Y5498D01*
G01X644Y5519D01*
G01X635Y5537D01*
G01X623Y5553D01*
G01X609Y5567D01*
G01X592Y5579D01*
G01X573Y5588D01*
G01X552Y5594D01*
G01X529Y5598D01*
G01X503Y5600D01*
G37*

%LPD*%
G36*
G01X930Y5647D02*
G01X903Y5650D01*
G01X868Y5645D01*
G01X836Y5634D01*
G01X808Y5617D01*
G01X782Y5596D01*
G01X810Y5565D01*
G01X829Y5583D01*
G01X851Y5596D01*
G01X876Y5606D01*
G01X902Y5609D01*
G01X934Y5604D01*
G01X958Y5589D01*
G01X973Y5566D01*
G01X978Y5536D01*
G01X977Y5519D01*
G01X972Y5502D01*
G01X964Y5488D01*
G01X951Y5475D01*
G01X935Y5464D01*
G01X913Y5456D01*
G01X887Y5451D01*
G01X856Y5450D01*
G01X856Y5411D01*
G01X891Y5409D01*
G01X920Y5404D01*
G01X944Y5396D01*
G01X963Y5386D01*
G01X977Y5373D01*
G01X987Y5357D01*
G01X993Y5339D01*
G01X994Y5319D01*
G01X993Y5301D01*
G01X988Y5284D01*
G01X979Y5270D01*
G01X968Y5257D01*
G01X955Y5248D01*
G01X939Y5240D01*
G01X922Y5236D01*
G01X902Y5234D01*
G01X867Y5239D01*
G01X837Y5250D01*
G01X813Y5267D01*
G01X792Y5286D01*
G01X767Y5253D01*
G01X778Y5242D01*
G01X790Y5232D01*
G01X805Y5221D01*
G01X821Y5212D01*
G01X839Y5205D01*
G01X859Y5199D01*
G01X881Y5195D01*
G01X906Y5194D01*
G01X934Y5196D01*
G01X960Y5202D01*
G01X983Y5213D01*
G01X1003Y5227D01*
G01X1020Y5245D01*
G01X1033Y5266D01*
G01X1041Y5291D01*
G01X1043Y5319D01*
G01X1042Y5340D01*
G01X1036Y5360D01*
G01X1027Y5378D01*
G01X1016Y5393D01*
G01X1002Y5406D01*
G01X986Y5417D01*
G01X968Y5425D01*
G01X950Y5430D01*
G01X950Y5434D01*
G01X966Y5440D01*
G01X982Y5449D01*
G01X995Y5460D01*
G01X1007Y5472D01*
G01X1016Y5486D01*
G01X1023Y5503D01*
G01X1027Y5520D01*
G01X1028Y5540D01*
G01X1026Y5564D01*
G01X1019Y5586D01*
G01X1008Y5605D01*
G01X993Y5620D01*
G01X975Y5633D01*
G01X953Y5642D01*
G01X930Y5647D01*
G37*

%LPD*%

%LPD*%
G36*
G01X1998Y5650D02*
G01X1947Y5650D01*
G01X1760Y5365D01*
G01X1760Y5332D01*
G01X1952Y5332D01*
G01X1952Y5211D01*
G01X1998Y5211D01*
G01X1998Y5332D01*
G01X2059Y5332D01*
G01X2059Y5371D01*
G01X1998Y5371D01*
G01X1998Y5650D01*
G37*

%LPC*%
G36*
G01X1956Y5592D02*
G01X1952Y5592D01*
G01X1945Y5577D01*
G01X1927Y5545D01*
G01X1918Y5530D01*
G01X1811Y5371D01*
G01X1952Y5371D01*
G01X1952Y5515D01*
G01X1953Y5533D01*
G01X1955Y5575D01*
G01X1956Y5592D01*
G37*

%LPD*%
G36*
G01X1507Y5650D02*
G01X1400Y5650D01*
G01X1400Y5211D01*
G01X1534Y5211D01*
G01X1556Y5214D01*
G01X1578Y5219D01*
G01X1597Y5226D01*
G01X1615Y5234D01*
G01X1632Y5244D01*
G01X1647Y5256D01*
G01X1661Y5269D01*
G01X1673Y5284D01*
G01X1683Y5301D01*
G01X1692Y5319D01*
G01X1700Y5339D01*
G01X1705Y5360D01*
G01X1709Y5382D01*
G01X1712Y5406D01*
G01X1713Y5432D01*
G01X1712Y5457D01*
G01X1709Y5480D01*
G01X1705Y5503D01*
G01X1700Y5524D01*
G01X1692Y5543D01*
G01X1683Y5561D01*
G01X1673Y5578D01*
G01X1661Y5592D01*
G01X1647Y5605D01*
G01X1632Y5617D01*
G01X1615Y5627D01*
G01X1597Y5635D01*
G01X1577Y5641D01*
G01X1555Y5646D01*
G01X1532Y5648D01*
G01X1507Y5650D01*
G37*

%LPC*%
G36*
G01X1503Y5609D02*
G01X1450Y5609D01*
G01X1450Y5251D01*
G01X1503Y5251D01*
G01X1529Y5253D01*
G01X1552Y5257D01*
G01X1573Y5264D01*
G01X1592Y5273D01*
G01X1609Y5285D01*
G01X1623Y5300D01*
G01X1635Y5316D01*
G01X1644Y5335D01*
G01X1652Y5356D01*
G01X1657Y5379D01*
G01X1660Y5405D01*
G01X1661Y5432D01*
G01X1660Y5459D01*
G01X1657Y5484D01*
G01X1652Y5507D01*
G01X1644Y5528D01*
G01X1635Y5546D01*
G01X1623Y5562D01*
G01X1609Y5576D01*
G01X1592Y5588D01*
G01X1573Y5597D01*
G01X1552Y5603D01*
G01X1529Y5607D01*
G01X1503Y5609D01*
G37*

%LPD*%

%LPD*%
G36*
G01X2507Y5650D02*
G01X2400Y5650D01*
G01X2400Y5211D01*
G01X2534Y5211D01*
G01X2556Y5214D01*
G01X2578Y5219D01*
G01X2597Y5226D01*
G01X2615Y5234D01*
G01X2632Y5244D01*
G01X2647Y5256D01*
G01X2661Y5269D01*
G01X2673Y5284D01*
G01X2683Y5301D01*
G01X2692Y5319D01*
G01X2700Y5339D01*
G01X2705Y5360D01*
G01X2709Y5382D01*
G01X2712Y5406D01*
G01X2713Y5432D01*
G01X2712Y5457D01*
G01X2709Y5480D01*
G01X2705Y5503D01*
G01X2700Y5524D01*
G01X2692Y5543D01*
G01X2683Y5561D01*
G01X2673Y5578D01*
G01X2661Y5592D01*
G01X2647Y5605D01*
G01X2632Y5617D01*
G01X2615Y5627D01*
G01X2597Y5635D01*
G01X2577Y5641D01*
G01X2555Y5646D01*
G01X2532Y5648D01*
G01X2507Y5650D01*
G37*

%LPC*%
G36*
G01X2503Y5609D02*
G01X2450Y5609D01*
G01X2450Y5251D01*
G01X2503Y5251D01*
G01X2529Y5253D01*
G01X2552Y5257D01*
G01X2573Y5264D01*
G01X2592Y5273D01*
G01X2609Y5285D01*
G01X2623Y5300D01*
G01X2635Y5316D01*
G01X2644Y5335D01*
G01X2652Y5356D01*
G01X2657Y5379D01*
G01X2660Y5405D01*
G01X2661Y5432D01*
G01X2660Y5459D01*
G01X2657Y5484D01*
G01X2652Y5507D01*
G01X2644Y5528D01*
G01X2635Y5546D01*
G01X2623Y5562D01*
G01X2609Y5576D01*
G01X2592Y5588D01*
G01X2573Y5597D01*
G01X2552Y5603D01*
G01X2529Y5607D01*
G01X2503Y5609D01*
G37*

%LPD*%
G36*
G01X3025Y5650D02*
G01X2814Y5650D01*
G01X2801Y5446D01*
G01X2827Y5428D01*
G01X2846Y5440D01*
G01X2863Y5448D01*
G01X2881Y5454D01*
G01X2902Y5455D01*
G01X2922Y5454D01*
G01X2940Y5448D01*
G01X2957Y5440D01*
G01X2970Y5428D01*
G01X2981Y5413D01*
G01X2990Y5395D01*
G01X2995Y5375D01*
G01X2997Y5351D01*
G01X2994Y5328D01*
G01X2989Y5307D01*
G01X2980Y5288D01*
G01X2968Y5273D01*
G01X2953Y5260D01*
G01X2937Y5251D01*
G01X2919Y5246D01*
G01X2900Y5244D01*
G01X2864Y5248D01*
G01X2834Y5259D01*
G01X2810Y5275D01*
G01X2789Y5294D01*
G01X2765Y5261D01*
G01X2777Y5250D01*
G01X2790Y5239D01*
G01X2804Y5230D01*
G01X2820Y5221D01*
G01X2838Y5213D01*
G01X2857Y5207D01*
G01X2879Y5204D01*
G01X2903Y5203D01*
G01X2922Y5204D01*
G01X2939Y5207D01*
G01X2956Y5213D01*
G01X2973Y5220D01*
G01X2988Y5230D01*
G01X3002Y5242D01*
G01X3014Y5256D01*
G01X3025Y5271D01*
G01X3034Y5289D01*
G01X3040Y5309D01*
G01X3044Y5330D01*
G01X3046Y5353D01*
G01X3043Y5386D01*
G01X3035Y5415D01*
G01X3023Y5440D01*
G01X3007Y5459D01*
G01X2987Y5475D01*
G01X2965Y5485D01*
G01X2940Y5492D01*
G01X2914Y5494D01*
G01X2894Y5492D01*
G01X2877Y5488D01*
G01X2861Y5482D01*
G01X2846Y5475D01*
G01X2857Y5607D01*
G01X3025Y5607D01*
G01X3025Y5650D01*
G37*

%LPD*%

%LPD*%
G36*
G01X3507Y5642D02*
G01X3400Y5642D01*
G01X3400Y5203D01*
G01X3534Y5203D01*
G01X3556Y5206D01*
G01X3578Y5211D01*
G01X3597Y5218D01*
G01X3615Y5226D01*
G01X3632Y5236D01*
G01X3647Y5248D01*
G01X3661Y5261D01*
G01X3673Y5276D01*
G01X3683Y5293D01*
G01X3692Y5311D01*
G01X3700Y5331D01*
G01X3705Y5352D01*
G01X3709Y5374D01*
G01X3712Y5398D01*
G01X3713Y5423D01*
G01X3712Y5449D01*
G01X3709Y5473D01*
G01X3705Y5495D01*
G01X3700Y5516D01*
G01X3692Y5535D01*
G01X3683Y5553D01*
G01X3673Y5569D01*
G01X3661Y5584D01*
G01X3647Y5598D01*
G01X3632Y5609D01*
G01X3615Y5619D01*
G01X3597Y5627D01*
G01X3577Y5633D01*
G01X3555Y5638D01*
G01X3532Y5640D01*
G01X3507Y5642D01*
G37*

%LPC*%
G36*
G01X3503Y5601D02*
G01X3450Y5601D01*
G01X3450Y5244D01*
G01X3503Y5244D01*
G01X3529Y5245D01*
G01X3552Y5249D01*
G01X3573Y5256D01*
G01X3592Y5265D01*
G01X3609Y5277D01*
G01X3623Y5292D01*
G01X3635Y5308D01*
G01X3644Y5327D01*
G01X3652Y5348D01*
G01X3657Y5371D01*
G01X3660Y5396D01*
G01X3661Y5423D01*
G01X3660Y5451D01*
G01X3657Y5476D01*
G01X3652Y5499D01*
G01X3644Y5520D01*
G01X3635Y5538D01*
G01X3623Y5554D01*
G01X3609Y5568D01*
G01X3592Y5580D01*
G01X3573Y5589D01*
G01X3552Y5595D01*
G01X3529Y5599D01*
G01X3503Y5601D01*
G37*

%LPD*%
G36*
G01X3974Y5646D02*
G01X3943Y5650D01*
G01X3928Y5649D01*
G01X3913Y5646D01*
G01X3897Y5642D01*
G01X3883Y5637D01*
G01X3869Y5629D01*
G01X3856Y5620D01*
G01X3843Y5609D01*
G01X3831Y5595D01*
G01X3821Y5580D01*
G01X3811Y5563D01*
G01X3803Y5543D01*
G01X3796Y5522D01*
G01X3790Y5498D01*
G01X3786Y5471D01*
G01X3783Y5443D01*
G01X3782Y5411D01*
G01X3784Y5377D01*
G01X3788Y5346D01*
G01X3793Y5317D01*
G01X3802Y5291D01*
G01X3811Y5269D01*
G01X3823Y5249D01*
G01X3837Y5232D01*
G01X3852Y5219D01*
G01X3869Y5208D01*
G01X3888Y5201D01*
G01X3907Y5196D01*
G01X3927Y5194D01*
G01X3952Y5197D01*
G01X3975Y5205D01*
G01X3996Y5217D01*
G01X4015Y5234D01*
G01X4030Y5255D01*
G01X4042Y5279D01*
G01X4049Y5306D01*
G01X4052Y5336D01*
G01X4049Y5369D01*
G01X4043Y5397D01*
G01X4033Y5421D01*
G01X4019Y5440D01*
G01X4001Y5455D01*
G01X3981Y5466D01*
G01X3957Y5472D01*
G01X3931Y5475D01*
G01X3903Y5471D01*
G01X3877Y5460D01*
G01X3851Y5443D01*
G01X3828Y5421D01*
G01X3830Y5454D01*
G01X3834Y5483D01*
G01X3839Y5509D01*
G01X3846Y5532D01*
G01X3855Y5551D01*
G01X3865Y5567D01*
G01X3876Y5581D01*
G01X3888Y5591D01*
G01X3902Y5599D01*
G01X3915Y5604D01*
G01X3930Y5607D01*
G01X3946Y5609D01*
G01X3965Y5606D01*
G01X3984Y5600D01*
G01X4001Y5590D01*
G01X4015Y5576D01*
G01X4043Y5605D01*
G01X4024Y5623D01*
G01X4001Y5637D01*
G01X3974Y5646D01*
G37*

%LPC*%
G36*
G01X3942Y5436D02*
G01X3922Y5438D01*
G01X3900Y5434D01*
G01X3877Y5424D01*
G01X3853Y5406D01*
G01X3830Y5380D01*
G01X3833Y5346D01*
G01X3839Y5317D01*
G01X3848Y5292D01*
G01X3859Y5272D01*
G01X3872Y5255D01*
G01X3889Y5243D01*
G01X3907Y5236D01*
G01X3927Y5234D01*
G01X3943Y5236D01*
G01X3958Y5241D01*
G01X3971Y5250D01*
G01X3982Y5262D01*
G01X3992Y5277D01*
G01X3999Y5295D01*
G01X4003Y5315D01*
G01X4005Y5336D01*
G01X4003Y5358D01*
G01X4000Y5378D01*
G01X3993Y5395D01*
G01X3985Y5410D01*
G01X3973Y5422D01*
G01X3959Y5430D01*
G01X3942Y5436D01*
G37*

%LPD*%

%LPD*%
G36*
G01X3048Y2250D02*
G01X3011Y2250D01*
G01X2993Y2240D01*
G01X2973Y2232D01*
G01X2949Y2225D01*
G01X2922Y2219D01*
G01X2922Y2188D01*
G01X3001Y2188D01*
G01X3001Y1851D01*
G01X2902Y1851D01*
G01X2902Y1811D01*
G01X3139Y1811D01*
G01X3139Y1851D01*
G01X3048Y1851D01*
G01X3048Y2250D01*
G37*

%LPD*%
G36*
G01X2607Y2250D02*
G01X2500Y2250D01*
G01X2500Y1811D01*
G01X2634Y1811D01*
G01X2656Y1814D01*
G01X2678Y1819D01*
G01X2697Y1826D01*
G01X2715Y1834D01*
G01X2732Y1844D01*
G01X2747Y1856D01*
G01X2761Y1869D01*
G01X2773Y1884D01*
G01X2783Y1901D01*
G01X2792Y1919D01*
G01X2800Y1939D01*
G01X2805Y1960D01*
G01X2809Y1982D01*
G01X2812Y2006D01*
G01X2813Y2032D01*
G01X2812Y2057D01*
G01X2809Y2080D01*
G01X2805Y2103D01*
G01X2800Y2124D01*
G01X2792Y2143D01*
G01X2783Y2161D01*
G01X2773Y2178D01*
G01X2761Y2192D01*
G01X2747Y2205D01*
G01X2732Y2217D01*
G01X2715Y2227D01*
G01X2697Y2235D01*
G01X2677Y2241D01*
G01X2655Y2246D01*
G01X2632Y2248D01*
G01X2607Y2250D01*
G37*

%LPC*%
G36*
G01X2603Y2209D02*
G01X2550Y2209D01*
G01X2550Y1851D01*
G01X2603Y1851D01*
G01X2629Y1853D01*
G01X2652Y1857D01*
G01X2673Y1864D01*
G01X2692Y1873D01*
G01X2709Y1885D01*
G01X2723Y1900D01*
G01X2735Y1916D01*
G01X2744Y1935D01*
G01X2752Y1956D01*
G01X2757Y1979D01*
G01X2760Y2005D01*
G01X2761Y2032D01*
G01X2760Y2059D01*
G01X2757Y2084D01*
G01X2752Y2107D01*
G01X2744Y2128D01*
G01X2735Y2146D01*
G01X2723Y2162D01*
G01X2709Y2176D01*
G01X2692Y2188D01*
G01X2673Y2197D01*
G01X2652Y2203D01*
G01X2629Y2207D01*
G01X2603Y2209D01*
G37*

%LPD*%

%LPD*%
G36*
G01X3928Y2247D02*
G01X3901Y2250D01*
G01X3881Y2248D01*
G01X3862Y2245D01*
G01X3845Y2239D01*
G01X3829Y2232D01*
G01X3814Y2223D01*
G01X3786Y2199D01*
G01X3772Y2186D01*
G01X3802Y2157D01*
G01X3822Y2178D01*
G01X3844Y2195D01*
G01X3868Y2205D01*
G01X3894Y2209D01*
G01X3914Y2208D01*
G01X3932Y2203D01*
G01X3946Y2194D01*
G01X3958Y2184D01*
G01X3967Y2170D01*
G01X3973Y2155D01*
G01X3977Y2138D01*
G01X3978Y2119D01*
G01X3978Y2105D01*
G01X3976Y2090D01*
G01X3972Y2075D01*
G01X3967Y2060D01*
G01X3960Y2044D01*
G01X3951Y2028D01*
G01X3941Y2011D01*
G01X3930Y1993D01*
G01X3916Y1975D01*
G01X3901Y1957D01*
G01X3885Y1938D01*
G01X3866Y1918D01*
G01X3846Y1897D01*
G01X3825Y1876D01*
G01X3801Y1854D01*
G01X3776Y1832D01*
G01X3776Y1803D01*
G01X4047Y1803D01*
G01X4047Y1844D01*
G01X3885Y1844D01*
G01X3867Y1842D01*
G01X3850Y1840D01*
G01X3906Y1896D01*
G01X3922Y1915D01*
G01X3938Y1932D01*
G01X3966Y1968D01*
G01X3978Y1986D01*
G01X3989Y2003D01*
G01X3999Y2020D01*
G01X4007Y2037D01*
G01X4014Y2054D01*
G01X4019Y2071D01*
G01X4023Y2088D01*
G01X4026Y2105D01*
G01X4027Y2121D01*
G01X4024Y2149D01*
G01X4018Y2175D01*
G01X4007Y2196D01*
G01X3993Y2215D01*
G01X3975Y2230D01*
G01X3953Y2240D01*
G01X3928Y2247D01*
G37*

%LPD*%
G36*
G01X3507Y2242D02*
G01X3400Y2242D01*
G01X3400Y1803D01*
G01X3534Y1803D01*
G01X3556Y1806D01*
G01X3578Y1811D01*
G01X3597Y1818D01*
G01X3615Y1826D01*
G01X3632Y1836D01*
G01X3647Y1848D01*
G01X3661Y1861D01*
G01X3673Y1876D01*
G01X3683Y1893D01*
G01X3692Y1911D01*
G01X3700Y1931D01*
G01X3705Y1952D01*
G01X3709Y1974D01*
G01X3712Y1998D01*
G01X3713Y2023D01*
G01X3712Y2049D01*
G01X3709Y2073D01*
G01X3705Y2095D01*
G01X3700Y2116D01*
G01X3692Y2135D01*
G01X3683Y2153D01*
G01X3673Y2169D01*
G01X3661Y2184D01*
G01X3647Y2198D01*
G01X3632Y2209D01*
G01X3615Y2219D01*
G01X3597Y2227D01*
G01X3577Y2233D01*
G01X3555Y2238D01*
G01X3532Y2240D01*
G01X3507Y2242D01*
G37*

%LPC*%
G36*
G01X3503Y2201D02*
G01X3450Y2201D01*
G01X3450Y1844D01*
G01X3503Y1844D01*
G01X3529Y1845D01*
G01X3552Y1849D01*
G01X3573Y1856D01*
G01X3592Y1865D01*
G01X3609Y1877D01*
G01X3623Y1892D01*
G01X3635Y1908D01*
G01X3644Y1927D01*
G01X3652Y1948D01*
G01X3657Y1971D01*
G01X3660Y1996D01*
G01X3661Y2023D01*
G01X3660Y2051D01*
G01X3657Y2076D01*
G01X3652Y2099D01*
G01X3644Y2120D01*
G01X3635Y2138D01*
G01X3623Y2154D01*
G01X3609Y2168D01*
G01X3592Y2180D01*
G01X3573Y2189D01*
G01X3552Y2195D01*
G01X3529Y2199D01*
G01X3503Y2201D01*
G37*

%LPD*%

%LPD*%
G36*
G01X906Y1998D02*
G01X753Y1998D01*
G01X753Y1959D01*
G01X906Y1959D01*
G01X906Y1998D01*
G37*

%LPD*%
G36*
G01X452Y2250D02*
G01X400Y2250D01*
G01X540Y1811D01*
G01X597Y1811D01*
G01X739Y2250D01*
G01X688Y2250D01*
G01X615Y2007D01*
G01X610Y1988D01*
G01X604Y1970D01*
G01X599Y1952D01*
G01X593Y1935D01*
G01X589Y1917D01*
G01X577Y1881D01*
G01X572Y1863D01*
G01X568Y1863D01*
G01X563Y1881D01*
G01X557Y1899D01*
G01X552Y1917D01*
G01X542Y1952D01*
G01X536Y1970D01*
G01X531Y1988D01*
G01X526Y2007D01*
G01X452Y2250D01*
G37*

%LPD*%

%LPD*%
G36*
G01X1923Y2182D02*
G01X1884Y2182D01*
G01X1884Y2050D01*
G01X1761Y2050D01*
G01X1761Y2013D01*
G01X1884Y2013D01*
G01X1884Y1880D01*
G01X1923Y1880D01*
G01X1923Y2013D01*
G01X2046Y2013D01*
G01X2046Y2050D01*
G01X1923Y2050D01*
G01X1923Y2182D01*
G37*

%LPD*%
G36*
G01X1452Y2250D02*
G01X1400Y2250D01*
G01X1540Y1811D01*
G01X1597Y1811D01*
G01X1739Y2250D01*
G01X1688Y2250D01*
G01X1615Y2007D01*
G01X1610Y1988D01*
G01X1604Y1970D01*
G01X1599Y1952D01*
G01X1593Y1935D01*
G01X1589Y1917D01*
G01X1577Y1881D01*
G01X1572Y1863D01*
G01X1568Y1863D01*
G01X1563Y1881D01*
G01X1557Y1899D01*
G01X1552Y1917D01*
G01X1542Y1952D01*
G01X1536Y1970D01*
G01X1531Y1988D01*
G01X1526Y2007D01*
G01X1452Y2250D01*
G37*

%LPD*%
M00*
M02*
