G04 Layer: BottomSolderMaskLayer*
G04 EasyEDA v6.3.22, 2020-02-22T14:36:41+01:00*
G04 fca1b2bbbae341289ab7ee7fc42174b0,5bf1b712bda346c5934589caff60f8c7,10*
G04 Gerber Generator version 0.2*
G04 Scale: 100 percent, Rotated: No, Reflected: No *
G04 Dimensions in inches *
G04 leading zeros omitted , absolute positions ,2 integer and 4 decimal *
%FSLAX24Y24*%
%MOIN*%
G90*
G70D02*

%ADD25C,0.067000*%
%ADD27C,0.112000*%
%ADD28C,0.071937*%
%ADD30C,0.078866*%

%LPD*%
G54D25*
G01X7750Y2400D03*
G36*
G01X8115Y4865D02*
G01X8115Y5534D01*
G01X8785Y5534D01*
G01X8785Y4865D01*
G01X8115Y4865D01*
G37*
G01X8451Y3600D03*
G01X8451Y4400D03*
G01X7750Y4000D03*
G01X7750Y4800D03*
G01X8451Y2800D03*
G54D27*
G01X8101Y6990D03*
G01X8101Y609D03*
G54D25*
G01X7750Y3200D03*
G01X5852Y2001D03*
G01X5852Y1098D03*
G01X5852Y6501D03*
G01X5852Y5598D03*
G54D28*
G01X700Y3250D03*
G01X700Y4250D03*
G01X1700Y3250D03*
G01X1700Y4250D03*
G01X2700Y3250D03*
G01X2700Y4250D03*
G01X3700Y3250D03*
G01X3700Y4250D03*
G36*
G01X356Y355D02*
G01X356Y1144D01*
G01X1143Y1144D01*
G01X1143Y355D01*
G01X356Y355D01*
G37*
G54D30*
G01X1750Y750D03*
G01X2750Y750D03*
G01X3750Y750D03*
G36*
G01X356Y6355D02*
G01X356Y7144D01*
G01X1143Y7144D01*
G01X1143Y6355D01*
G01X356Y6355D01*
G37*
G01X1750Y6750D03*
G01X2750Y6750D03*
G01X3750Y6750D03*
G36*
G01X9675Y3132D02*
G01X9675Y3667D01*
G01X10325Y3667D01*
G01X10325Y3132D01*
G01X9675Y3132D01*
G37*
G36*
G01X9675Y2332D02*
G01X9675Y2867D01*
G01X10325Y2867D01*
G01X10325Y2332D01*
G01X9675Y2332D01*
G37*
G36*
G01X9675Y4082D02*
G01X9675Y4617D01*
G01X10325Y4617D01*
G01X10325Y4082D01*
G01X9675Y4082D01*
G37*
G36*
G01X9675Y4882D02*
G01X9675Y5417D01*
G01X10325Y5417D01*
G01X10325Y4882D01*
G01X9675Y4882D01*
G37*
M00*
M02*
