G04 Layer: BottomLayer*
G04 EasyEDA v6.3.22, 2020-02-22T14:36:41+01:00*
G04 fca1b2bbbae341289ab7ee7fc42174b0,5bf1b712bda346c5934589caff60f8c7,10*
G04 Gerber Generator version 0.2*
G04 Scale: 100 percent, Rotated: No, Reflected: No *
G04 Dimensions in inches *
G04 leading zeros omitted , absolute positions ,2 integer and 4 decimal *
%FSLAX24Y24*%
%MOIN*%
G90*
G70D02*

%ADD10C,0.010000*%
%ADD11C,0.024000*%
%ADD12C,0.059000*%
%ADD13R,0.059000X0.059000*%
%ADD14C,0.104000*%
%ADD15C,0.063937*%
%ADD16R,0.070866X0.070866*%
%ADD17C,0.070866*%

%LPD*%
G54D10*
G01X8101Y609D02*
G01X8101Y1351D01*
G01X8500Y1750D01*
G01X8500Y2751D01*
G01X8451Y2800D01*
G01X8450Y2800D02*
G01X9050Y3400D01*
G01X10000Y3400D01*
G01X750Y5000D02*
G01X1500Y5750D01*
G01X4250Y5750D01*
G01X5650Y7150D01*
G01X6500Y7150D01*
G01X7000Y6650D01*
G01X7000Y6000D01*
G01X7500Y5500D01*
G01X8000Y5500D01*
G01X8451Y5200D01*
G01X2750Y2500D02*
G01X4750Y2500D01*
G01X4750Y1000D02*
G01X5753Y1000D01*
G01X5852Y1098D01*
G01X6750Y3500D02*
G01X6750Y4750D01*
G01X6400Y2650D02*
G01X6400Y5051D01*
G01X5852Y5598D01*
G01X5000Y5500D02*
G01X4750Y5500D01*
G01X2250Y5500D01*
G01X1750Y5000D01*
G01X750Y2500D02*
G01X1250Y2000D01*
G01X5000Y2000D01*
G01X5250Y1750D01*
G01X5250Y500D02*
G01X7990Y500D01*
G01X8101Y609D01*
G01X10000Y2600D02*
G01X9850Y2750D01*
G01X9500Y2750D01*
G01X7100Y1150D02*
G01X7100Y4050D01*
G01X10000Y5150D02*
G01X9250Y5150D01*
G01X9250Y5250D01*
G01X8500Y6000D01*
G01X7750Y6000D01*
G01X7500Y6250D01*
G01X5250Y3000D02*
G01X5250Y4100D01*
G01X5100Y4250D01*
G01X3700Y4250D01*
G01X1750Y2500D02*
G01X2000Y2250D01*
G01X5250Y2250D01*
G01X5500Y2500D01*
G01X6000Y2500D01*
G01X6150Y2650D01*
G01X6400Y2650D01*
G01X5750Y2750D02*
G01X5750Y4500D01*
G01X5500Y4750D01*
G01X5000Y4750D01*
G01X4750Y5000D01*
G01X2750Y5000D01*
G01X10000Y3400D02*
G01X10000Y4350D01*
G36*
G01X9714Y3628D02*
G01X9714Y3171D01*
G01X10285Y3171D01*
G01X10285Y3628D01*
G01X9714Y3628D01*
G37*
G36*
G01X9714Y2828D02*
G01X9714Y2371D01*
G01X10285Y2371D01*
G01X10285Y2828D01*
G01X9714Y2828D01*
G37*
G36*
G01X10285Y4121D02*
G01X10285Y4578D01*
G01X9714Y4578D01*
G01X9714Y4121D01*
G01X10285Y4121D01*
G37*
G36*
G01X10285Y4921D02*
G01X10285Y5378D01*
G01X9714Y5378D01*
G01X9714Y4921D01*
G01X10285Y4921D01*
G37*
G54D12*
G01X7750Y2400D03*
G54D13*
G01X8451Y5200D03*
G54D12*
G01X8451Y3600D03*
G01X8451Y4400D03*
G01X7750Y4000D03*
G01X7750Y4800D03*
G01X8451Y2800D03*
G54D14*
G01X8101Y6990D03*
G01X8101Y609D03*
G54D12*
G01X7750Y3200D03*
G01X5852Y2001D03*
G01X5852Y1098D03*
G01X5852Y6501D03*
G01X5852Y5598D03*
G54D15*
G01X700Y3250D03*
G01X700Y4250D03*
G01X1700Y3250D03*
G01X1700Y4250D03*
G01X2700Y3250D03*
G01X2700Y4250D03*
G01X3700Y3250D03*
G01X3700Y4250D03*
G54D16*
G01X750Y750D03*
G54D17*
G01X1750Y750D03*
G01X2750Y750D03*
G01X3750Y750D03*
G54D16*
G01X750Y6750D03*
G54D17*
G01X1750Y6750D03*
G01X2750Y6750D03*
G01X3750Y6750D03*
G54D11*
G01X750Y5000D03*
G01X1750Y5000D03*
G01X2750Y5000D03*
G01X2750Y2500D03*
G01X1750Y2500D03*
G01X750Y2500D03*
G01X4750Y2500D03*
G01X4750Y1000D03*
G01X6750Y3500D03*
G01X6750Y4750D03*
G01X6400Y2650D03*
G01X5250Y1750D03*
G01X5250Y500D03*
G01X9500Y2750D03*
G01X7100Y1150D03*
G01X7100Y4050D03*
G01X7000Y5250D03*
G01X7500Y6250D03*
G01X5000Y5500D03*
G01X5750Y2750D03*
G01X5250Y3000D03*
M00*
M02*
