;Layer: Drill PTH
;EasyEDA v6.3.22, 2020-02-22T14:36:41+01:00
;fca1b2bbbae341289ab7ee7fc42174b0,5bf1b712bda346c5934589caff60f8c7,10
;Gerber Generator version 0.2
M48
INCH,LZ,00.0000
;Holesize 1 = 0.012 INCH
T01C0.012
;Holesize 2 = 0.036 INCH
T02C0.036
;Holesize 3 = 0.043 INCH
T03C0.043
;Holesize 4 = 0.047 INCH
T04C0.047
;Holesize 5 = 0.071 INCH
T05C0.071
%
G05
G90
T01
X+000750Y+005000
X+001750Y+005000
X+002750Y+005000
X+002750Y+002500
X+001750Y+002500
X+000750Y+002500
X+004750Y+002500
X+004750Y+001000
X+006750Y+003500
X+006750Y+004750
X+006400Y+002650
X+005250Y+001750
X+005250Y+000500
X+009500Y+002750
X+007100Y+001150
X+007100Y+004050
X+007000Y+005250
X+007500Y+006250
X+005000Y+005500
X+005750Y+002750
X+005250Y+003000
T02
X+007750Y+002400
X+008451Y+005200
X+008451Y+003600
X+008451Y+004400
X+007750Y+004000
X+007750Y+004800
X+008451Y+002800
X+007750Y+003200
X+005852Y+002001
X+005852Y+001098
X+005852Y+006501
X+005852Y+005598
T03
X+000699Y+003249
X+000699Y+004249
X+001699Y+003249
X+001699Y+004249
X+002699Y+003249
X+002699Y+004249
X+003699Y+003249
X+003699Y+004249
T04
X+000750Y+000750
X+001750Y+000750
X+002750Y+000750
X+003750Y+000750
X+000750Y+006750
X+001750Y+006750
X+002750Y+006750
X+003750Y+006750
T05
X+008101Y+006990
X+008101Y+000609
M30
